SplineFontDB: 3.2
FontName: KotopoDika
FullName: Kotopo Dika
FamilyName: Kotopo Dika
Weight: Bold
Copyright: SIL Open Font License. Adam D. Prakasa (2023)
Version: 001.001
ItalicAngle: 0
UnderlinePosition: -100
UnderlineWidth: 50
Ascent: 800
Descent: 200
InvalidEm: 0
sfntRevision: 0x00010000
LayerCount: 2
Layer: 0 1 "Back" 1
Layer: 1 1 "Fore" 0
XUID: [1021 16 1011222284 29878]
StyleMap: 0x0040
FSType: 0
OS2Version: 4
OS2_WeightWidthSlopeOnly: 0
OS2_UseTypoMetrics: 0
CreationTime: 1682579663
ModificationTime: 1682819489
PfmFamily: 17
TTFWeight: 400
TTFWidth: 5
LineGap: 90
VLineGap: 0
Panose: 2 0 5 3 0 0 0 0 0 0
OS2TypoAscent: 800
OS2TypoAOffset: 0
OS2TypoDescent: -200
OS2TypoDOffset: 0
OS2TypoLinegap: 90
OS2WinAscent: 867
OS2WinAOffset: 0
OS2WinDescent: 481
OS2WinDOffset: 0
HheadAscent: 867
HheadAOffset: 0
HheadDescent: -481
HheadDOffset: 0
OS2SubXSize: 650
OS2SubYSize: 700
OS2SubXOff: 0
OS2SubYOff: 140
OS2SupXSize: 650
OS2SupYSize: 700
OS2SupXOff: 0
OS2SupYOff: 480
OS2StrikeYSize: 49
OS2StrikeYPos: 258
OS2CapHeight: 645
OS2XHeight: 645
OS2Vendor: 'CLGR'
OS2CodePages: 00000001.00000000
OS2UnicodeRanges: 00000003.00000000.00000000.00000000
Lookup: 4 0 1 "'rlig' Required Ligatures lookup 0" { "'rlig' Required Ligatures lookup 0-1"  } ['rlig' ('DFLT' <'dflt' > 'grek' <'dflt' > 'latn' <'dflt' > ) ]
Lookup: 258 0 0 "'kern' Horizontal Kerning in Latin lookup 0" { "'kern' Horizontal Kerning in Latin lookup 0-2" [150,15,0] } ['kern' ('DFLT' <'dflt' > 'latn' <'dflt' > ) ]
MarkAttachClasses: 1
DEI: 91125
KernClass2: 7 5 "'kern' Horizontal Kerning in Latin lookup 0-2"
 7 B P b p
 3 L l
 49 A K X a k x Abreve abreve Hcircumflex hcircumflex
 81 O U W Y o u w Obreve obreve Ubreve ubreve Ycircumflex ycircumflex uni018F uni0259
 3 R r
 123 H Q h q Gbreve gbreve Hbar hbar Lslash lslash Rcaron rcaron uni0241 uni0242 uni0266 uni026E uni0274 uni0294 uni02A1 uni02A2
 45 A L a l Abreve abreve uni013B uni013C uni028E
 3 R r

StartChar: .notdef
Encoding: 65536 -1 0
Width: 364
Flags: W
LayerCount: 2
Fore
SplineSet
33 0 m 1,0,-1
 33 666 l 1,1,-1
 298 666 l 1,2,-1
 298 0 l 1,3,-1
 33 0 l 1,0,-1
66 33 m 1,4,-1
 265 33 l 1,5,-1
 265 633 l 1,6,-1
 66 633 l 1,7,-1
 66 33 l 1,4,-1
EndSplineSet
Validated: 1
EndChar

StartChar: exclam
Encoding: 33 33 5
Width: 213
Flags: W
LayerCount: 2
Fore
SplineSet
54 590 m 128,-1,1
 58 594 58 594 108 594 c 2,2,-1
 158 594 l 1,3,-1
 162 564 l 2,4,5
 163 558 163 558 163 541 c 0,6,7
 163 450 163 450 143 303 c 0,8,9
 133 236 133 236 133 229 c 0,10,11
 133 227 133 227 106 229 c 2,12,-1
 79 230 l 1,13,-1
 70 288 l 2,14,15
 50 425 50 425 50 546 c 0,16,0
 50 586 50 586 54 590 c 128,-1,1
51 140 m 2,17,18
 51 177 51 177 59 184.5 c 128,-1,19
 67 192 67 192 105 192 c 0,20,21
 142 192 142 192 150.5 183.5 c 128,-1,22
 159 175 159 175 159 140 c 2,23,-1
 159 130 l 2,24,25
 159 100 159 100 153 94.5 c 128,-1,26
 147 89 147 89 116 89 c 2,27,-1
 105 89 l 1,28,-1
 94 89 l 2,29,30
 63 89 63 89 57 94.5 c 128,-1,31
 51 100 51 100 51 130 c 2,32,-1
 51 140 l 2,17,18
EndSplineSet
Validated: 1
EndChar

StartChar: quotedbl
Encoding: 34 34 6
AltUni2: 00201e.ffffffff.0 00201d.ffffffff.0 00201c.ffffffff.0
Width: 280
Flags: W
LayerCount: 2
Fore
SplineSet
50 403 m 1,0,-1
 50 594 l 1,1,-1
 85 593 l 1,2,-1
 120 591 l 1,3,-1
 121 509 l 2,4,5
 121 496 121 496 121.5 477.5 c 128,-1,6
 122 459 122 459 122 453 c 0,7,8
 122 418 122 418 117 410.5 c 128,-1,9
 112 403 112 403 92 403 c 2,10,-1
 84 403 l 1,11,-1
 50 403 l 1,0,-1
162 590 m 0,12,13
 166 594 166 594 198 594 c 2,14,-1
 230 594 l 1,15,-1
 230 403 l 1,16,-1
 197 403 l 2,17,18
 165 403 165 403 161 411 c 0,19,20
 158 418 158 418 158 496 c 0,21,22
 158 587 158 587 162 590 c 0,12,13
EndSplineSet
Validated: 1
EndChar

StartChar: quotesinglbase
Encoding: 8218 8218 7
Width: 180
Flags: W
LayerCount: 2
Fore
SplineSet
50 403 m 1,0,-1
 50 594 l 1,1,-1
 85 593 l 1,2,-1
 120 591 l 1,3,-1
 121 509 l 2,4,5
 121 496 121 496 121.5 477.5 c 128,-1,6
 122 459 122 459 122 453 c 0,7,8
 122 418 122 418 117 410.5 c 128,-1,9
 112 403 112 403 92 403 c 2,10,-1
 84 403 l 1,11,-1
 50 403 l 1,0,-1
EndSplineSet
EndChar

StartChar: comma
Encoding: 44 44 8
Width: 211
Flags: W
LayerCount: 2
Fore
SplineSet
51 89 m 1,0,-1
 51 192 l 1,1,-1
 160 192 l 1,2,-1
 158 126 l 2,3,4
 156 57 156 57 143 29 c 128,-1,5
 130 1 130 1 90 -18 c 0,6,7
 65 -29 65 -29 59 -29 c 0,8,9
 51 -29 51 -29 51 -12 c 0,10,11
 51 -1 51 -1 55 4.5 c 128,-1,12
 59 10 59 10 74 19 c 0,13,14
 108 39 108 39 108 73 c 0,15,16
 108 84 108 84 104 86.5 c 128,-1,17
 100 89 100 89 79 89 c 2,18,-1
 51 89 l 1,0,-1
EndSplineSet
Validated: 1
EndChar

StartChar: period
Encoding: 46 46 9
Width: 209
Flags: W
LayerCount: 2
Fore
SplineSet
50 89 m 5,0,-1
 50 192 l 5,1,-1
 158 192 l 5,2,-1
 158 89 l 5,3,-1
 50 89 l 5,0,-1
EndSplineSet
Validated: 1
EndChar

StartChar: zero
Encoding: 48 48 10
Width: 438
Flags: W
LayerCount: 2
Fore
SplineSet
256 512 m 0,0,1
 242 527 242 527 219 527 c 0,2,3
 197 527 197 527 183 512 c 128,-1,4
 169 497 169 497 162.5 474 c 128,-1,5
 156 451 156 451 151 398 c 0,6,7
 149 382 149 382 149 344 c 0,8,9
 149 250 149 250 162 205 c 0,10,11
 167 186 167 186 184 168.5 c 128,-1,12
 201 151 201 151 215 151 c 0,13,14
 290 151 290 151 290 328 c 0,15,16
 290 355 290 355 289 370 c 0,17,18
 285 482 285 482 256 512 c 0,0,1
177 604 m 0,19,20
 193 608 193 608 213 608 c 0,21,22
 278 608 278 608 321 570 c 0,23,24
 388 509 388 509 388 346 c 2,25,-1
 388 338 l 2,26,27
 388 173 388 173 323 114 c 0,28,29
 279 73 279 73 219 73 c 0,30,31
 96 73 96 73 60 210 c 0,32,33
 50 247 50 247 50 341 c 128,-1,34
 50 435 50 435 60 474 c 0,35,36
 88 585 88 585 177 604 c 0,19,20
EndSplineSet
Validated: 1
EndChar

StartChar: one
Encoding: 49 49 11
Width: 304
Flags: W
LayerCount: 2
Fore
SplineSet
164 571 m 2,0,-1
 172 599 l 1,1,-1
 247 599 l 1,2,-1
 250 534 l 2,3,4
 254 460 254 460 254 281 c 2,5,-1
 254 94 l 1,6,-1
 205 94 l 2,7,8
 157 94 157 94 156 101 c 0,9,10
 156 181 156 181 155 272 c 2,11,-1
 154 437 l 1,12,-1
 104 438 l 1,13,-1
 53 440 l 1,14,-1
 53 511 l 1,15,-1
 70 511 l 2,16,17
 147 511 147 511 164 571 c 2,0,-1
EndSplineSet
Validated: 1
EndChar

StartChar: two
Encoding: 50 50 12
Width: 442
Flags: W
LayerCount: 2
Fore
SplineSet
169 603 m 0,0,1
 186 608 186 608 213 608 c 0,2,3
 225 608 225 608 230 607 c 0,4,5
 385 598 385 598 385 457 c 0,6,7
 385 410 385 410 358.5 372 c 128,-1,8
 332 334 332 334 259 274 c 0,9,10
 191 217 191 217 182 191 c 2,11,-1
 177 176 l 1,12,-1
 388 176 l 1,13,-1
 388 141 l 2,14,15
 388 129 388 129 389.5 113 c 128,-1,16
 391 97 391 97 391 96 c 0,17,18
 391 89 391 89 223 89 c 2,19,-1
 51 89 l 1,20,-1
 54 127 l 2,21,22
 58 180 58 180 87.5 225.5 c 128,-1,23
 117 271 117 271 181 323 c 0,24,25
 219 352 219 352 252 385 c 0,26,27
 284 416 284 416 287 441 c 0,28,29
 289 457 289 457 289 462 c 0,30,31
 289 488 289 488 269 507 c 0,32,33
 259 517 259 517 251 519.5 c 128,-1,34
 243 522 243 522 224 522 c 0,35,36
 194 522 194 522 182 515 c 0,37,38
 151 499 151 499 149 456 c 2,39,-1
 149 434 l 1,40,-1
 58 434 l 1,41,-1
 58 451 l 2,42,43
 58 469 58 469 65 493 c 0,44,45
 79 545 79 545 101 568 c 128,-1,46
 123 591 123 591 169 603 c 0,0,1
EndSplineSet
Validated: 1
EndChar

StartChar: three
Encoding: 51 51 13
Width: 441
Flags: W
LayerCount: 2
Fore
SplineSet
180 604 m 0,0,1
 204 608 204 608 217 608 c 0,2,3
 263 608 263 608 301 589 c 0,4,5
 375 553 375 553 375 470 c 0,6,7
 375 443 375 443 363.5 414 c 128,-1,8
 352 385 352 385 336 373 c 0,9,10
 323 363 323 363 323 357 c 0,11,12
 323 352 323 352 332 349 c 0,13,14
 343 345 343 345 359 327 c 128,-1,15
 375 309 375 309 382 291 c 0,16,17
 390 272 390 272 390 234 c 128,-1,18
 390 196 390 196 382 175 c 0,19,20
 374 151 374 151 352.5 127 c 128,-1,21
 331 103 331 103 304 90 c 0,22,23
 284 80 284 80 270 78 c 128,-1,24
 256 76 256 76 215 76 c 0,25,26
 173 76 173 76 160 78.5 c 128,-1,27
 147 81 147 81 127 92 c 0,28,29
 93 111 93 111 71.5 147 c 128,-1,30
 50 183 50 183 50 221 c 2,31,-1
 50 238 l 1,32,-1
 96 238 l 2,33,34
 143 238 143 238 143 232 c 0,35,36
 143 218 143 218 151.5 199 c 128,-1,37
 160 180 160 180 170 170 c 0,38,39
 185 156 185 156 216 156 c 0,40,41
 238 156 238 156 245.5 159 c 128,-1,42
 253 162 253 162 266 176 c 0,43,44
 291 203 291 203 291 237 c 0,45,46
 291 249 291 249 286 266 c 0,47,48
 279 286 279 286 263.5 296 c 128,-1,49
 248 306 248 306 216 311 c 2,50,-1
 179 318 l 1,51,-1
 179 381 l 1,52,-1
 206 385 l 2,53,54
 281 396 281 396 281 452 c 0,55,56
 281 467 281 467 277 480 c 0,57,58
 264 527 264 527 218 527 c 0,59,60
 165 526 165 526 153 468 c 2,61,-1
 150 452 l 1,62,-1
 105 451 l 1,63,-1
 60 449 l 1,64,-1
 60 467 l 2,65,66
 60 513 60 513 95.5 553 c 128,-1,67
 131 593 131 593 180 604 c 0,0,1
EndSplineSet
Validated: 1
EndChar

StartChar: four
Encoding: 52 52 14
Width: 458
Flags: W
LayerCount: 2
Fore
SplineSet
249 359 m 2,0,1
 249 444 249 444 247 444 c 0,2,3
 244 444 244 444 188 347 c 0,4,5
 151 282 151 282 151 279 c 0,6,7
 151 274 151 274 200 274 c 2,8,-1
 249 274 l 1,9,-1
 249 359 l 2,0,1
53 288 m 1,10,11
 83 339 83 339 144 441 c 128,-1,12
 205 543 205 543 235 594 c 1,13,-1
 347 594 l 1,14,-1
 347 274 l 1,15,-1
 404 274 l 1,16,-1
 402 237 l 1,17,-1
 401 199 l 1,18,-1
 374 198 l 1,19,-1
 347 196 l 1,20,-1
 347 89 l 1,21,-1
 249 89 l 1,22,-1
 248 142 l 1,23,-1
 246 194 l 1,24,-1
 150 196 l 1,25,-1
 53 197 l 1,26,-1
 53 288 l 1,10,11
EndSplineSet
Validated: 1
EndChar

StartChar: five
Encoding: 53 53 15
Width: 443
Flags: W
LayerCount: 2
Fore
SplineSet
59 503 m 2,0,-1
 62 599 l 1,1,-1
 371 599 l 1,2,-1
 371 511 l 1,3,-1
 149 511 l 1,4,-1
 148 451 l 2,5,6
 148 442 148 442 147.5 427 c 128,-1,7
 147 412 147 412 147 407 c 128,-1,8
 147 402 147 402 147.5 397 c 128,-1,9
 148 392 148 392 148 389.5 c 128,-1,10
 148 387 148 387 148 386 c 0,11,12
 149 383 149 383 162 392 c 0,13,14
 187 413 187 413 242 413 c 0,15,16
 283 413 283 413 311 399 c 0,17,18
 349 380 349 380 369.5 341.5 c 128,-1,19
 390 303 390 303 390 256 c 0,20,21
 390 203 390 203 366 159 c 0,22,23
 337 108 337 108 284 88 c 0,24,25
 258 78 258 78 219 78 c 0,26,27
 168 78 168 78 136 95 c 0,28,29
 112 107 112 107 89.5 131.5 c 128,-1,30
 67 156 67 156 59 180 c 128,-1,31
 51 204 51 204 51 211 c 0,32,33
 51 219 51 219 60 221 c 128,-1,34
 69 223 69 223 100 223 c 2,35,-1
 149 223 l 1,36,-1
 152 208 l 2,37,38
 157 185 157 185 177 171.5 c 128,-1,39
 197 158 197 158 221 158 c 0,40,41
 248 158 248 158 267 176 c 0,42,43
 291 198 291 198 291 250 c 0,44,45
 291 294 291 294 272 314 c 0,46,47
 254 333 254 333 224 333 c 0,48,49
 188 333 188 333 166 308 c 2,50,-1
 151 290 l 1,51,-1
 50 290 l 1,52,-1
 53 348 l 2,53,54
 54 357 54 357 59 503 c 2,0,-1
EndSplineSet
Validated: 1
EndChar

StartChar: six
Encoding: 54 54 16
Width: 441
Flags: W
LayerCount: 2
Fore
SplineSet
264 329 m 0,0,1
 248 345 248 345 217 345 c 0,2,3
 207 345 207 345 203 342 c 0,4,5
 150 316 150 316 150 251 c 0,6,7
 151 207 151 207 170.5 182.5 c 128,-1,8
 190 158 190 158 224 158 c 0,9,10
 256 158 256 158 274 182.5 c 128,-1,11
 292 207 292 207 292 251 c 0,12,13
 292 302 292 302 264 329 c 0,0,1
203 611 m 0,14,15
 219 613 219 613 228 613 c 0,16,17
 259 613 259 613 291.5 603 c 128,-1,18
 324 593 324 593 341 577 c 0,19,20
 352 567 352 567 364.5 543.5 c 128,-1,21
 377 520 377 520 381 503 c 2,22,-1
 384 486 l 1,23,-1
 335 486 l 2,24,25
 300 486 300 486 292.5 487.5 c 128,-1,26
 285 489 285 489 283 497 c 0,27,28
 271 532 271 532 232 532 c 0,29,30
 215 532 215 532 207.5 528.5 c 128,-1,31
 200 525 200 525 187 512 c 0,32,33
 169 494 169 494 162 471 c 0,34,35
 147 413 147 413 147 388 c 1,36,-1
 148 384 l 2,37,38
 151 381 151 381 166 394 c 0,39,40
 198 421 198 421 252 421 c 0,41,42
 278 421 278 421 298 414 c 0,43,44
 341 399 341 399 366 355 c 128,-1,45
 391 311 391 311 391 256 c 0,46,47
 391 204 391 204 367 159 c 0,48,49
 324 78 324 78 224 78 c 0,50,51
 161 78 161 78 118 115 c 0,52,53
 61 165 61 165 51 295 c 0,54,55
 50 304 50 304 50 325 c 0,56,57
 50 420 50 420 67 480 c 0,58,59
 99 592 99 592 203 611 c 0,14,15
EndSplineSet
Validated: 1
EndChar

StartChar: seven
Encoding: 55 55 17
Width: 461
Flags: W
LayerCount: 2
Fore
SplineSet
55 511 m 1,0,-1
 55 599 l 1,1,-1
 406 599 l 1,2,-1
 406 521 l 1,3,-1
 378 487 l 2,4,5
 245 321 245 321 227 129 c 2,6,-1
 224 94 l 1,7,-1
 176 94 l 1,8,-1
 159 94 l 2,9,10
 140 94 140 94 133.5 96.5 c 128,-1,11
 127 99 127 99 127 110 c 0,12,13
 127 116 127 116 134 153 c 0,14,15
 138 175 138 175 139 190.5 c 128,-1,16
 140 206 140 206 148 234 c 0,17,18
 188 369 188 369 268 472 c 0,19,20
 289 498 289 498 289 506 c 0,21,22
 289 511 289 511 170 511 c 2,23,-1
 55 511 l 1,0,-1
EndSplineSet
Validated: 1
EndChar

StartChar: eight
Encoding: 56 56 18
Width: 447
Flags: W
LayerCount: 2
Fore
SplineSet
251 313 m 0,0,1
 236 319 236 319 222 319 c 0,2,3
 193 319 193 319 173 297 c 128,-1,4
 153 275 153 275 153 242 c 0,5,6
 153 236 153 236 155 224 c 0,7,8
 161 189 161 189 176.5 175 c 128,-1,9
 192 161 192 161 225 161 c 0,10,11
 245 161 245 161 253.5 164 c 128,-1,12
 262 167 262 167 273 178 c 0,13,14
 296 201 296 201 296 237 c 0,15,16
 296 262 296 262 284 283 c 128,-1,17
 272 304 272 304 251 313 c 0,0,1
258 522 m 0,18,19
 241 532 241 532 223 532 c 0,20,21
 198 532 198 532 180.5 513.5 c 128,-1,22
 163 495 163 495 163 468 c 0,23,24
 163 456 163 456 166 446 c 0,25,26
 172 424 172 424 188.5 411.5 c 128,-1,27
 205 399 205 399 225 399 c 0,28,29
 262 399 262 399 277 435 c 0,30,31
 285 456 285 456 285 465 c 0,32,33
 285 472 285 472 280 492 c 0,34,35
 274 512 274 512 258 522 c 0,18,19
195 611 m 0,36,37
 203 613 203 613 214 613 c 0,38,39
 257 613 257 613 286 604 c 0,40,41
 326 593 326 593 349.5 559 c 128,-1,42
 373 525 373 525 373 481 c 0,43,44
 373 419 373 419 345 388 c 2,45,-1
 327 369 l 1,46,-1
 347 353 l 2,47,48
 366 338 366 338 381 307 c 128,-1,49
 396 276 396 276 396 236 c 0,50,51
 394 132 394 132 309 93 c 0,52,53
 281 81 281 81 224 81 c 0,54,55
 173 81 173 81 148.5 89 c 128,-1,56
 124 97 124 97 96 122 c 0,57,58
 51 162 51 162 51 233 c 0,59,60
 51 310 51 310 103 348 c 2,61,-1
 126 364 l 1,62,-1
 110 378 l 2,63,64
 73 412 73 412 73 472 c 0,65,66
 73 542 73 542 118 576 c 0,67,68
 148 599 148 599 195 611 c 0,36,37
EndSplineSet
Validated: 1
EndChar

StartChar: nine
Encoding: 57 57 19
Width: 441
Flags: W
LayerCount: 2
Fore
SplineSet
257 526 m 0,0,1
 243 537 243 537 219 537 c 0,2,3
 193 537 193 537 178 524 c 128,-1,4
 163 511 163 511 155 480 c 0,5,6
 149 458 149 458 149 436 c 0,7,8
 149 399 149 399 166.5 374 c 128,-1,9
 184 349 184 349 213 349 c 0,10,11
 214 349 214 349 217 349.5 c 128,-1,12
 220 350 220 350 222 350 c 0,13,14
 291 361 291 361 291 444 c 0,15,16
 291 498 291 498 257 526 c 0,0,1
171 612 m 0,17,18
 201 619 201 619 212 619 c 0,19,20
 224 619 224 619 249 614 c 0,21,22
 345 597 345 597 377 491 c 0,23,24
 391 443 391 443 391 361 c 0,25,26
 391 343 391 343 389 309 c 0,27,28
 381 219 381 219 358.5 172.5 c 128,-1,29
 336 126 336 126 284 94 c 0,30,31
 264 82 264 82 219 79 c 0,32,33
 215 79 215 79 209 78.5 c 128,-1,34
 203 78 203 78 200 78 c 0,35,36
 146 78 146 78 109 106 c 0,37,38
 95 116 95 116 81 140.5 c 128,-1,39
 67 165 67 165 62 186 c 2,40,-1
 58 202 l 1,41,-1
 108 202 l 2,42,43
 144 202 144 202 151 200.5 c 128,-1,44
 158 199 158 199 160 189 c 0,45,46
 168 156 168 156 209 156 c 0,47,48
 224 156 224 156 240 164 c 0,49,50
 256 171 256 171 270.5 203.5 c 128,-1,51
 285 236 285 236 290 271 c 0,52,53
 293 292 293 292 293 304 c 0,54,55
 293 310 293 310 270 296 c 2,56,-1
 258 289 l 2,57,58
 226 269 226 269 192 269 c 0,59,60
 76 271 76 271 54 400 c 0,61,62
 51 418 51 418 51 435 c 0,63,64
 51 520 51 520 104 568 c 0,65,66
 131 593 131 593 141.5 600 c 128,-1,67
 152 607 152 607 171 612 c 0,17,18
EndSplineSet
Validated: 1
EndChar

StartChar: colon
Encoding: 58 58 20
Width: 207
Flags: W
LayerCount: 2
Fore
SplineSet
50 346 m 1,0,-1
 50 450 l 1,1,-1
 103 448 l 1,2,-1
 156 447 l 1,3,-1
 156 349 l 1,4,-1
 103 347 l 1,5,-1
 50 346 l 1,0,-1
50 88 m 1,6,-1
 50 192 l 1,7,-1
 103 191 l 1,8,-1
 156 189 l 1,9,-1
 156 91 l 1,10,-1
 103 90 l 1,11,-1
 50 88 l 1,6,-1
EndSplineSet
Validated: 1
EndChar

StartChar: semicolon
Encoding: 59 59 21
Width: 209
Flags: W
LayerCount: 2
Fore
SplineSet
50 346 m 1,0,-1
 50 449 l 1,1,-1
 158 449 l 1,2,-1
 158 346 l 1,3,-1
 50 346 l 1,0,-1
50 89 m 1,4,-1
 50 192 l 1,5,-1
 159 192 l 1,6,-1
 157 126 l 2,7,8
 155 57 155 57 142 29 c 128,-1,9
 129 1 129 1 89 -18 c 0,10,11
 64 -29 64 -29 58 -29 c 0,12,13
 50 -29 50 -29 50 -12 c 0,14,15
 50 0 50 0 53.5 5.5 c 128,-1,16
 57 11 57 11 71 18 c 0,17,18
 107 37 107 37 107 73 c 0,19,20
 107 84 107 84 103 86.5 c 128,-1,21
 99 89 99 89 78 89 c 2,22,-1
 50 89 l 1,4,-1
EndSplineSet
Validated: 1
EndChar

StartChar: question
Encoding: 63 63 22
Width: 451
Flags: W
LayerCount: 2
Fore
SplineSet
175 608 m 0,0,1
 195 613 195 613 226 613 c 0,2,3
 282 613 282 613 312 602 c 0,4,5
 399 570 399 570 400 475 c 0,6,7
 400 434 400 434 388.5 410.5 c 128,-1,8
 377 387 377 387 341 354 c 0,9,10
 303 320 303 320 291.5 304 c 128,-1,11
 280 288 280 288 277 264 c 2,12,-1
 274 238 l 1,13,-1
 181 238 l 1,14,-1
 184 275 l 2,15,16
 187 312 187 312 200 336 c 128,-1,17
 213 360 213 360 246 389 c 0,18,19
 274 414 274 414 284.5 429.5 c 128,-1,20
 295 445 295 445 295 462 c 0,21,22
 295 470 295 470 294 474 c 0,23,24
 289 505 289 505 273.5 518.5 c 128,-1,25
 258 532 258 532 227 532 c 0,26,27
 197 532 197 532 181 515 c 128,-1,28
 165 498 165 498 154 456 c 0,29,30
 153 449 153 449 103 449 c 0,31,32
 54 449 54 449 54 451 c 2,33,-1
 60 483 l 2,34,35
 77 581 77 581 175 608 c 0,0,1
178 94 m 1,36,-1
 178 192 l 1,37,-1
 281 192 l 1,38,-1
 281 94 l 1,39,-1
 178 94 l 1,36,-1
EndSplineSet
Validated: 1
EndChar

StartChar: A
Encoding: 65 65 23
Width: 677
Flags: W
LayerCount: 2
Fore
SplineSet
56 590 m 1,0,1
 98 634 98 634 120 655 c 1,2,3
 193 581 193 581 339 435 c 1,4,5
 485 581 485 581 558 655 c 1,6,7
 591 623 591 623 623 590 c 1,8,9
 549 517 549 517 403 371 c 1,10,11
 514 261 514 261 624 150 c 1,12,-1
 599 124 l 2,13,14
 568 92 568 92 565 92 c 0,15,16
 564 92 564 92 564 91.5 c 128,-1,17
 564 91 564 91 563 91 c 0,18,19
 553 91 553 91 452 193 c 0,20,21
 348 299 348 299 339 299 c 128,-1,22
 330 299 330 299 226 193 c 0,23,24
 125 91 125 91 115 91 c 0,25,26
 114 91 114 91 114 91.5 c 128,-1,27
 114 92 114 92 113 92 c 0,28,29
 104.903614458 97.0602409639 104.903614458 97.0602409639 79 124 c 2,30,-1
 54 150 l 1,31,32
 164 261 164 261 275 371 c 1,33,-1
 56 590 l 1,0,1
EndSplineSet
Validated: 1
EndChar

StartChar: B
Encoding: 66 66 24
Width: 601
Flags: W
LayerCount: 2
Fore
SplineSet
52 553 m 1,0,-1
 52 645 l 1,1,-1
 548 645 l 1,2,-1
 546 557 l 2,3,4
 542 466 542 466 529 422 c 0,5,6
 492 297 492 297 395 209 c 0,7,8
 266 89 266 89 96 89 c 2,9,-1
 52 89 l 1,10,-1
 52 181 l 1,11,-1
 87 181 l 2,12,13
 229 181 229 181 333 277.5 c 128,-1,14
 437 374 437 374 452 518 c 2,15,-1
 456 553 l 1,16,-1
 52 553 l 1,0,-1
177 453 m 0,17,18
 187 459 187 459 207 459 c 0,19,20
 233 459 233 459 250.5 441.5 c 128,-1,21
 268 424 268 424 268 398 c 0,22,23
 267 371 267 371 248 354 c 128,-1,24
 229 337 229 337 204 337 c 0,25,26
 169 337 169 337 152 368 c 0,27,28
 145 382 145 382 145 395 c 0,29,30
 145 435 145 435 177 453 c 0,17,18
EndSplineSet
Validated: 1
EndChar

StartChar: C
Encoding: 67 67 25
Width: 600
Flags: W
LayerCount: 2
Fore
SplineSet
51 94 m 1,0,-1
 51 651 l 1,1,-1
 144 651 l 1,2,-1
 144 187 l 1,3,-1
 454 187 l 1,4,5
 453 265 453 265 450.5 419.5 c 128,-1,6
 448 574 448 574 446 651 c 1,7,-1
 541 651 l 1,8,-1
 541 512 l 2,9,10
 541 350 541 350 544 234 c 2,11,-1
 547 94 l 1,12,-1
 51 94 l 1,0,-1
51 -92 m 1,13,-1
 51 1 l 1,14,-1
 546 1 l 1,15,-1
 546 1 l 2,16,17
 546 -94 546 -94 552 -118 c 0,18,19
 564 -169 564 -169 595 -200 c 0,20,21
 596 -201 596 -201 596 -203 c 0,22,23
 596 -208.09375 596 -208.09375 567 -238 c 2,24,-1
 535 -271 l 1,25,-1
 515 -248 l 2,26,27
 494 -224 494 -224 481 -199 c 0,28,29
 462 -160 462 -160 457.5 -125.5 c 0,30,31
 453 -94 453 -94 453 -92 c 2,32,-1
 453 -92 l 1,33,-1
 51 -92 l 1,13,-1
EndSplineSet
Validated: 5
EndChar

StartChar: D
Encoding: 68 68 26
Width: 596
Flags: W
LayerCount: 2
Fore
SplineSet
51 94 m 1,0,-1
 51 651 l 1,1,-1
 144 651 l 1,2,-1
 144 187 l 1,3,-1
 453 187 l 1,4,-1
 453 651 l 1,5,-1
 539 651 l 1,6,-1
 542 557 l 2,7,8
 546 455 546 455 546 278 c 2,9,-1
 546 94 l 1,10,-1
 51 94 l 1,0,-1
269 458 m 0,11,12
 279 464 279 464 298 464 c 0,13,14
 324 464 324 464 342 446.5 c 128,-1,15
 360 429 360 429 360 403 c 0,16,17
 359 376 359 376 340 359 c 128,-1,18
 321 342 321 342 296 342 c 0,19,20
 261 342 261 342 244 373 c 0,21,22
 237 387 237 387 237 400 c 0,23,24
 237 440 237 440 269 458 c 0,11,12
EndSplineSet
Validated: 1
EndChar

StartChar: E
Encoding: 69 69 27
Width: 754
Flags: W
LayerCount: 2
Fore
SplineSet
94 642 m 2,0,1
 124 660 124 660 135 660 c 0,2,3
 137 660 137 660 138 659 c 0,4,5
 139 655 139 655 196.5 557.5 c 128,-1,6
 254 460 254 460 257 460 c 128,-1,7
 260 460 260 460 279 493 c 0,8,9
 333 591 333 591 433 630 c 0,10,11
 454 638 454 638 477 640 c 128,-1,12
 500 642 500 642 584 644 c 2,13,-1
 704 646 l 1,14,-1
 704 89 l 1,15,-1
 611 89 l 1,16,-1
 611 553 l 1,17,-1
 561 553 l 2,18,19
 474 553 474 553 426 522 c 0,20,21
 404 508 404 508 386 484.5 c 128,-1,22
 368 461 368 461 339 410 c 0,23,24
 315 368 315 368 315 360 c 0,25,26
 315 356 315 356 318 351 c 0,27,28
 322 345 322 345 389.5 226.5 c 128,-1,29
 457 108 457 108 457 105 c 0,30,31
 457 101 457 101 421.5 81 c 128,-1,32
 386 61 386 61 380 61 c 2,33,-1
 379 61 l 2,34,35
 373 64 373 64 317 163 c 0,36,37
 261 261 261 261 256 261 c 0,38,39
 253 261 253 261 196 162 c 0,40,41
 144 68 144 68 137 61 c 1,42,-1
 136 61 l 1,43,44
 56 90 56 90 56 102 c 0,45,46
 56 104 56 104 129 232 c 2,47,-1
 204 361 l 1,48,-1
 142 468 l 2,49,50
 97 544 97 544 66 597 c 2,51,-1
 54 619 l 1,52,-1
 94 642 l 2,0,1
EndSplineSet
Validated: 1
EndChar

StartChar: F
Encoding: 70 70 28
Width: 600
Flags: W
LayerCount: 2
Fore
SplineSet
54 553 m 1,0,-1
 54 645 l 1,1,-1
 549 645 l 1,2,-1
 549 170 l 2,3,4
 549 -98 549 -98 556 -121 c 0,5,6
 570 -167 570 -167 598 -196 c 0,7,8
 599 -197 599 -197 599 -199 c 0,9,10
 599 -205.09375 599 -205.09375 570 -235 c 2,11,-1
 538 -268 l 1,12,-1
 517 -245 l 2,13,14
 476 -200 476 -200 462 -132 c 0,15,16
 456 -104 456 -104 456 117 c 2,17,-1
 456 553 l 1,18,-1
 54 553 l 1,0,-1
EndSplineSet
Validated: 1
EndChar

StartChar: G
Encoding: 71 71 29
Width: 555
Flags: W
LayerCount: 2
Fore
SplineSet
250 516 m 2,0,1
 446 666 446 666 448 666 c 128,-1,2
 450 666 450 666 475.5 634 c 128,-1,3
 501 602 501 602 501 597 c 128,-1,4
 501 592 501 592 364 486 c 0,5,6
 229 383 229 383 218 372 c 0,7,8
 217 371 217 371 217 369 c 0,9,10
 217 359 217 359 355 254 c 0,11,12
 500 142 500 142 501 140 c 0,13,14
 503 137 503 137 477.5 102.5 c 128,-1,15
 452 68 452 68 448 68 c 128,-1,16
 444 68 444 68 284 190 c 0,17,18
 95 336 95 336 90 340 c 2,19,-1
 55 366 l 1,20,-1
 250 516 l 2,0,1
397 422 m 0,21,22
 408 428 408 428 427 428 c 0,23,24
 453 428 453 428 470.5 409.5 c 128,-1,25
 488 391 488 391 488 366 c 0,26,27
 488 350 488 350 481 336 c 0,28,29
 466 306 466 306 428 306 c 128,-1,30
 390 306 390 306 372 337 c 0,31,32
 365 351 365 351 365 364 c 0,33,34
 365 404 365 404 397 422 c 0,21,22
EndSplineSet
Validated: 33
EndChar

StartChar: H
Encoding: 72 72 30
Width: 1048
Flags: W
LayerCount: 2
Fore
SplineSet
249 521 m 2,0,1
 444.302013423 671 444.302013423 671 447 671 c 0,2,3
 451 671 451 671 476.5 636 c 128,-1,4
 502 601 502 601 500 598 c 0,5,6
 213 385 213 385 213 373 c 0,7,8
 213 366.705882353 213 366.705882353 329 278 c 2,9,-1
 448 187 l 1,10,-1
 637 187 l 2,11,12
 795 187 795 187 832 191.5 c 0,13,14
 868.406779661 196.050847458 868.406779661 196.050847458 903 220 c 2,15,-1
 929 238 l 1,16,17
 971 196 971 196 993 175 c 1,18,-1
 977 155 l 2,19,20
 951 123 951 123 946.5 98.5 c 128,-1,21
 942 74 942 74 942 2.5 c 128,-1,22
 942 -69 942 -69 946.5 -106 c 0,23,24
 951.059064807 -144.498769483 951.059064807 -144.498769483 975 -176 c 2,25,-1
 994 -201 l 1,26,-1
 964 -232 l 2,27,28
 934 -263 934 -263 929 -263 c 0,29,30
 923 -263 923 -263 903.5 -237 c 128,-1,31
 884 -211 884 -211 873 -188 c 0,32,33
 853 -148 853 -148 849.5 -110.5 c 128,-1,34
 846 -73 846 -73 846 52 c 2,35,-1
 846 94 l 1,36,-1
 637 94 l 2,37,38
 488 94 488 94 455.5 95.5 c 128,-1,39
 423 97 423 97 408 105 c 0,40,41
 396 112 396 112 253.5 219 c 0,42,43
 92.313559322 340.016949153 92.313559322 340.016949153 69 360 c 2,44,-1
 55 372 l 1,45,-1
 249 521 l 2,0,1
EndSplineSet
Validated: 33
EndChar

StartChar: I
Encoding: 73 73 31
Width: 203
Flags: W
LayerCount: 2
Fore
SplineSet
145 89 m 2,0,-1
 51 89 l 2,1,-1
 51 645 l 1,2,-1
 145 645 l 1,3,-1
 145 89 l 2,0,-1
EndSplineSet
EndChar

StartChar: J
Encoding: 74 74 32
Width: 203
Flags: W
LayerCount: 2
Fore
SplineSet
-57 847 m 2,0,-1
 -57 862 l 1,1,-1
 35 862 l 1,2,-1
 38 846 l 2,3,4
 42 829 42 829 60.5 814.5 c 128,-1,5
 79 800 79 800 98 800 c 128,-1,6
 117 800 117 800 135 814.5 c 128,-1,7
 153 829 153 829 157 846 c 2,8,-1
 161 862 l 1,9,-1
 252 862 l 1,10,-1
 252 847 l 2,11,12
 252 799 252 799 206 753 c 0,13,14
 159 706 159 706 98 706 c 0,15,16
 73 706 73 706 43 716 c 0,17,18
 5 729 5 729 -26 769.5 c 128,-1,19
 -57 810 -57 810 -57 847 c 2,0,-1
51 89 m 1,20,-1
 51 645 l 1,21,-1
 144 645 l 1,22,-1
 144 89 l 1,23,-1
 51 89 l 1,20,-1
EndSplineSet
Validated: 1
EndChar

StartChar: K
Encoding: 75 75 33
Width: 548
Flags: W
LayerCount: 2
Fore
SplineSet
250 522 m 0,0,1
 440 666 440 666 441 666 c 0,2,3
 443 666 443 666 469 634 c 128,-1,4
 495 602 495 602 495 597 c 0,5,6
 495 589 495 589 355 484 c 0,7,8
 209 374 209 374 209 369 c 0,9,10
 209 359 209 359 348 254 c 0,11,12
 493 142 493 142 495 140 c 0,13,14
 498 135 498 135 471.5 102.5 c 128,-1,15
 445 70 445 70 438 70 c 2,16,-1
 437 70 l 2,17,18
 433 72 433 72 240 219 c 0,19,20
 55 360 55 360 55 370 c 0,21,22
 55 371 55 371 250 522 c 0,0,1
EndSplineSet
Validated: 33
EndChar

StartChar: L
Encoding: 76 76 34
Width: 602
Flags: W
LayerCount: 2
Fore
SplineSet
53 634 m 2,0,-1
 53 651 l 1,1,-1
 145 651 l 1,2,-1
 148 626 l 2,3,4
 159 552 159 552 229 513 c 0,5,6
 247 503 247 503 259 500.5 c 128,-1,7
 271 498 271 498 300 498 c 0,8,9
 344 498 344 498 372 513 c 0,10,11
 441 551 441 551 452 626 c 2,12,-1
 456 651 l 1,13,-1
 548 651 l 1,14,-1
 548 634 l 2,15,16
 548 615 548 615 539 583 c 128,-1,17
 530 551 530 551 518 530 c 0,18,19
 497 490 497 490 453 455.5 c 128,-1,20
 409 421 409 421 365 410 c 0,21,22
 335 403 335 403 300 403 c 128,-1,23
 265 403 265 403 235 410 c 0,24,25
 191 421 191 421 147.5 455.5 c 128,-1,26
 104 490 104 490 83 530 c 0,27,28
 71 551 71 551 62 583 c 128,-1,29
 53 615 53 615 53 634 c 2,0,-1
234 334 m 0,30,31
 256 340 256 340 290 340 c 0,32,33
 351 340 351 340 388 326 c 0,34,35
 452 302 452 302 495.5 245.5 c 128,-1,36
 539 189 539 189 546 124 c 2,37,-1
 549 94 l 1,38,-1
 457 94 l 1,39,-1
 451 124 l 2,40,41
 439 180 439 180 396 214 c 128,-1,42
 353 248 353 248 299 248 c 0,43,44
 250 248 250 248 208 218 c 0,45,46
 163 184 163 184 150 124 c 2,47,-1
 144 94 l 1,48,-1
 53 94 l 1,49,-1
 53 111 l 2,50,51
 53 164 53 164 85 216 c 0,52,53
 140 307 140 307 234 334 c 0,30,31
EndSplineSet
Validated: 1
EndChar

StartChar: M
Encoding: 77 77 35
Width: 751
Flags: W
LayerCount: 2
Fore
SplineSet
233 642 m 0,0,1
 262 650 262 650 481 650 c 2,2,-1
 701 651 l 1,3,-1
 701 94 l 1,4,-1
 609 94 l 1,5,-1
 609 558 l 1,6,-1
 423 558 l 1,7,-1
 423 94 l 1,8,-1
 330 94 l 1,9,-1
 330 552 l 1,10,-1
 312 556 l 2,11,12
 307 557 307 557 297 557 c 0,13,14
 265 557 265 557 230 539 c 128,-1,15
 195 521 195 521 176 495 c 0,16,17
 154 465 154 465 149.5 429.5 c 128,-1,18
 145 394 145 394 145 258 c 2,19,-1
 145 94 l 1,20,-1
 52 94 l 1,21,-1
 52 265 l 2,22,23
 52 409 52 409 57 449.5 c 128,-1,24
 62 490 62 490 84 526 c 0,25,26
 139 617 139 617 233 642 c 0,0,1
EndSplineSet
Validated: 1
EndChar

StartChar: N
Encoding: 78 78 36
Width: 594
Flags: W
LayerCount: 2
Fore
SplineSet
229 643 m 0,0,1
 251 649 251 649 288 649 c 0,2,3
 351 649 351 649 384 636 c 0,4,5
 430 618 430 618 470 578.5 c 128,-1,6
 510 539 510 539 529 491 c 0,7,8
 537 471 537 471 538.5 442.5 c 128,-1,9
 540 414 540 414 542 278 c 2,10,-1
 544 94 l 1,11,-1
 451 94 l 1,12,-1
 449 268 l 1,13,-1
 448 442 l 1,14,-1
 434 471 l 2,15,16
 393 555 393 555 296 555 c 128,-1,17
 199 555 199 555 158 471 c 2,18,-1
 144 442 l 1,19,-1
 145 268 l 1,20,-1
 147 94 l 1,21,-1
 54 94 l 1,22,-1
 53 268 l 2,23,24
 53 286 53 286 52.5 313.5 c 128,-1,25
 52 341 52 341 52 352 c 0,26,27
 52 435 52 435 57.5 465 c 128,-1,28
 63 495 63 495 81 526 c 0,29,30
 137 617 137 617 229 643 c 0,0,1
EndSplineSet
Validated: 1
EndChar

StartChar: O
Encoding: 79 79 37
Width: 664
Flags: W
LayerCount: 2
Fore
SplineSet
382 550 m 0,0,1
 351 557 351 557 333 557 c 0,2,3
 312 557 312 557 282 549 c 0,4,5
 239 538 239 538 205 505 c 128,-1,6
 171 472 171 472 157 427 c 0,7,8
 149 402 149 402 149 370 c 0,9,10
 149 317 149 317 177 272 c 128,-1,11
 205 227 205 227 255 203 c 0,12,13
 284 189 284 189 333 189 c 128,-1,14
 382 189 382 189 411 203 c 0,15,16
 441 219 441 219 463 241 c 0,17,18
 518 296 518 296 518 371 c 0,19,20
 518 432 518 432 481.5 483 c 128,-1,21
 445 534 445 534 382 550 c 0,0,1
87 503 m 0,22,23
 121 568 121 568 188 609 c 128,-1,24
 255 650 255 650 334 650 c 0,25,26
 401 650 401 650 463 619 c 0,27,28
 494 603 494 603 528.5 569 c 128,-1,29
 563 535 563 535 579 503 c 0,30,31
 612 440 612 440 612 373 c 0,32,33
 612 259 612 259 529 176 c 0,34,35
 447 94 447 94 333 94 c 128,-1,36
 219 94 219 94 137 176 c 0,37,38
 54 259 54 259 54 373 c 0,39,40
 54 440 54 440 87 503 c 0,22,23
EndSplineSet
Validated: 1
EndChar

StartChar: P
Encoding: 80 80 38
Width: 601
Flags: W
LayerCount: 2
Fore
SplineSet
52 553 m 1,0,-1
 52 645 l 1,1,-1
 548 645 l 1,2,-1
 546 557 l 2,3,4
 542 466 542 466 529 422 c 0,5,6
 492 297 492 297 395 209 c 0,7,8
 266 89 266 89 96 89 c 2,9,-1
 52 89 l 1,10,-1
 52 181 l 1,11,-1
 87 181 l 2,12,13
 229 181 229 181 333 277.5 c 128,-1,14
 437 374 437 374 452 518 c 2,15,-1
 456 553 l 1,16,-1
 52 553 l 1,0,-1
EndSplineSet
Validated: 1
EndChar

StartChar: Q
Encoding: 81 81 39
Width: 1049
Flags: W
LayerCount: 2
Fore
SplineSet
249 516 m 2,0,1
 445 666 445 666 447 666 c 0,2,3
 451 666 451 666 476.5 631 c 128,-1,4
 502 596 502 596 500 593 c 0,5,6
 499 590 499 590 357 481 c 128,-1,7
 215 372 215 372 213 369 c 0,8,9
 212 368 212 368 220.5 360.5 c 128,-1,10
 229 353 229 353 246.5 338.5 c 128,-1,11
 264 324 264 324 282.5 309.5 c 128,-1,12
 301 295 301 295 329 273 c 2,13,-1
 448 181 l 1,14,-1
 639 181 l 2,15,16
 771 181 771 181 804.5 182.5 c 128,-1,17
 838 184 838 184 858 192 c 0,18,19
 891 204 891 204 906 218 c 0,20,21
 927 233 927 233 930 233 c 0,22,23
 934 233 934 233 965 202 c 2,24,-1
 995 170 l 1,25,-1
 973 150 l 2,26,27
 954 134 954 134 924 117 c 0,28,29
 884 97 884 97 843.5 93 c 128,-1,30
 803 89 803 89 635 89 c 0,31,32
 483 89 483 89 453 90.5 c 128,-1,33
 423 92 423 92 408 99 c 0,34,35
 396 106 396 106 254 213 c 128,-1,36
 112 320 112 320 69 355 c 2,37,-1
 55 366 l 1,38,-1
 249 516 l 2,0,1
EndSplineSet
Validated: 33
EndChar

StartChar: R
Encoding: 82 82 40
Width: 610
Flags: W
LayerCount: 2
Fore
SplineSet
195 650 m 0,0,1
 197 655 197 655 199 655 c 0,2,3
 201 653 201 653 295 490 c 0,4,5
 390 326 390 326 393 326 c 0,6,7
 397 326 397 326 438 479 c 2,8,-1
 479 632 l 1,9,-1
 495 632 l 2,10,11
 520 629 520 629 539 623 c 0,12,13
 568 614 568 614 568 607 c 2,14,-1
 568 606 l 2,15,16
 567 604 567 604 567 603 c 0,17,18
 562 578 562 578 527 448 c 128,-1,19
 492 318 492 318 458 199 c 128,-1,20
 424 80 424 80 423 81 c 0,21,22
 421 82 421 82 326 246 c 0,23,24
 233 405 233 405 228 405 c 0,25,26
 225 405 225 405 185.5 256 c 128,-1,27
 146 107 146 107 146 101 c 0,28,29
 146 99 146 99 141 99 c 0,30,31
 122 99 122 99 80 112 c 0,32,33
 63 117 63 117 58 120.5 c 128,-1,34
 53 124 53 124 54 129 c 0,35,36
 58 146 58 146 125 396 c 128,-1,37
 192 646 192 646 195 650 c 0,0,1
EndSplineSet
Validated: 33
EndChar

StartChar: S
Encoding: 83 83 41
Width: 600
Flags: W
LayerCount: 2
Fore
SplineSet
51 89 m 1,0,-1
 51 645 l 1,1,-1
 144 645 l 1,2,-1
 144 181 l 1,3,-1
 453 181 l 1,4,-1
 453 645 l 1,5,-1
 546 645 l 1,6,-1
 546 -15 l 2,7,8
 546 -96 546 -96 553 -123 c 0,9,10
 566 -169 566 -169 595 -198 c 0,11,12
 596 -199 596 -199 596 -201 c 0,13,14
 596 -207.09375 596 -207.09375 567 -237 c 2,15,-1
 535 -270 l 1,16,-1
 514 -247 l 2,17,18
 476 -206 476 -206 459 -134 c 0,19,20
 453 -109 453 -109 453 -14 c 2,21,-1
 453 89 l 1,22,-1
 51 89 l 1,0,-1
EndSplineSet
Validated: 1
EndChar

StartChar: T
Encoding: 84 84 42
Width: 596
Flags: W
LayerCount: 2
Fore
SplineSet
51 89 m 1,0,-1
 51 645 l 1,1,-1
 144 645 l 1,2,-1
 144 181 l 1,3,-1
 453 181 l 1,4,-1
 453 645 l 1,5,-1
 546 645 l 1,6,-1
 546 89 l 1,7,-1
 51 89 l 1,0,-1
EndSplineSet
Validated: 1
EndChar

StartChar: U
Encoding: 85 85 43
Width: 744
Flags: W
LayerCount: 2
Fore
SplineSet
214 649 m 0,0,1
 230 660 230 660 234 661 c 0,2,3
 237 661 237 661 254.5 632.5 c 128,-1,4
 272 604 272 604 282 583 c 0,5,6
 283 582 283 582 280 580 c 128,-1,7
 277 578 277 578 272 575 c 0,8,9
 243 562 243 562 210 520 c 128,-1,10
 177 478 177 478 161 434 c 0,11,12
 144 388 144 388 144 302 c 0,13,14
 144 269 144 269 149 252 c 0,15,16
 159 222 159 222 183.5 204 c 128,-1,17
 208 186 208 186 237 186 c 0,18,19
 255 186 255 186 277 196 c 0,20,21
 308 212 308 212 319 237.5 c 128,-1,22
 330 263 330 263 330 318 c 2,23,-1
 330 372 l 1,24,-1
 423 372 l 1,25,-1
 423 318 l 2,26,27
 423 241 423 241 447 216 c 0,28,29
 473 187 473 187 517 187 c 0,30,31
 538 187 538 187 556 196 c 0,32,33
 584 210 584 210 593.5 228.5 c 128,-1,34
 603 247 603 247 603 288 c 0,35,36
 603 314 603 314 602 331 c 0,37,38
 598 403 598 403 584.5 441 c 128,-1,39
 571 479 571 479 533 524 c 0,40,41
 530 528 530 528 512.5 542 c 128,-1,42
 495 556 495 556 480 568 c 128,-1,43
 465 580 465 580 465 581 c 0,44,45
 465 583 465 583 485 618.5 c 128,-1,46
 505 654 505 654 509 660 c 0,47,48
 509 661 509 661 511 661 c 0,49,50
 525 661 525 661 579 610 c 0,51,52
 648 544 648 544 678 457 c 0,53,54
 688 429 688 429 690 410.5 c 128,-1,55
 692 392 692 392 693 326 c 0,56,57
 693 263 693 263 691 244 c 128,-1,58
 689 225 689 225 680 202 c 0,59,60
 661 154 661 154 619.5 125.5 c 128,-1,61
 578 97 578 97 523 95 c 2,62,-1
 513 95 l 2,63,64
 448 95 448 95 401 133 c 0,65,66
 381 151 381 151 376 151 c 128,-1,67
 371 151 371 151 351 133 c 0,68,69
 306 94 306 94 236 94 c 0,70,71
 193 94 193 94 160 110 c 0,72,73
 132 124 132 124 106.5 149 c 128,-1,74
 81 174 81 174 68 201 c 0,75,76
 58 222 58 222 56 239.5 c 128,-1,77
 54 257 54 257 54 323 c 0,78,79
 55 391 55 391 56.5 409.5 c 128,-1,80
 58 428 58 428 68 457 c 0,81,82
 80 492 80 492 106 535 c 0,83,84
 123 561 123 561 156 596.5 c 128,-1,85
 189 632 189 632 214 649 c 0,0,1
EndSplineSet
Validated: 1
EndChar

StartChar: V
Encoding: 86 86 44
Width: 600
Flags: W
LayerCount: 2
Fore
SplineSet
54 553 m 1,0,-1
 54 645 l 1,1,-1
 549 645 l 1,2,-1
 549 170 l 2,3,4
 549 -98 549 -98 556 -121 c 0,5,6
 570 -167 570 -167 598 -196 c 0,7,8
 599 -197 599 -197 599 -199 c 0,9,10
 599 -205.09375 599 -205.09375 570 -235 c 2,11,-1
 538 -268 l 1,12,-1
 517 -245 l 2,13,14
 476 -200 476 -200 462 -132 c 0,15,16
 456 -104 456 -104 456 117 c 2,17,-1
 456 553 l 1,18,-1
 54 553 l 1,0,-1
241 422 m 0,19,20
 251 428 251 428 270 428 c 0,21,22
 296 428 296 428 314 410.5 c 128,-1,23
 332 393 332 393 332 367 c 0,24,25
 331 340 331 340 313 323 c 128,-1,26
 295 306 295 306 270 306 c 0,27,28
 254 306 254 306 240 313 c 0,29,30
 210 328 210 328 210 366 c 128,-1,31
 210 404 210 404 241 422 c 0,19,20
EndSplineSet
Validated: 1
EndChar

StartChar: W
Encoding: 87 87 45
Width: 744
Flags: W
LayerCount: 2
Fore
SplineSet
216 851 m 2,0,-1
 216 867 l 1,1,-1
 308 867 l 1,2,-1
 312 852 l 2,3,4
 316 835 316 835 334 820 c 128,-1,5
 352 805 352 805 371 805 c 128,-1,6
 390 805 390 805 408 820 c 128,-1,7
 426 835 426 835 430 852 c 2,8,-1
 434 867 l 1,9,-1
 526 867 l 1,10,-1
 526 853 l 2,11,12
 526 816 526 816 495 775 c 128,-1,13
 464 734 464 734 426 721 c 0,14,15
 399 712 399 712 372 712 c 0,16,17
 310 712 310 712 272 752 c 0,18,19
 251 774 251 774 234 804 c 128,-1,20
 217 834 217 834 216 851 c 2,0,-1
214 649 m 0,21,22
 230 660 230 660 234 661 c 0,23,24
 237 661 237 661 254.5 632.5 c 128,-1,25
 272 604 272 604 282 583 c 0,26,27
 283 582 283 582 280 580 c 128,-1,28
 277 578 277 578 272 575 c 0,29,30
 243 562 243 562 210 520 c 128,-1,31
 177 478 177 478 161 434 c 0,32,33
 144 388 144 388 144 302 c 0,34,35
 144 269 144 269 149 252 c 0,36,37
 159 222 159 222 183.5 204 c 128,-1,38
 208 186 208 186 237 186 c 0,39,40
 255 186 255 186 277 196 c 0,41,42
 308 212 308 212 319 237.5 c 128,-1,43
 330 263 330 263 330 318 c 2,44,-1
 330 372 l 1,45,-1
 423 372 l 1,46,-1
 423 318 l 2,47,48
 423 241 423 241 447 216 c 0,49,50
 473 187 473 187 517 187 c 0,51,52
 538 187 538 187 556 196 c 0,53,54
 584 210 584 210 593.5 228.5 c 128,-1,55
 603 247 603 247 603 288 c 0,56,57
 603 314 603 314 602 331 c 0,58,59
 598 403 598 403 584.5 441 c 128,-1,60
 571 479 571 479 533 524 c 0,61,62
 530 528 530 528 512.5 542 c 128,-1,63
 495 556 495 556 480 568 c 128,-1,64
 465 580 465 580 465 581 c 0,65,66
 465 583 465 583 485 618.5 c 128,-1,67
 505 654 505 654 509 660 c 0,68,69
 509 661 509 661 511 661 c 0,70,71
 525 661 525 661 579 610 c 0,72,73
 648 544 648 544 678 457 c 0,74,75
 688 429 688 429 690 410.5 c 128,-1,76
 692 392 692 392 693 326 c 0,77,78
 693 263 693 263 691 244 c 128,-1,79
 689 225 689 225 680 202 c 0,80,81
 661 154 661 154 619.5 125.5 c 128,-1,82
 578 97 578 97 523 95 c 2,83,-1
 513 95 l 2,84,85
 448 95 448 95 401 133 c 0,86,87
 381 151 381 151 376 151 c 128,-1,88
 371 151 371 151 351 133 c 0,89,90
 306 94 306 94 236 94 c 0,91,92
 193 94 193 94 160 110 c 0,93,94
 132 124 132 124 106.5 149 c 128,-1,95
 81 174 81 174 68 201 c 0,96,97
 58 222 58 222 56 239.5 c 128,-1,98
 54 257 54 257 54 323 c 0,99,100
 55 391 55 391 56.5 409.5 c 128,-1,101
 58 428 58 428 68 457 c 0,102,103
 80 492 80 492 106 535 c 0,104,105
 123 561 123 561 156 596.5 c 128,-1,106
 189 632 189 632 214 649 c 0,21,22
EndSplineSet
Validated: 1
EndChar

StartChar: X
Encoding: 88 88 46
Width: 600
Flags: W
LayerCount: 2
Fore
SplineSet
250 516 m 2,0,1
 445 666 445 666 448 666 c 0,2,3
 452 666 452 666 477.5 631 c 128,-1,4
 503 596 503 596 501 593 c 0,5,6
 213 375 213 375 213 368 c 0,7,8
 213 362 213 362 367 244 c 0,9,10
 473 163 473 163 500.5 139 c 128,-1,11
 528 115 528 115 537 97 c 2,12,-1
 550 71 l 1,13,-1
 550 18 l 2,14,15
 550 -32 550 -32 551.5 -67 c 128,-1,16
 553 -102 553 -102 560 -124 c 0,17,18
 571 -158 571 -158 586 -176 c 0,19,20
 602 -196 602 -196 602 -200 c 0,21,22
 602 -203 602 -203 570 -235 c 2,23,-1
 539 -266 l 1,24,-1
 519 -243 l 2,25,26
 465 -181 465 -181 463 -130 c 0,27,28
 460 -50 460 -50 456.5 11 c 0,29,30
 455 55 455 55 449 62 c 0,33,34
 446 66 446 66 408.5 95 c 128,-1,35
 371 124 371 124 317.5 165.5 c 128,-1,36
 264 207 264 207 213 245.5 c 128,-1,37
 162 284 162 284 121.5 315.5 c 128,-1,38
 81 347 81 347 80 347 c 2,39,-1
 55 366 l 1,40,-1
 250 516 l 2,0,1
EndSplineSet
Validated: 33
EndChar

StartChar: Y
Encoding: 89 89 47
Width: 674
Flags: W
LayerCount: 2
Fore
SplineSet
511 433 m 0,0,1
 502 455 502 455 495 455 c 0,2,3
 487 455 487 455 369 334.5 c 128,-1,4
 251 214 251 214 251 206 c 0,5,6
 251 200 251 200 283 189 c 0,7,8
 310 181 310 181 336 181 c 0,9,10
 389 181 389 181 435 210 c 128,-1,11
 481 239 481 239 506 289 c 0,12,13
 520 319 520 319 520 364 c 0,14,15
 520 412 520 412 511 433 c 0,0,1
399 542 m 0,16,17
 372 550 372 550 336 550 c 0,18,19
 310 550 310 550 288 545 c 0,20,21
 235 531 235 531 197 486.5 c 128,-1,22
 159 442 159 442 154 387 c 0,23,24
 153 381 153 381 153 368 c 0,25,26
 153 307 153 307 172 285 c 0,27,28
 176 281 176 281 178 281 c 0,29,30
 184 281 184 281 206 301.5 c 128,-1,31
 228 322 228 322 307 401 c 0,32,33
 412 507 412 507 420 521 c 0,34,35
 423 526 423 526 423 529 c 0,36,37
 423 535 423 535 399 542 c 0,16,17
502 595 m 1,38,39
 511 605 511 605 529 623 c 128,-1,40
 547 641 547 641 556 651 c 1,41,42
 600 609 600 609 621 587 c 1,43,-1
 595 560 l 2,44,45
 569 534 569 534 569 529 c 0,46,47
 569 522 569 522 585 495 c 0,48,49
 616 436 616 436 616 363 c 0,50,51
 616 330 616 330 608 298 c 0,52,53
 589 226 589 226 533.5 170.5 c 128,-1,54
 478 115 478 115 407 96 c 0,55,56
 380 89 380 89 345 89 c 0,57,58
 264 89 264 89 204 122 c 0,59,60
 182 135 182 135 176 135 c 128,-1,61
 170 135 170 135 144 109 c 2,62,-1
 118 84 l 1,63,-1
 54 148 l 1,64,-1
 109 203 l 1,65,-1
 92 235 l 2,66,67
 58 297 58 297 58 366 c 0,68,69
 58 477 58 477 142 563 c 0,70,71
 222 645 222 645 338 645 c 0,72,73
 406 645 406 645 469 612 c 2,74,-1
 502 595 l 1,38,39
EndSplineSet
Validated: 1
EndChar

StartChar: Z
Encoding: 90 90 48
Width: 600
Flags: W
LayerCount: 2
Fore
SplineSet
51 89 m 1,0,-1
 51 645 l 1,1,-1
 144 645 l 1,2,-1
 144 181 l 1,3,-1
 453 181 l 1,4,-1
 453 645 l 1,5,-1
 546 645 l 1,6,-1
 546 -15 l 2,7,8
 546 -96 546 -96 553 -123 c 0,9,10
 566 -169 566 -169 595 -198 c 0,11,12
 596 -199 596 -199 596 -201 c 0,13,14
 596 -207.09375 596 -207.09375 567 -237 c 2,15,-1
 535 -270 l 1,16,-1
 514 -247 l 2,17,18
 476 -206 476 -206 459 -134 c 0,19,20
 453 -109 453 -109 453 -14 c 2,21,-1
 453 89 l 1,22,-1
 51 89 l 1,0,-1
269 453 m 0,23,24
 279 459 279 459 298 459 c 0,25,26
 324 459 324 459 342 441.5 c 128,-1,27
 360 424 360 424 360 398 c 0,28,29
 359 371 359 371 340 354 c 128,-1,30
 321 337 321 337 296 337 c 0,31,32
 261 337 261 337 244 368 c 0,33,34
 237 382 237 382 237 395 c 0,35,36
 237 435 237 435 269 453 c 0,23,24
EndSplineSet
Validated: 1
EndChar

StartChar: a
Encoding: 97 97 49
Width: 677
Flags: W
LayerCount: 2
Fore
SplineSet
56 590 m 1,0,1
 98 634 98 634 120 655 c 1,2,3
 193 581 193 581 339 435 c 1,4,5
 485 581 485 581 558 655 c 1,6,7
 591 623 591 623 623 590 c 1,8,9
 549 517 549 517 403 371 c 1,10,11
 514 261 514 261 624 150 c 1,12,-1
 599 124 l 2,13,14
 568 92 568 92 565 92 c 0,15,16
 564 92 564 92 564 91.5 c 128,-1,17
 564 91 564 91 563 91 c 0,18,19
 553 91 553 91 452 193 c 0,20,21
 348 299 348 299 339 299 c 128,-1,22
 330 299 330 299 226 193 c 0,23,24
 125 91 125 91 115 91 c 0,25,26
 114 91 114 91 114 91.5 c 128,-1,27
 114 92 114 92 113 92 c 0,28,29
 104.903614458 97.0602409639 104.903614458 97.0602409639 79 124 c 2,30,-1
 54 150 l 1,31,32
 164 261 164 261 275 371 c 1,33,-1
 56 590 l 1,0,1
EndSplineSet
Validated: 1
EndChar

StartChar: b
Encoding: 98 98 50
Width: 601
Flags: W
LayerCount: 2
Fore
SplineSet
52 553 m 1,0,-1
 52 645 l 1,1,-1
 548 645 l 1,2,-1
 546 557 l 2,3,4
 542 466 542 466 529 422 c 0,5,6
 492 297 492 297 395 209 c 0,7,8
 266 89 266 89 96 89 c 2,9,-1
 52 89 l 1,10,-1
 52 181 l 1,11,-1
 87 181 l 2,12,13
 229 181 229 181 333 277.5 c 128,-1,14
 437 374 437 374 452 518 c 2,15,-1
 456 553 l 1,16,-1
 52 553 l 1,0,-1
177 453 m 0,17,18
 187 459 187 459 207 459 c 0,19,20
 233 459 233 459 250.5 441.5 c 128,-1,21
 268 424 268 424 268 398 c 0,22,23
 267 371 267 371 248 354 c 128,-1,24
 229 337 229 337 204 337 c 0,25,26
 169 337 169 337 152 368 c 0,27,28
 145 382 145 382 145 395 c 0,29,30
 145 435 145 435 177 453 c 0,17,18
EndSplineSet
Validated: 1
EndChar

StartChar: c
Encoding: 99 99 51
Width: 600
Flags: W
LayerCount: 2
Fore
SplineSet
51 94 m 1,0,-1
 51 651 l 1,1,-1
 144 651 l 1,2,-1
 144 187 l 1,3,-1
 454 187 l 1,4,5
 453 265 453 265 450.5 419.5 c 128,-1,6
 448 574 448 574 446 651 c 1,7,-1
 541 651 l 1,8,-1
 541 512 l 2,9,10
 541 350 541 350 544 234 c 2,11,-1
 547 94 l 1,12,-1
 51 94 l 1,0,-1
51 -92 m 1,13,-1
 51 1 l 1,14,-1
 546 1 l 1,15,-1
 546 1 l 2,16,17
 546 -94 546 -94 552 -118 c 0,18,19
 564 -169 564 -169 595 -200 c 0,20,21
 596 -201 596 -201 596 -203 c 0,22,23
 596 -208.09375 596 -208.09375 567 -238 c 2,24,-1
 535 -271 l 1,25,-1
 515 -248 l 2,26,27
 494 -224 494 -224 481 -199 c 0,28,29
 462 -160 462 -160 457.5 -125.5 c 0,30,31
 453 -94 453 -94 453 -92 c 2,32,-1
 453 -92 l 1,33,-1
 51 -92 l 1,13,-1
EndSplineSet
Validated: 5
EndChar

StartChar: d
Encoding: 100 100 52
Width: 596
Flags: W
LayerCount: 2
Fore
SplineSet
51 94 m 1,0,-1
 51 651 l 1,1,-1
 144 651 l 1,2,-1
 144 187 l 1,3,-1
 453 187 l 1,4,-1
 453 651 l 1,5,-1
 539 651 l 1,6,-1
 542 557 l 2,7,8
 546 455 546 455 546 278 c 2,9,-1
 546 94 l 1,10,-1
 51 94 l 1,0,-1
269 458 m 0,11,12
 279 464 279 464 298 464 c 0,13,14
 324 464 324 464 342 446.5 c 128,-1,15
 360 429 360 429 360 403 c 0,16,17
 359 376 359 376 340 359 c 128,-1,18
 321 342 321 342 296 342 c 0,19,20
 261 342 261 342 244 373 c 0,21,22
 237 387 237 387 237 400 c 0,23,24
 237 440 237 440 269 458 c 0,11,12
EndSplineSet
Validated: 1
EndChar

StartChar: e
Encoding: 101 101 53
Width: 754
Flags: W
LayerCount: 2
Fore
SplineSet
94 642 m 2,0,1
 124 660 124 660 135 660 c 0,2,3
 137 660 137 660 138 659 c 0,4,5
 139 655 139 655 196.5 557.5 c 128,-1,6
 254 460 254 460 257 460 c 128,-1,7
 260 460 260 460 279 493 c 0,8,9
 333 591 333 591 433 630 c 0,10,11
 454 638 454 638 477 640 c 128,-1,12
 500 642 500 642 584 644 c 2,13,-1
 704 646 l 1,14,-1
 704 89 l 1,15,-1
 611 89 l 1,16,-1
 611 553 l 1,17,-1
 561 553 l 2,18,19
 474 553 474 553 426 522 c 0,20,21
 404 508 404 508 386 484.5 c 128,-1,22
 368 461 368 461 339 410 c 0,23,24
 315 368 315 368 315 360 c 0,25,26
 315 356 315 356 318 351 c 0,27,28
 322 345 322 345 389.5 226.5 c 128,-1,29
 457 108 457 108 457 105 c 0,30,31
 457 101 457 101 421.5 81 c 128,-1,32
 386 61 386 61 380 61 c 2,33,-1
 379 61 l 2,34,35
 373 64 373 64 317 163 c 0,36,37
 261 261 261 261 256 261 c 0,38,39
 253 261 253 261 196 162 c 0,40,41
 144 68 144 68 137 61 c 1,42,-1
 136 61 l 1,43,44
 56 90 56 90 56 102 c 0,45,46
 56 104 56 104 129 232 c 2,47,-1
 204 361 l 1,48,-1
 142 468 l 2,49,50
 97 544 97 544 66 597 c 2,51,-1
 54 619 l 1,52,-1
 94 642 l 2,0,1
EndSplineSet
Validated: 1
EndChar

StartChar: f
Encoding: 102 102 54
Width: 600
Flags: W
LayerCount: 2
Fore
SplineSet
54 553 m 1,0,-1
 54 645 l 1,1,-1
 549 645 l 1,2,-1
 549 170 l 2,3,4
 549 -98 549 -98 556 -121 c 0,5,6
 570 -167 570 -167 598 -196 c 0,7,8
 599 -197 599 -197 599 -199 c 0,9,10
 599 -205.09375 599 -205.09375 570 -235 c 2,11,-1
 538 -268 l 1,12,-1
 517 -245 l 2,13,14
 476 -200 476 -200 462 -132 c 0,15,16
 456 -104 456 -104 456 117 c 2,17,-1
 456 553 l 1,18,-1
 54 553 l 1,0,-1
EndSplineSet
Validated: 1
EndChar

StartChar: g
Encoding: 103 103 55
Width: 555
Flags: W
LayerCount: 2
Fore
SplineSet
250 516 m 2,0,1
 446 666 446 666 448 666 c 128,-1,2
 450 666 450 666 475.5 634 c 128,-1,3
 501 602 501 602 501 597 c 128,-1,4
 501 592 501 592 364 486 c 0,5,6
 229 383 229 383 218 372 c 0,7,8
 217 371 217 371 217 369 c 0,9,10
 217 359 217 359 355 254 c 0,11,12
 500 142 500 142 501 140 c 0,13,14
 503 137 503 137 477.5 102.5 c 128,-1,15
 452 68 452 68 448 68 c 128,-1,16
 444 68 444 68 284 190 c 0,17,18
 95 336 95 336 90 340 c 2,19,-1
 55 366 l 1,20,-1
 250 516 l 2,0,1
397 422 m 0,21,22
 408 428 408 428 427 428 c 0,23,24
 453 428 453 428 470.5 409.5 c 128,-1,25
 488 391 488 391 488 366 c 0,26,27
 488 350 488 350 481 336 c 0,28,29
 466 306 466 306 428 306 c 128,-1,30
 390 306 390 306 372 337 c 0,31,32
 365 351 365 351 365 364 c 0,33,34
 365 404 365 404 397 422 c 0,21,22
EndSplineSet
Validated: 33
EndChar

StartChar: h
Encoding: 104 104 56
Width: 1048
Flags: W
LayerCount: 2
Fore
SplineSet
249 521 m 2,0,1
 444.302013423 671 444.302013423 671 447 671 c 0,2,3
 451 671 451 671 476.5 636 c 128,-1,4
 502 601 502 601 500 598 c 0,5,6
 213 385 213 385 213 373 c 0,7,8
 213 366.705882353 213 366.705882353 329 278 c 2,9,-1
 448 187 l 1,10,-1
 637 187 l 2,11,12
 795 187 795 187 832 191.5 c 0,13,14
 868.406779661 196.050847458 868.406779661 196.050847458 903 220 c 2,15,-1
 929 238 l 1,16,17
 971 196 971 196 993 175 c 1,18,-1
 977 155 l 2,19,20
 951 123 951 123 946.5 98.5 c 128,-1,21
 942 74 942 74 942 2.5 c 128,-1,22
 942 -69 942 -69 946.5 -106 c 0,23,24
 951.059064807 -144.498769483 951.059064807 -144.498769483 975 -176 c 2,25,-1
 994 -201 l 1,26,-1
 964 -232 l 2,27,28
 934 -263 934 -263 929 -263 c 0,29,30
 923 -263 923 -263 903.5 -237 c 128,-1,31
 884 -211 884 -211 873 -188 c 0,32,33
 853 -148 853 -148 849.5 -110.5 c 128,-1,34
 846 -73 846 -73 846 52 c 2,35,-1
 846 94 l 1,36,-1
 637 94 l 2,37,38
 488 94 488 94 455.5 95.5 c 128,-1,39
 423 97 423 97 408 105 c 0,40,41
 396 112 396 112 253.5 219 c 0,42,43
 92.313559322 340.016949153 92.313559322 340.016949153 69 360 c 2,44,-1
 55 372 l 1,45,-1
 249 521 l 2,0,1
EndSplineSet
Validated: 33
EndChar

StartChar: i
Encoding: 105 105 57
Width: 203
Flags: W
LayerCount: 2
Fore
SplineSet
145 89 m 2,0,-1
 51 89 l 2,1,-1
 51 645 l 1,2,-1
 145 645 l 1,3,-1
 145 89 l 2,0,-1
EndSplineSet
EndChar

StartChar: j
Encoding: 106 106 58
Width: 203
Flags: W
LayerCount: 2
Fore
SplineSet
-57 847 m 2,0,-1
 -57 862 l 1,1,-1
 35 862 l 1,2,-1
 38 846 l 2,3,4
 42 829 42 829 60.5 814.5 c 128,-1,5
 79 800 79 800 98 800 c 128,-1,6
 117 800 117 800 135 814.5 c 128,-1,7
 153 829 153 829 157 846 c 2,8,-1
 161 862 l 1,9,-1
 252 862 l 1,10,-1
 252 847 l 2,11,12
 252 799 252 799 206 753 c 0,13,14
 159 706 159 706 98 706 c 0,15,16
 73 706 73 706 43 716 c 0,17,18
 5 729 5 729 -26 769.5 c 128,-1,19
 -57 810 -57 810 -57 847 c 2,0,-1
51 89 m 1,20,-1
 51 645 l 1,21,-1
 144 645 l 1,22,-1
 144 89 l 1,23,-1
 51 89 l 1,20,-1
EndSplineSet
Validated: 1
EndChar

StartChar: k
Encoding: 107 107 59
Width: 548
Flags: W
LayerCount: 2
Fore
SplineSet
250 522 m 0,0,1
 440 666 440 666 441 666 c 0,2,3
 443 666 443 666 469 634 c 128,-1,4
 495 602 495 602 495 597 c 0,5,6
 495 589 495 589 355 484 c 0,7,8
 209 374 209 374 209 369 c 0,9,10
 209 359 209 359 348 254 c 0,11,12
 493 142 493 142 495 140 c 0,13,14
 498 135 498 135 471.5 102.5 c 128,-1,15
 445 70 445 70 438 70 c 2,16,-1
 437 70 l 2,17,18
 433 72 433 72 240 219 c 0,19,20
 55 360 55 360 55 370 c 0,21,22
 55 371 55 371 250 522 c 0,0,1
EndSplineSet
Validated: 33
EndChar

StartChar: l
Encoding: 108 108 60
Width: 602
Flags: W
LayerCount: 2
Fore
SplineSet
53 634 m 2,0,-1
 53 651 l 1,1,-1
 145 651 l 1,2,-1
 148 626 l 2,3,4
 159 552 159 552 229 513 c 0,5,6
 247 503 247 503 259 500.5 c 128,-1,7
 271 498 271 498 300 498 c 0,8,9
 344 498 344 498 372 513 c 0,10,11
 441 551 441 551 452 626 c 2,12,-1
 456 651 l 1,13,-1
 548 651 l 1,14,-1
 548 634 l 2,15,16
 548 615 548 615 539 583 c 128,-1,17
 530 551 530 551 518 530 c 0,18,19
 497 490 497 490 453 455.5 c 128,-1,20
 409 421 409 421 365 410 c 0,21,22
 335 403 335 403 300 403 c 128,-1,23
 265 403 265 403 235 410 c 0,24,25
 191 421 191 421 147.5 455.5 c 128,-1,26
 104 490 104 490 83 530 c 0,27,28
 71 551 71 551 62 583 c 128,-1,29
 53 615 53 615 53 634 c 2,0,-1
234 334 m 0,30,31
 256 340 256 340 290 340 c 0,32,33
 351 340 351 340 388 326 c 0,34,35
 452 302 452 302 495.5 245.5 c 128,-1,36
 539 189 539 189 546 124 c 2,37,-1
 549 94 l 1,38,-1
 457 94 l 1,39,-1
 451 124 l 2,40,41
 439 180 439 180 396 214 c 128,-1,42
 353 248 353 248 299 248 c 0,43,44
 250 248 250 248 208 218 c 0,45,46
 163 184 163 184 150 124 c 2,47,-1
 144 94 l 1,48,-1
 53 94 l 1,49,-1
 53 111 l 2,50,51
 53 164 53 164 85 216 c 0,52,53
 140 307 140 307 234 334 c 0,30,31
EndSplineSet
Validated: 1
EndChar

StartChar: m
Encoding: 109 109 61
Width: 751
Flags: W
LayerCount: 2
Fore
SplineSet
233 642 m 0,0,1
 262 650 262 650 481 650 c 2,2,-1
 701 651 l 1,3,-1
 701 94 l 1,4,-1
 609 94 l 1,5,-1
 609 558 l 1,6,-1
 423 558 l 1,7,-1
 423 94 l 1,8,-1
 330 94 l 1,9,-1
 330 552 l 1,10,-1
 312 556 l 2,11,12
 307 557 307 557 297 557 c 0,13,14
 265 557 265 557 230 539 c 128,-1,15
 195 521 195 521 176 495 c 0,16,17
 154 465 154 465 149.5 429.5 c 128,-1,18
 145 394 145 394 145 258 c 2,19,-1
 145 94 l 1,20,-1
 52 94 l 1,21,-1
 52 265 l 2,22,23
 52 409 52 409 57 449.5 c 128,-1,24
 62 490 62 490 84 526 c 0,25,26
 139 617 139 617 233 642 c 0,0,1
EndSplineSet
Validated: 1
EndChar

StartChar: n
Encoding: 110 110 62
Width: 594
Flags: W
LayerCount: 2
Fore
SplineSet
229 643 m 0,0,1
 251 649 251 649 288 649 c 0,2,3
 351 649 351 649 384 636 c 0,4,5
 430 618 430 618 470 578.5 c 128,-1,6
 510 539 510 539 529 491 c 0,7,8
 537 471 537 471 538.5 442.5 c 128,-1,9
 540 414 540 414 542 278 c 2,10,-1
 544 94 l 1,11,-1
 451 94 l 1,12,-1
 449 268 l 1,13,-1
 448 442 l 1,14,-1
 434 471 l 2,15,16
 393 555 393 555 296 555 c 128,-1,17
 199 555 199 555 158 471 c 2,18,-1
 144 442 l 1,19,-1
 145 268 l 1,20,-1
 147 94 l 1,21,-1
 54 94 l 1,22,-1
 53 268 l 2,23,24
 53 286 53 286 52.5 313.5 c 128,-1,25
 52 341 52 341 52 352 c 0,26,27
 52 435 52 435 57.5 465 c 128,-1,28
 63 495 63 495 81 526 c 0,29,30
 137 617 137 617 229 643 c 0,0,1
EndSplineSet
Validated: 1
EndChar

StartChar: o
Encoding: 111 111 63
Width: 664
Flags: W
LayerCount: 2
Fore
SplineSet
382 550 m 0,0,1
 351 557 351 557 333 557 c 0,2,3
 312 557 312 557 282 549 c 0,4,5
 239 538 239 538 205 505 c 128,-1,6
 171 472 171 472 157 427 c 0,7,8
 149 402 149 402 149 370 c 0,9,10
 149 317 149 317 177 272 c 128,-1,11
 205 227 205 227 255 203 c 0,12,13
 284 189 284 189 333 189 c 128,-1,14
 382 189 382 189 411 203 c 0,15,16
 441 219 441 219 463 241 c 0,17,18
 518 296 518 296 518 371 c 0,19,20
 518 432 518 432 481.5 483 c 128,-1,21
 445 534 445 534 382 550 c 0,0,1
87 503 m 0,22,23
 121 568 121 568 188 609 c 128,-1,24
 255 650 255 650 334 650 c 0,25,26
 401 650 401 650 463 619 c 0,27,28
 494 603 494 603 528.5 569 c 128,-1,29
 563 535 563 535 579 503 c 0,30,31
 612 440 612 440 612 373 c 0,32,33
 612 259 612 259 529 176 c 0,34,35
 447 94 447 94 333 94 c 128,-1,36
 219 94 219 94 137 176 c 0,37,38
 54 259 54 259 54 373 c 0,39,40
 54 440 54 440 87 503 c 0,22,23
EndSplineSet
Validated: 1
EndChar

StartChar: p
Encoding: 112 112 64
Width: 601
Flags: W
LayerCount: 2
Fore
SplineSet
52 553 m 1,0,-1
 52 645 l 1,1,-1
 548 645 l 1,2,-1
 546 557 l 2,3,4
 542 466 542 466 529 422 c 0,5,6
 492 297 492 297 395 209 c 0,7,8
 266 89 266 89 96 89 c 2,9,-1
 52 89 l 1,10,-1
 52 181 l 1,11,-1
 87 181 l 2,12,13
 229 181 229 181 333 277.5 c 128,-1,14
 437 374 437 374 452 518 c 2,15,-1
 456 553 l 1,16,-1
 52 553 l 1,0,-1
EndSplineSet
Validated: 1
EndChar

StartChar: q
Encoding: 113 113 65
Width: 1049
Flags: W
LayerCount: 2
Fore
SplineSet
249 516 m 2,0,1
 445 666 445 666 447 666 c 0,2,3
 451 666 451 666 476.5 631 c 128,-1,4
 502 596 502 596 500 593 c 0,5,6
 499 590 499 590 357 481 c 128,-1,7
 215 372 215 372 213 369 c 0,8,9
 212 368 212 368 220.5 360.5 c 128,-1,10
 229 353 229 353 246.5 338.5 c 128,-1,11
 264 324 264 324 282.5 309.5 c 128,-1,12
 301 295 301 295 329 273 c 2,13,-1
 448 181 l 1,14,-1
 639 181 l 2,15,16
 771 181 771 181 804.5 182.5 c 128,-1,17
 838 184 838 184 858 192 c 0,18,19
 891 204 891 204 906 218 c 0,20,21
 927 233 927 233 930 233 c 0,22,23
 934 233 934 233 965 202 c 2,24,-1
 995 170 l 1,25,-1
 973 150 l 2,26,27
 954 134 954 134 924 117 c 0,28,29
 884 97 884 97 843.5 93 c 128,-1,30
 803 89 803 89 635 89 c 0,31,32
 483 89 483 89 453 90.5 c 128,-1,33
 423 92 423 92 408 99 c 0,34,35
 396 106 396 106 254 213 c 128,-1,36
 112 320 112 320 69 355 c 2,37,-1
 55 366 l 1,38,-1
 249 516 l 2,0,1
EndSplineSet
Validated: 33
EndChar

StartChar: r
Encoding: 114 114 66
Width: 610
Flags: W
LayerCount: 2
Fore
SplineSet
195 650 m 4,0,1
 197 655 197 655 199 655 c 4,2,3
 201 653 201 653 295 490 c 0,4,5
 390 326 390 326 393 326 c 0,6,7
 397 326 397 326 438 479 c 2,8,-1
 479 632 l 1,9,-1
 495 632 l 2,10,11
 520 629 520 629 539 623 c 0,12,13
 568 614 568 614 568 607 c 2,14,-1
 568 606 l 2,15,16
 567 604 567 604 567 603 c 0,17,18
 562 578 562 578 527 448 c 128,-1,19
 492 318 492 318 458 199 c 128,-1,20
 424 80 424 80 423 81 c 0,21,22
 421 82 421 82 326 246 c 0,23,24
 233 405 233 405 228 405 c 0,25,26
 225 405 225 405 185.5 256 c 128,-1,27
 146 107 146 107 146 101 c 0,28,29
 146 99 146 99 141 99 c 0,30,31
 122 99 122 99 80 112 c 0,32,33
 63 117 63 117 58 120.5 c 128,-1,34
 53 124 53 124 54 129 c 0,35,36
 58 146 58 146 125 396 c 128,-1,37
 192 646 192 646 195 650 c 4,0,1
EndSplineSet
Validated: 33
EndChar

StartChar: s
Encoding: 115 115 67
Width: 600
Flags: W
LayerCount: 2
Fore
SplineSet
51 89 m 1,0,-1
 51 645 l 1,1,-1
 144 645 l 1,2,-1
 144 181 l 1,3,-1
 453 181 l 1,4,-1
 453 645 l 1,5,-1
 546 645 l 1,6,-1
 546 -15 l 2,7,8
 546 -96 546 -96 553 -123 c 0,9,10
 566 -169 566 -169 595 -198 c 0,11,12
 596 -199 596 -199 596 -201 c 0,13,14
 596 -207.09375 596 -207.09375 567 -237 c 2,15,-1
 535 -270 l 1,16,-1
 514 -247 l 2,17,18
 476 -206 476 -206 459 -134 c 0,19,20
 453 -109 453 -109 453 -14 c 2,21,-1
 453 89 l 1,22,-1
 51 89 l 1,0,-1
EndSplineSet
Validated: 1
EndChar

StartChar: t
Encoding: 116 116 68
Width: 596
Flags: W
LayerCount: 2
Fore
SplineSet
51 89 m 1,0,-1
 51 645 l 1,1,-1
 144 645 l 1,2,-1
 144 181 l 1,3,-1
 453 181 l 1,4,-1
 453 645 l 1,5,-1
 546 645 l 1,6,-1
 546 89 l 1,7,-1
 51 89 l 1,0,-1
EndSplineSet
Validated: 1
EndChar

StartChar: u
Encoding: 117 117 69
Width: 744
Flags: W
LayerCount: 2
Fore
SplineSet
214 649 m 0,0,1
 230 660 230 660 234 661 c 0,2,3
 237 661 237 661 254.5 632.5 c 128,-1,4
 272 604 272 604 282 583 c 0,5,6
 283 582 283 582 280 580 c 128,-1,7
 277 578 277 578 272 575 c 0,8,9
 243 562 243 562 210 520 c 128,-1,10
 177 478 177 478 161 434 c 0,11,12
 144 388 144 388 144 302 c 0,13,14
 144 269 144 269 149 252 c 0,15,16
 159 222 159 222 183.5 204 c 128,-1,17
 208 186 208 186 237 186 c 0,18,19
 255 186 255 186 277 196 c 0,20,21
 308 212 308 212 319 237.5 c 128,-1,22
 330 263 330 263 330 318 c 2,23,-1
 330 372 l 1,24,-1
 423 372 l 1,25,-1
 423 318 l 2,26,27
 423 241 423 241 447 216 c 0,28,29
 473 187 473 187 517 187 c 0,30,31
 538 187 538 187 556 196 c 0,32,33
 584 210 584 210 593.5 228.5 c 128,-1,34
 603 247 603 247 603 288 c 0,35,36
 603 314 603 314 602 331 c 0,37,38
 598 403 598 403 584.5 441 c 128,-1,39
 571 479 571 479 533 524 c 0,40,41
 530 528 530 528 512.5 542 c 128,-1,42
 495 556 495 556 480 568 c 128,-1,43
 465 580 465 580 465 581 c 0,44,45
 465 583 465 583 485 618.5 c 128,-1,46
 505 654 505 654 509 660 c 0,47,48
 509 661 509 661 511 661 c 0,49,50
 525 661 525 661 579 610 c 0,51,52
 648 544 648 544 678 457 c 0,53,54
 688 429 688 429 690 410.5 c 128,-1,55
 692 392 692 392 693 326 c 0,56,57
 693 263 693 263 691 244 c 128,-1,58
 689 225 689 225 680 202 c 0,59,60
 661 154 661 154 619.5 125.5 c 128,-1,61
 578 97 578 97 523 95 c 2,62,-1
 513 95 l 2,63,64
 448 95 448 95 401 133 c 0,65,66
 381 151 381 151 376 151 c 128,-1,67
 371 151 371 151 351 133 c 0,68,69
 306 94 306 94 236 94 c 0,70,71
 193 94 193 94 160 110 c 0,72,73
 132 124 132 124 106.5 149 c 128,-1,74
 81 174 81 174 68 201 c 0,75,76
 58 222 58 222 56 239.5 c 128,-1,77
 54 257 54 257 54 323 c 0,78,79
 55 391 55 391 56.5 409.5 c 128,-1,80
 58 428 58 428 68 457 c 0,81,82
 80 492 80 492 106 535 c 0,83,84
 123 561 123 561 156 596.5 c 128,-1,85
 189 632 189 632 214 649 c 0,0,1
EndSplineSet
Validated: 1
EndChar

StartChar: v
Encoding: 118 118 70
Width: 600
Flags: W
LayerCount: 2
Fore
SplineSet
54 553 m 1,0,-1
 54 645 l 1,1,-1
 549 645 l 1,2,-1
 549 170 l 2,3,4
 549 -98 549 -98 556 -121 c 0,5,6
 570 -167 570 -167 598 -196 c 0,7,8
 599 -197 599 -197 599 -199 c 0,9,10
 599 -205.09375 599 -205.09375 570 -235 c 2,11,-1
 538 -268 l 1,12,-1
 517 -245 l 2,13,14
 476 -200 476 -200 462 -132 c 0,15,16
 456 -104 456 -104 456 117 c 2,17,-1
 456 553 l 1,18,-1
 54 553 l 1,0,-1
241 422 m 0,19,20
 251 428 251 428 270 428 c 0,21,22
 296 428 296 428 314 410.5 c 128,-1,23
 332 393 332 393 332 367 c 0,24,25
 331 340 331 340 313 323 c 128,-1,26
 295 306 295 306 270 306 c 0,27,28
 254 306 254 306 240 313 c 0,29,30
 210 328 210 328 210 366 c 128,-1,31
 210 404 210 404 241 422 c 0,19,20
EndSplineSet
Validated: 1
EndChar

StartChar: w
Encoding: 119 119 71
Width: 744
Flags: W
LayerCount: 2
Fore
SplineSet
216 851 m 2,0,-1
 216 867 l 1,1,-1
 308 867 l 1,2,-1
 312 852 l 2,3,4
 316 835 316 835 334 820 c 128,-1,5
 352 805 352 805 371 805 c 128,-1,6
 390 805 390 805 408 820 c 128,-1,7
 426 835 426 835 430 852 c 2,8,-1
 434 867 l 1,9,-1
 526 867 l 1,10,-1
 526 853 l 2,11,12
 526 816 526 816 495 775 c 128,-1,13
 464 734 464 734 426 721 c 0,14,15
 399 712 399 712 372 712 c 0,16,17
 310 712 310 712 272 752 c 0,18,19
 251 774 251 774 234 804 c 128,-1,20
 217 834 217 834 216 851 c 2,0,-1
214 649 m 0,21,22
 230 660 230 660 234 661 c 0,23,24
 237 661 237 661 254.5 632.5 c 128,-1,25
 272 604 272 604 282 583 c 0,26,27
 283 582 283 582 280 580 c 128,-1,28
 277 578 277 578 272 575 c 0,29,30
 243 562 243 562 210 520 c 128,-1,31
 177 478 177 478 161 434 c 0,32,33
 144 388 144 388 144 302 c 0,34,35
 144 269 144 269 149 252 c 0,36,37
 159 222 159 222 183.5 204 c 128,-1,38
 208 186 208 186 237 186 c 0,39,40
 255 186 255 186 277 196 c 0,41,42
 308 212 308 212 319 237.5 c 128,-1,43
 330 263 330 263 330 318 c 2,44,-1
 330 372 l 1,45,-1
 423 372 l 1,46,-1
 423 318 l 2,47,48
 423 241 423 241 447 216 c 0,49,50
 473 187 473 187 517 187 c 0,51,52
 538 187 538 187 556 196 c 0,53,54
 584 210 584 210 593.5 228.5 c 128,-1,55
 603 247 603 247 603 288 c 0,56,57
 603 314 603 314 602 331 c 0,58,59
 598 403 598 403 584.5 441 c 128,-1,60
 571 479 571 479 533 524 c 0,61,62
 530 528 530 528 512.5 542 c 128,-1,63
 495 556 495 556 480 568 c 128,-1,64
 465 580 465 580 465 581 c 0,65,66
 465 583 465 583 485 618.5 c 128,-1,67
 505 654 505 654 509 660 c 0,68,69
 509 661 509 661 511 661 c 0,70,71
 525 661 525 661 579 610 c 0,72,73
 648 544 648 544 678 457 c 0,74,75
 688 429 688 429 690 410.5 c 128,-1,76
 692 392 692 392 693 326 c 0,77,78
 693 263 693 263 691 244 c 128,-1,79
 689 225 689 225 680 202 c 0,80,81
 661 154 661 154 619.5 125.5 c 128,-1,82
 578 97 578 97 523 95 c 2,83,-1
 513 95 l 2,84,85
 448 95 448 95 401 133 c 0,86,87
 381 151 381 151 376 151 c 128,-1,88
 371 151 371 151 351 133 c 0,89,90
 306 94 306 94 236 94 c 0,91,92
 193 94 193 94 160 110 c 0,93,94
 132 124 132 124 106.5 149 c 128,-1,95
 81 174 81 174 68 201 c 0,96,97
 58 222 58 222 56 239.5 c 128,-1,98
 54 257 54 257 54 323 c 0,99,100
 55 391 55 391 56.5 409.5 c 128,-1,101
 58 428 58 428 68 457 c 0,102,103
 80 492 80 492 106 535 c 0,104,105
 123 561 123 561 156 596.5 c 128,-1,106
 189 632 189 632 214 649 c 0,21,22
EndSplineSet
Validated: 1
EndChar

StartChar: x
Encoding: 120 120 72
Width: 600
Flags: W
LayerCount: 2
Fore
SplineSet
250 516 m 2,0,1
 445 666 445 666 448 666 c 0,2,3
 452 666 452 666 477.5 631 c 128,-1,4
 503 596 503 596 501 593 c 0,5,6
 213 375 213 375 213 368 c 0,7,8
 213 362 213 362 367 244 c 0,9,10
 473 163 473 163 500.5 139 c 128,-1,11
 528 115 528 115 537 97 c 2,12,-1
 550 71 l 1,13,-1
 550 18 l 2,14,15
 550 -32 550 -32 551.5 -67 c 128,-1,16
 553 -102 553 -102 560 -124 c 0,17,18
 571 -158 571 -158 586 -176 c 0,19,20
 602 -196 602 -196 602 -200 c 0,21,22
 602 -203 602 -203 570 -235 c 2,23,-1
 539 -266 l 1,24,-1
 519 -243 l 2,25,26
 465 -181 465 -181 463 -130 c 0,27,28
 460 -50 460 -50 456.5 11 c 0,29,30
 455 55 455 55 449 62 c 0,31,32
 446 66 446 66 408.5 95 c 128,-1,33
 371 124 371 124 317.5 165.5 c 128,-1,34
 264 207 264 207 213 245.5 c 128,-1,35
 162 284 162 284 121.5 315.5 c 128,-1,36
 81 347 81 347 80 347 c 2,37,-1
 55 366 l 1,38,-1
 250 516 l 2,0,1
EndSplineSet
Validated: 33
EndChar

StartChar: y
Encoding: 121 121 73
Width: 674
Flags: W
LayerCount: 2
Fore
SplineSet
511 433 m 0,0,1
 502 455 502 455 495 455 c 0,2,3
 487 455 487 455 369 334.5 c 128,-1,4
 251 214 251 214 251 206 c 0,5,6
 251 200 251 200 283 189 c 0,7,8
 310 181 310 181 336 181 c 0,9,10
 389 181 389 181 435 210 c 128,-1,11
 481 239 481 239 506 289 c 0,12,13
 520 319 520 319 520 364 c 0,14,15
 520 412 520 412 511 433 c 0,0,1
399 542 m 0,16,17
 372 550 372 550 336 550 c 0,18,19
 310 550 310 550 288 545 c 0,20,21
 235 531 235 531 197 486.5 c 128,-1,22
 159 442 159 442 154 387 c 0,23,24
 153 381 153 381 153 368 c 0,25,26
 153 307 153 307 172 285 c 0,27,28
 176 281 176 281 178 281 c 0,29,30
 184 281 184 281 206 301.5 c 128,-1,31
 228 322 228 322 307 401 c 0,32,33
 412 507 412 507 420 521 c 0,34,35
 423 526 423 526 423 529 c 0,36,37
 423 535 423 535 399 542 c 0,16,17
502 595 m 1,38,39
 511 605 511 605 529 623 c 128,-1,40
 547 641 547 641 556 651 c 1,41,42
 600 609 600 609 621 587 c 1,43,-1
 595 560 l 2,44,45
 569 534 569 534 569 529 c 0,46,47
 569 522 569 522 585 495 c 0,48,49
 616 436 616 436 616 363 c 0,50,51
 616 330 616 330 608 298 c 0,52,53
 589 226 589 226 533.5 170.5 c 128,-1,54
 478 115 478 115 407 96 c 0,55,56
 380 89 380 89 345 89 c 0,57,58
 264 89 264 89 204 122 c 0,59,60
 182 135 182 135 176 135 c 128,-1,61
 170 135 170 135 144 109 c 2,62,-1
 118 84 l 1,63,-1
 54 148 l 1,64,-1
 109 203 l 1,65,-1
 92 235 l 2,66,67
 58 297 58 297 58 366 c 0,68,69
 58 477 58 477 142 563 c 0,70,71
 222 645 222 645 338 645 c 0,72,73
 406 645 406 645 469 612 c 2,74,-1
 502 595 l 1,38,39
EndSplineSet
Validated: 1
EndChar

StartChar: z
Encoding: 122 122 74
Width: 600
Flags: W
LayerCount: 2
Fore
SplineSet
51 89 m 1,0,-1
 51 645 l 1,1,-1
 144 645 l 1,2,-1
 144 181 l 1,3,-1
 453 181 l 1,4,-1
 453 645 l 1,5,-1
 546 645 l 1,6,-1
 546 -15 l 2,7,8
 546 -96 546 -96 553 -123 c 0,9,10
 566 -169 566 -169 595 -198 c 0,11,12
 596 -199 596 -199 596 -201 c 0,13,14
 596 -207.09375 596 -207.09375 567 -237 c 2,15,-1
 535 -270 l 1,16,-1
 514 -247 l 2,17,18
 476 -206 476 -206 459 -134 c 0,19,20
 453 -109 453 -109 453 -14 c 2,21,-1
 453 89 l 1,22,-1
 51 89 l 1,0,-1
269 453 m 0,23,24
 279 459 279 459 298 459 c 0,25,26
 324 459 324 459 342 441.5 c 128,-1,27
 360 424 360 424 360 398 c 0,28,29
 359 371 359 371 340 354 c 128,-1,30
 321 337 321 337 296 337 c 0,31,32
 261 337 261 337 244 368 c 0,33,34
 237 382 237 382 237 395 c 0,35,36
 237 435 237 435 269 453 c 0,23,24
EndSplineSet
Validated: 1
EndChar

StartChar: Abreve
Encoding: 258 258 76
Width: 677
Flags: W
LayerCount: 2
Fore
SplineSet
184 847 m 2,0,-1
 184 862 l 1,1,-1
 276 862 l 1,2,-1
 280 846 l 2,3,4
 284 829 284 829 302 814.5 c 128,-1,5
 320 800 320 800 339 800 c 128,-1,6
 358 800 358 800 376 814.5 c 128,-1,7
 394 829 394 829 398 846 c 2,8,-1
 402 862 l 1,9,-1
 494 862 l 1,10,-1
 494 847 l 2,11,12
 494 799 494 799 448 753 c 0,13,14
 401 706 401 706 339 706 c 0,15,16
 314 706 314 706 284 716 c 0,17,18
 246 729 246 729 215 769.5 c 128,-1,19
 184 810 184 810 184 847 c 2,0,-1
56 590 m 5,20,21
 98 634 98 634 120 655 c 5,22,23
 193 581 193 581 339 435 c 5,24,25
 485 581 485 581 558 655 c 5,26,27
 591 623 591 623 623 590 c 5,28,29
 549 517 549 517 403 371 c 5,30,31
 514 261 514 261 624 150 c 5,32,-1
 599 124 l 6,33,34
 568 92 568 92 565 92 c 4,35,36
 564 92 564 92 564 91.5 c 132,-1,37
 564 91 564 91 563 91 c 4,38,39
 553 91 553 91 452 193 c 4,40,41
 348 299 348 299 339 299 c 132,-1,42
 330 299 330 299 226 193 c 4,43,44
 125 91 125 91 115 91 c 4,45,46
 114 91 114 91 114 91.5 c 132,-1,47
 114 92 114 92 113 92 c 4,48,49
 104.903614458 97.0602409639 104.903614458 97.0602409639 79 124 c 6,50,-1
 54 150 l 5,51,52
 164 261 164 261 275 371 c 5,53,-1
 56 590 l 5,20,21
EndSplineSet
Validated: 1
LCarets2: 1 0
Ligature2: "'rlig' Required Ligatures lookup 0-1" A X
Ligature2: "'rlig' Required Ligatures lookup 0-1" A x
EndChar

StartChar: abreve
Encoding: 259 259 77
Width: 677
Flags: W
LayerCount: 2
Fore
SplineSet
184 847 m 2,0,-1
 184 862 l 1,1,-1
 276 862 l 1,2,-1
 280 846 l 2,3,4
 284 829 284 829 302 814.5 c 128,-1,5
 320 800 320 800 339 800 c 128,-1,6
 358 800 358 800 376 814.5 c 128,-1,7
 394 829 394 829 398 846 c 2,8,-1
 402 862 l 1,9,-1
 494 862 l 1,10,-1
 494 847 l 2,11,12
 494 799 494 799 448 753 c 0,13,14
 401 706 401 706 339 706 c 0,15,16
 314 706 314 706 284 716 c 0,17,18
 246 729 246 729 215 769.5 c 128,-1,19
 184 810 184 810 184 847 c 2,0,-1
56 590 m 5,20,21
 98 634 98 634 120 655 c 5,22,23
 193 581 193 581 339 435 c 5,24,25
 485 581 485 581 558 655 c 5,26,27
 591 623 591 623 623 590 c 5,28,29
 549 517 549 517 403 371 c 5,30,31
 514 261 514 261 624 150 c 5,32,-1
 599 124 l 6,33,34
 568 92 568 92 565 92 c 4,35,36
 564 92 564 92 564 91.5 c 132,-1,37
 564 91 564 91 563 91 c 4,38,39
 553 91 553 91 452 193 c 4,40,41
 348 299 348 299 339 299 c 132,-1,42
 330 299 330 299 226 193 c 4,43,44
 125 91 125 91 115 91 c 4,45,46
 114 91 114 91 114 91.5 c 132,-1,47
 114 92 114 92 113 92 c 4,48,49
 104.903614458 97.0602409639 104.903614458 97.0602409639 79 124 c 6,50,-1
 54 150 l 5,51,52
 164 261 164 261 275 371 c 5,53,-1
 56 590 l 5,20,21
EndSplineSet
Validated: 1
Ligature2: "'rlig' Required Ligatures lookup 0-1" a x
EndChar

StartChar: Gcircumflex
Encoding: 284 284 78
Width: 783
Flags: W
LayerCount: 2
Fore
SplineSet
54 554 m 2,0,-1
 51 651 l 1,1,-1
 145 651 l 1,2,-1
 145 570 l 2,3,4
 145 502 145 502 149 338 c 2,5,-1
 152 187 l 1,6,-1
 455 187 l 1,7,-1
 455 651 l 1,8,-1
 547 651 l 1,9,-1
 547 419 l 1,10,-1
 640 419 l 1,11,-1
 640 651 l 1,12,-1
 733 651 l 1,13,-1
 733 94 l 1,14,-1
 640 94 l 1,15,-1
 640 326 l 1,16,-1
 547 326 l 1,17,-1
 547 94 l 1,18,-1
 58 94 l 1,19,-1
 58 276 l 2,20,21
 58 446 58 446 54 554 c 2,0,-1
270 458 m 0,22,23
 280 464 280 464 300 464 c 0,24,25
 326 464 326 464 344 446.5 c 128,-1,26
 362 429 362 429 362 403 c 0,27,28
 361 376 361 376 342 359 c 128,-1,29
 323 342 323 342 298 342 c 0,30,31
 262 342 262 342 245 373 c 0,32,33
 238 387 238 387 238 400 c 0,34,35
 238 440 238 440 270 458 c 0,22,23
EndSplineSet
Validated: 1
Ligature2: "'rlig' Required Ligatures lookup 0-1" G h
Ligature2: "'rlig' Required Ligatures lookup 0-1" G H
Ligature2: "'rlig' Required Ligatures lookup 0-1" G x
Ligature2: "'rlig' Required Ligatures lookup 0-1" G X
Ligature2: "'rlig' Required Ligatures lookup 0-1" D jcircumflex
Ligature2: "'rlig' Required Ligatures lookup 0-1" D Jcircumflex
Ligature2: "'rlig' Required Ligatures lookup 0-1" D j
Ligature2: "'rlig' Required Ligatures lookup 0-1" D J
EndChar

StartChar: gcircumflex
Encoding: 285 285 79
Width: 783
Flags: W
LayerCount: 2
Fore
SplineSet
54 554 m 2,0,-1
 51 651 l 1,1,-1
 145 651 l 1,2,-1
 145 570 l 2,3,4
 145 502 145 502 149 338 c 2,5,-1
 152 187 l 1,6,-1
 455 187 l 1,7,-1
 455 651 l 1,8,-1
 547 651 l 1,9,-1
 547 419 l 1,10,-1
 640 419 l 1,11,-1
 640 651 l 1,12,-1
 733 651 l 1,13,-1
 733 94 l 1,14,-1
 640 94 l 1,15,-1
 640 326 l 1,16,-1
 547 326 l 1,17,-1
 547 94 l 1,18,-1
 58 94 l 1,19,-1
 58 276 l 2,20,21
 58 446 58 446 54 554 c 2,0,-1
270 458 m 0,22,23
 280 464 280 464 300 464 c 0,24,25
 326 464 326 464 344 446.5 c 128,-1,26
 362 429 362 429 362 403 c 0,27,28
 361 376 361 376 342 359 c 128,-1,29
 323 342 323 342 298 342 c 0,30,31
 262 342 262 342 245 373 c 0,32,33
 238 387 238 387 238 400 c 0,34,35
 238 440 238 440 270 458 c 0,22,23
EndSplineSet
Validated: 1
Ligature2: "'rlig' Required Ligatures lookup 0-1" d j
Ligature2: "'rlig' Required Ligatures lookup 0-1" d jcircumflex
Ligature2: "'rlig' Required Ligatures lookup 0-1" g x
Ligature2: "'rlig' Required Ligatures lookup 0-1" g h
EndChar

StartChar: Ccircumflex
Encoding: 264 264 80
Width: 781
Flags: W
LayerCount: 2
Fore
SplineSet
669 647 m 2,0,1
 676 647 676 647 693 647.5 c 128,-1,2
 710 648 710 648 715 649 c 2,3,-1
 731 651 l 1,4,-1
 731 89 l 1,5,-1
 639 89 l 1,6,-1
 639 321 l 1,7,-1
 546 321 l 1,8,-1
 546 89 l 1,9,-1
 51 89 l 1,10,-1
 51 645 l 1,11,-1
 144 645 l 1,12,-1
 144 181 l 1,13,-1
 453 181 l 1,14,-1
 453 645 l 1,15,-1
 546 645 l 1,16,-1
 546 413 l 1,17,-1
 639 413 l 1,18,-1
 639 645 l 1,19,-1
 669 647 l 2,0,1
EndSplineSet
Validated: 1
Ligature2: "'rlig' Required Ligatures lookup 0-1" T Scircumflex
Ligature2: "'rlig' Required Ligatures lookup 0-1" T scircumflex
Ligature2: "'rlig' Required Ligatures lookup 0-1" C h
Ligature2: "'rlig' Required Ligatures lookup 0-1" C x
Ligature2: "'rlig' Required Ligatures lookup 0-1" C H
Ligature2: "'rlig' Required Ligatures lookup 0-1" C X
Ligature2: "'rlig' Required Ligatures lookup 0-1" T j
Ligature2: "'rlig' Required Ligatures lookup 0-1" T J
EndChar

StartChar: ccircumflex
Encoding: 265 265 81
Width: 781
Flags: W
LayerCount: 2
Fore
SplineSet
669 647 m 2,0,1
 676 647 676 647 693 647.5 c 128,-1,2
 710 648 710 648 715 649 c 2,3,-1
 731 651 l 1,4,-1
 731 89 l 1,5,-1
 639 89 l 1,6,-1
 639 321 l 1,7,-1
 546 321 l 1,8,-1
 546 89 l 1,9,-1
 51 89 l 1,10,-1
 51 645 l 1,11,-1
 144 645 l 1,12,-1
 144 181 l 1,13,-1
 453 181 l 1,14,-1
 453 645 l 1,15,-1
 546 645 l 1,16,-1
 546 413 l 1,17,-1
 639 413 l 1,18,-1
 639 645 l 1,19,-1
 669 647 l 2,0,1
EndSplineSet
Validated: 1
Ligature2: "'rlig' Required Ligatures lookup 0-1" t scircumflex
Ligature2: "'rlig' Required Ligatures lookup 0-1" t j
Ligature2: "'rlig' Required Ligatures lookup 0-1" c h
Ligature2: "'rlig' Required Ligatures lookup 0-1" c x
EndChar

StartChar: uni02A3
Encoding: 675 675 82
Width: 600
Flags: W
LayerCount: 2
Fore
SplineSet
51 94 m 1,0,-1
 51 651 l 1,1,-1
 144 651 l 1,2,-1
 144 187 l 1,3,-1
 454 187 l 1,4,5
 453 265 453 265 450.5 419.5 c 128,-1,6
 448 574 448 574 446 651 c 1,7,-1
 541 651 l 1,8,-1
 541 512 l 2,9,10
 541 350 541 350 544 234 c 2,11,-1
 547 94 l 1,12,-1
 51 94 l 1,0,-1
269 458 m 0,13,14
 279 464 279 464 298 464 c 0,15,16
 324 464 324 464 342 446.5 c 128,-1,17
 360 429 360 429 360 403 c 0,18,19
 359 376 359 376 340 359 c 128,-1,20
 321 342 321 342 296 342 c 0,21,22
 261 342 261 342 244 373 c 0,23,24
 237 387 237 387 237 400 c 0,25,26
 237 440 237 440 269 458 c 0,13,14
51 -92 m 1,27,-1
 51 1 l 1,28,-1
 546 1 l 1,29,-1
 546 1 l 2,30,31
 546 -94 546 -94 552 -118 c 0,32,33
 564 -169 564 -169 595 -200 c 0,34,35
 596 -201 596 -201 596 -203 c 0,36,37
 596 -208.09375 596 -208.09375 567 -238 c 2,38,-1
 535 -271 l 1,39,-1
 515 -248 l 2,40,41
 494 -224 494 -224 481 -199 c 0,42,43
 462 -160 462 -160 457.5 -125.5 c 0,44,45
 453 -94 453 -94 453 -92 c 2,46,-1
 453 -92 l 1,47,-1
 51 -92 l 1,27,-1
EndSplineSet
Validated: 5
Ligature2: "'rlig' Required Ligatures lookup 0-1" D z
Ligature2: "'rlig' Required Ligatures lookup 0-1" D Z
Ligature2: "'rlig' Required Ligatures lookup 0-1" d z
EndChar

StartChar: uni01F1
Encoding: 497 497 83
Width: 600
Flags: W
LayerCount: 2
Fore
SplineSet
51 94 m 1,0,-1
 51 651 l 1,1,-1
 144 651 l 1,2,-1
 144 187 l 1,3,-1
 454 187 l 1,4,5
 453 265 453 265 450.5 419.5 c 128,-1,6
 448 574 448 574 446 651 c 1,7,-1
 541 651 l 1,8,-1
 541 512 l 2,9,10
 541 350 541 350 544 234 c 2,11,-1
 547 94 l 1,12,-1
 51 94 l 1,0,-1
269 458 m 0,13,14
 279 464 279 464 298 464 c 0,15,16
 324 464 324 464 342 446.5 c 128,-1,17
 360 429 360 429 360 403 c 0,18,19
 359 376 359 376 340 359 c 128,-1,20
 321 342 321 342 296 342 c 0,21,22
 261 342 261 342 244 373 c 0,23,24
 237 387 237 387 237 400 c 0,25,26
 237 440 237 440 269 458 c 0,13,14
51 -92 m 1,27,-1
 51 1 l 1,28,-1
 546 1 l 1,29,-1
 546 1 l 2,30,31
 546 -94 546 -94 552 -118 c 0,32,33
 564 -169 564 -169 595 -200 c 0,34,35
 596 -201 596 -201 596 -203 c 0,36,37
 596 -208.09375 596 -208.09375 567 -238 c 2,38,-1
 535 -271 l 1,39,-1
 515 -248 l 2,40,41
 494 -224 494 -224 481 -199 c 0,42,43
 462 -160 462 -160 457.5 -125.5 c 0,44,45
 453 -94 453 -94 453 -92 c 2,46,-1
 453 -92 l 1,47,-1
 51 -92 l 1,27,-1
EndSplineSet
Validated: 5
EndChar

StartChar: uni01F2
Encoding: 498 498 84
Width: 600
Flags: W
LayerCount: 2
Fore
SplineSet
51 94 m 1,0,-1
 51 651 l 1,1,-1
 144 651 l 1,2,-1
 144 187 l 1,3,-1
 454 187 l 1,4,5
 453 265 453 265 450.5 419.5 c 128,-1,6
 448 574 448 574 446 651 c 1,7,-1
 541 651 l 1,8,-1
 541 512 l 2,9,10
 541 350 541 350 544 234 c 2,11,-1
 547 94 l 1,12,-1
 51 94 l 1,0,-1
269 458 m 0,13,14
 279 464 279 464 298 464 c 0,15,16
 324 464 324 464 342 446.5 c 128,-1,17
 360 429 360 429 360 403 c 0,18,19
 359 376 359 376 340 359 c 128,-1,20
 321 342 321 342 296 342 c 0,21,22
 261 342 261 342 244 373 c 0,23,24
 237 387 237 387 237 400 c 0,25,26
 237 440 237 440 269 458 c 0,13,14
51 -92 m 1,27,-1
 51 1 l 1,28,-1
 546 1 l 1,29,-1
 546 1 l 2,30,31
 546 -94 546 -94 552 -118 c 0,32,33
 564 -169 564 -169 595 -200 c 0,34,35
 596 -201 596 -201 596 -203 c 0,36,37
 596 -208.09375 596 -208.09375 567 -238 c 2,38,-1
 535 -271 l 1,39,-1
 515 -248 l 2,40,41
 494 -224 494 -224 481 -199 c 0,42,43
 462 -160 462 -160 457.5 -125.5 c 0,44,45
 453 -94 453 -94 453 -92 c 2,46,-1
 453 -92 l 1,47,-1
 51 -92 l 1,27,-1
EndSplineSet
Validated: 5
EndChar

StartChar: uni01F3
Encoding: 499 499 85
Width: 600
Flags: W
LayerCount: 2
Fore
SplineSet
51 94 m 1,0,-1
 51 651 l 1,1,-1
 144 651 l 1,2,-1
 144 187 l 1,3,-1
 454 187 l 1,4,5
 453 265 453 265 450.5 419.5 c 128,-1,6
 448 574 448 574 446 651 c 1,7,-1
 541 651 l 1,8,-1
 541 512 l 2,9,10
 541 350 541 350 544 234 c 2,11,-1
 547 94 l 1,12,-1
 51 94 l 1,0,-1
269 458 m 0,13,14
 279 464 279 464 298 464 c 0,15,16
 324 464 324 464 342 446.5 c 128,-1,17
 360 429 360 429 360 403 c 0,18,19
 359 376 359 376 340 359 c 128,-1,20
 321 342 321 342 296 342 c 0,21,22
 261 342 261 342 244 373 c 0,23,24
 237 387 237 387 237 400 c 0,25,26
 237 440 237 440 269 458 c 0,13,14
51 -92 m 1,27,-1
 51 1 l 1,28,-1
 546 1 l 1,29,-1
 546 1 l 2,30,31
 546 -94 546 -94 552 -118 c 0,32,33
 564 -169 564 -169 595 -200 c 0,34,35
 596 -201 596 -201 596 -203 c 0,36,37
 596 -208.09375 596 -208.09375 567 -238 c 2,38,-1
 535 -271 l 1,39,-1
 515 -248 l 2,40,41
 494 -224 494 -224 481 -199 c 0,42,43
 462 -160 462 -160 457.5 -125.5 c 0,44,45
 453 -94 453 -94 453 -92 c 2,46,-1
 453 -92 l 1,47,-1
 51 -92 l 1,27,-1
EndSplineSet
Validated: 5
EndChar

StartChar: eth
Encoding: 240 240 86
Width: 596
Flags: W
LayerCount: 2
Fore
SplineSet
51 89 m 1,0,-1
 51 645 l 1,1,-1
 144 645 l 1,2,-1
 144 181 l 1,3,-1
 453 181 l 1,4,-1
 453 645 l 1,5,-1
 546 645 l 1,6,-1
 546 89 l 1,7,-1
 51 89 l 1,0,-1
269 453 m 0,8,9
 279 459 279 459 298 459 c 0,10,11
 324 459 324 459 342 441.5 c 128,-1,12
 360 424 360 424 360 398 c 0,13,14
 359 371 359 371 340 354 c 128,-1,15
 321 337 321 337 296 337 c 0,16,17
 261 337 261 337 244 368 c 0,18,19
 237 382 237 382 237 395 c 0,20,21
 237 435 237 435 269 453 c 0,8,9
51 -97 m 1,22,-1
 51 -4 l 1,23,-1
 546 -4 l 1,24,-1
 546 -97 l 1,25,-1
 51 -97 l 1,22,-1
EndSplineSet
Validated: 1
Ligature2: "'rlig' Required Ligatures lookup 0-1" d h
EndChar

StartChar: Eth
Encoding: 208 208 87
Width: 596
Flags: W
LayerCount: 2
Fore
SplineSet
51 89 m 1,0,-1
 51 645 l 1,1,-1
 144 645 l 1,2,-1
 144 181 l 1,3,-1
 453 181 l 1,4,-1
 453 645 l 1,5,-1
 546 645 l 1,6,-1
 546 89 l 1,7,-1
 51 89 l 1,0,-1
269 453 m 0,8,9
 279 459 279 459 298 459 c 0,10,11
 324 459 324 459 342 441.5 c 128,-1,12
 360 424 360 424 360 398 c 0,13,14
 359 371 359 371 340 354 c 128,-1,15
 321 337 321 337 296 337 c 0,16,17
 261 337 261 337 244 368 c 0,18,19
 237 382 237 382 237 395 c 0,20,21
 237 435 237 435 269 453 c 0,8,9
51 -97 m 1,22,-1
 51 -4 l 1,23,-1
 546 -4 l 1,24,-1
 546 -97 l 1,25,-1
 51 -97 l 1,22,-1
EndSplineSet
Validated: 1
Ligature2: "'rlig' Required Ligatures lookup 0-1" D H
Ligature2: "'rlig' Required Ligatures lookup 0-1" D h
EndChar

StartChar: Ebreve
Encoding: 276 276 88
Width: 749
Flags: W
LayerCount: 2
Fore
SplineSet
240 850 m 0,0,1
 240 858 240 858 246.5 860 c 128,-1,2
 253 862 253 862 286 862 c 2,3,-1
 332 862 l 1,4,-1
 335 846 l 2,5,6
 339 829 339 829 357.5 814.5 c 128,-1,7
 376 800 376 800 395 800 c 128,-1,8
 414 800 414 800 432 814.5 c 128,-1,9
 450 829 450 829 454 846 c 2,10,-1
 458 862 l 1,11,-1
 503 862 l 2,12,13
 536 862 536 862 542.5 860 c 128,-1,14
 549 858 549 858 549 850 c 0,15,16
 549 799 549 799 504 754 c 0,17,18
 457 707 457 707 395 707 c 0,19,20
 332 707 332 707 285 754 c 0,21,22
 240 799 240 799 240 850 c 0,0,1
94 642 m 2,23,24
 124 660 124 660 135 660 c 0,25,26
 137 660 137 660 138 659 c 0,27,28
 139 655 139 655 196.5 557.5 c 128,-1,29
 254 460 254 460 257 460 c 0,30,31
 262 460 262 460 276 492 c 0,32,33
 293 529 293 529 325.5 562 c 128,-1,34
 358 595 358 595 397 614 c 0,35,36
 439 634 439 634 472.5 639.5 c 128,-1,37
 506 645 506 645 596 645 c 2,38,-1
 699 645 l 1,39,-1
 699 89 l 1,40,-1
 606 89 l 1,41,-1
 606 554 l 1,42,-1
 540 552 l 2,43,44
 476 550 476 550 445 536 c 0,45,46
 418 524 418 524 396 502 c 0,47,48
 381 487 381 487 357 449.5 c 128,-1,49
 333 412 333 412 333 404 c 0,50,51
 333 398 333 398 322 380 c 0,52,53
 315 367 315 367 315 362 c 128,-1,54
 315 357 315 357 318 351 c 0,55,56
 322 345 322 345 389.5 226.5 c 128,-1,57
 457 108 457 108 457 105 c 0,58,59
 457 101 457 101 421.5 81 c 128,-1,60
 386 61 386 61 380 61 c 2,61,-1
 379 61 l 2,62,63
 373 64 373 64 317 163 c 0,64,65
 261 261 261 261 256 261 c 0,66,67
 253 261 253 261 196 162 c 0,68,69
 144 68 144 68 137 61 c 1,70,-1
 136 61 l 1,71,72
 56 90 56 90 56 102 c 0,73,74
 56 104 56 104 129 232 c 2,75,-1
 204 361 l 1,76,-1
 142 469 l 2,77,78
 128 492 128 492 109.5 523.5 c 128,-1,79
 91 555 91 555 80 573.5 c 128,-1,80
 69 592 69 592 66 597 c 2,81,-1
 54 619 l 1,82,-1
 94 642 l 2,23,24
EndSplineSet
Validated: 1
Ligature2: "'rlig' Required Ligatures lookup 0-1" E x
Ligature2: "'rlig' Required Ligatures lookup 0-1" E X
EndChar

StartChar: ebreve
Encoding: 277 277 89
Width: 749
Flags: W
LayerCount: 2
Fore
SplineSet
240 850 m 0,0,1
 240 858 240 858 246.5 860 c 128,-1,2
 253 862 253 862 286 862 c 2,3,-1
 332 862 l 1,4,-1
 335 846 l 2,5,6
 339 829 339 829 357.5 814.5 c 128,-1,7
 376 800 376 800 395 800 c 128,-1,8
 414 800 414 800 432 814.5 c 128,-1,9
 450 829 450 829 454 846 c 2,10,-1
 458 862 l 1,11,-1
 503 862 l 2,12,13
 536 862 536 862 542.5 860 c 128,-1,14
 549 858 549 858 549 850 c 0,15,16
 549 799 549 799 504 754 c 0,17,18
 457 707 457 707 395 707 c 0,19,20
 332 707 332 707 285 754 c 0,21,22
 240 799 240 799 240 850 c 0,0,1
94 642 m 2,23,24
 124 660 124 660 135 660 c 0,25,26
 137 660 137 660 138 659 c 0,27,28
 139 655 139 655 196.5 557.5 c 128,-1,29
 254 460 254 460 257 460 c 0,30,31
 262 460 262 460 276 492 c 0,32,33
 293 529 293 529 325.5 562 c 128,-1,34
 358 595 358 595 397 614 c 0,35,36
 439 634 439 634 472.5 639.5 c 128,-1,37
 506 645 506 645 596 645 c 2,38,-1
 699 645 l 1,39,-1
 699 89 l 1,40,-1
 606 89 l 1,41,-1
 606 554 l 1,42,-1
 540 552 l 2,43,44
 476 550 476 550 445 536 c 0,45,46
 418 524 418 524 396 502 c 0,47,48
 381 487 381 487 357 449.5 c 128,-1,49
 333 412 333 412 333 404 c 0,50,51
 333 398 333 398 322 380 c 0,52,53
 315 367 315 367 315 362 c 128,-1,54
 315 357 315 357 318 351 c 0,55,56
 322 345 322 345 389.5 226.5 c 128,-1,57
 457 108 457 108 457 105 c 0,58,59
 457 101 457 101 421.5 81 c 128,-1,60
 386 61 386 61 380 61 c 2,61,-1
 379 61 l 2,62,63
 373 64 373 64 317 163 c 0,64,65
 261 261 261 261 256 261 c 0,66,67
 253 261 253 261 196 162 c 0,68,69
 144 68 144 68 137 61 c 1,70,-1
 136 61 l 1,71,72
 56 90 56 90 56 102 c 0,73,74
 56 104 56 104 129 232 c 2,75,-1
 204 361 l 1,76,-1
 142 469 l 2,77,78
 128 492 128 492 109.5 523.5 c 128,-1,79
 91 555 91 555 80 573.5 c 128,-1,80
 69 592 69 592 66 597 c 2,81,-1
 54 619 l 1,82,-1
 94 642 l 2,23,24
EndSplineSet
Validated: 1
Ligature2: "'rlig' Required Ligatures lookup 0-1" e x
EndChar

StartChar: uni0299
Encoding: 665 665 90
Width: 383
Flags: W
LayerCount: 2
Fore
SplineSet
235 611 m 2,0,-1
 242 645 l 1,1,-1
 332 645 l 1,2,-1
 332 626 l 2,3,4
 332 582 332 582 309 533.5 c 128,-1,5
 286 485 286 485 246 446 c 0,6,7
 212 412 212 412 212 407 c 0,8,9
 212 406 212 406 274 386 c 2,10,-1
 332 366 l 1,11,-1
 332 349 l 2,12,13
 332 255 332 255 250.5 172.5 c 128,-1,14
 169 90 169 90 76 89 c 2,15,-1
 54 89 l 1,16,-1
 54 180 l 1,17,-1
 80 183 l 2,18,19
 108 187 108 187 134 199 c 0,20,21
 163 213 163 213 194.5 248.5 c 128,-1,22
 226 284 226 284 226 301 c 0,23,24
 226 306 226 306 223 308 c 0,25,26
 221 309 221 309 137 338 c 2,27,-1
 56 365 l 1,28,-1
 55 412 l 1,29,-1
 53 458 l 1,30,-1
 79 461 l 2,31,32
 133 468 133 468 178 509 c 0,33,34
 224 552 224 552 235 611 c 2,0,-1
EndSplineSet
Validated: 1
EndChar

StartChar: Gbreve
Encoding: 286 286 91
Width: 1049
Flags: W
LayerCount: 2
Fore
SplineSet
249 516 m 2,0,1
 445 666 445 666 447 666 c 0,2,3
 451 666 451 666 476.5 631 c 128,-1,4
 502 596 502 596 500 593 c 0,5,6
 213 380 213 380 213 368 c 0,7,8
 213 365 213 365 329 273 c 2,9,-1
 448 181 l 1,10,-1
 639 181 l 2,11,12
 771 181 771 181 804.5 182.5 c 128,-1,13
 838 184 838 184 858 192 c 0,14,15
 891 204 891 204 906 218 c 0,16,17
 927 233 927 233 930 233 c 0,18,19
 934 233 934 233 965 202 c 2,20,-1
 995 170 l 1,21,-1
 973 150 l 2,22,23
 954 134 954 134 924 117 c 0,24,25
 884 97 884 97 843.5 93 c 128,-1,26
 803 89 803 89 635 89 c 0,27,28
 483 89 483 89 453 90.5 c 128,-1,29
 423 92 423 92 408 99 c 0,30,31
 396 106 396 106 280 193.5 c 128,-1,32
 164 281 164 281 79 347 c 2,33,-1
 55 366 l 1,34,-1
 249 516 l 2,0,1
396 422 m 0,35,36
 406 428 406 428 426 428 c 0,37,38
 452 428 452 428 470 410.5 c 128,-1,39
 488 393 488 393 488 367 c 0,40,41
 487 340 487 340 468 323 c 128,-1,42
 449 306 449 306 424 306 c 0,43,44
 388 306 388 306 371 337 c 0,45,46
 364 351 364 351 364 364 c 0,47,48
 364 404 364 404 396 422 c 0,35,36
EndSplineSet
Ligature2: "'rlig' Required Ligatures lookup 0-1" G g
Ligature2: "'rlig' Required Ligatures lookup 0-1" G G
Ligature2: "'rlig' Required Ligatures lookup 0-1" G q
Ligature2: "'rlig' Required Ligatures lookup 0-1" G Q
EndChar

StartChar: gbreve
Encoding: 287 287 92
Width: 1049
Flags: W
LayerCount: 2
Fore
SplineSet
249 516 m 2,0,1
 445 666 445 666 447 666 c 0,2,3
 451 666 451 666 476.5 631 c 128,-1,4
 502 596 502 596 500 593 c 0,5,6
 213 380 213 380 213 368 c 0,7,8
 213 365 213 365 329 273 c 2,9,-1
 448 181 l 1,10,-1
 639 181 l 2,11,12
 771 181 771 181 804.5 182.5 c 128,-1,13
 838 184 838 184 858 192 c 0,14,15
 891 204 891 204 906 218 c 0,16,17
 927 233 927 233 930 233 c 0,18,19
 934 233 934 233 965 202 c 2,20,-1
 995 170 l 1,21,-1
 973 150 l 2,22,23
 954 134 954 134 924 117 c 0,24,25
 884 97 884 97 843.5 93 c 128,-1,26
 803 89 803 89 635 89 c 0,27,28
 483 89 483 89 453 90.5 c 128,-1,29
 423 92 423 92 408 99 c 0,30,31
 396 106 396 106 280 193.5 c 128,-1,32
 164 281 164 281 79 347 c 2,33,-1
 55 366 l 1,34,-1
 249 516 l 2,0,1
396 422 m 0,35,36
 406 428 406 428 426 428 c 0,37,38
 452 428 452 428 470 410.5 c 128,-1,39
 488 393 488 393 488 367 c 0,40,41
 487 340 487 340 468 323 c 128,-1,42
 449 306 449 306 424 306 c 0,43,44
 388 306 388 306 371 337 c 0,45,46
 364 351 364 351 364 364 c 0,47,48
 364 404 364 404 396 422 c 0,35,36
EndSplineSet
Ligature2: "'rlig' Required Ligatures lookup 0-1" g g
Ligature2: "'rlig' Required Ligatures lookup 0-1" g q
EndChar

StartChar: Gdotaccent
Encoding: 288 288 93
Width: 600
Flags: W
LayerCount: 2
Fore
SplineSet
250 516 m 2,0,1
 445 666 445 666 448 666 c 0,2,3
 452 666 452 666 477.5 631 c 128,-1,4
 503 596 503 596 501 593 c 0,5,6
 213 375 213 375 213 368 c 0,7,8
 213 362 213 362 367 244 c 0,9,10
 473 163 473 163 500.5 139 c 128,-1,11
 528 115 528 115 537 97 c 2,12,-1
 550 71 l 1,13,-1
 550 18 l 2,14,15
 550 -32 550 -32 551.5 -67 c 128,-1,16
 553 -102 553 -102 560 -124 c 0,17,18
 571 -158 571 -158 586 -176 c 0,19,20
 602 -196 602 -196 602 -200 c 0,21,22
 602 -203 602 -203 570 -235 c 2,23,-1
 539 -266 l 1,24,-1
 519 -243 l 2,25,26
 465 -181 465 -181 463 -130 c 0,27,28
 460 -50 460 -50 456.5 11 c 0,29,30
 455 55 455 55 449 62 c 0,33,34
 446 66 446 66 408.5 95 c 128,-1,35
 371 124 371 124 317.5 165.5 c 128,-1,36
 264 207 264 207 213 245.5 c 128,-1,37
 162 284 162 284 121.5 315.5 c 128,-1,38
 81 347 81 347 80 347 c 2,39,-1
 55 366 l 1,40,-1
 250 516 l 2,0,1
397 422 m 0,41,42
 408 428 408 428 427 428 c 0,43,44
 453 428 453 428 471 410.5 c 128,-1,45
 489 393 489 393 489 367 c 0,46,47
 488 340 488 340 469 323 c 128,-1,48
 450 306 450 306 425 306 c 0,49,50
 389 306 389 306 372 337 c 0,51,52
 365 351 365 351 365 364 c 0,53,54
 365 404 365 404 397 422 c 0,41,42
EndSplineSet
Ligature2: "'rlig' Required Ligatures lookup 0-1" G hcircumflex
Ligature2: "'rlig' Required Ligatures lookup 0-1" G Hcircumflex
EndChar

StartChar: gdotaccent
Encoding: 289 289 94
Width: 600
Flags: W
LayerCount: 2
Fore
SplineSet
250 516 m 2,0,1
 445 666 445 666 448 666 c 0,2,3
 452 666 452 666 477.5 631 c 128,-1,4
 503 596 503 596 501 593 c 0,5,6
 213 375 213 375 213 368 c 0,7,8
 213 362 213 362 367 244 c 0,9,10
 473 163 473 163 500.5 139 c 128,-1,11
 528 115 528 115 537 97 c 2,12,-1
 550 71 l 1,13,-1
 550 18 l 2,14,15
 550 -32 550 -32 551.5 -67 c 128,-1,16
 553 -102 553 -102 560 -124 c 0,17,18
 571 -158 571 -158 586 -176 c 0,19,20
 602 -196 602 -196 602 -200 c 0,21,22
 602 -203 602 -203 570 -235 c 2,23,-1
 539 -266 l 1,24,-1
 519 -243 l 2,25,26
 465 -181 465 -181 463 -130 c 0,27,28
 460 -50 460 -50 456.5 11 c 0,29,30
 455 55 455 55 449 62 c 0,33,34
 446 66 446 66 408.5 95 c 128,-1,35
 371 124 371 124 317.5 165.5 c 128,-1,36
 264 207 264 207 213 245.5 c 128,-1,37
 162 284 162 284 121.5 315.5 c 128,-1,38
 81 347 81 347 80 347 c 2,39,-1
 55 366 l 1,40,-1
 250 516 l 2,0,1
397 422 m 0,41,42
 408 428 408 428 427 428 c 0,43,44
 453 428 453 428 471 410.5 c 128,-1,45
 489 393 489 393 489 367 c 0,46,47
 488 340 488 340 469 323 c 128,-1,48
 450 306 450 306 425 306 c 0,49,50
 389 306 389 306 372 337 c 0,51,52
 365 351 365 351 365 364 c 0,53,54
 365 404 365 404 397 422 c 0,41,42
EndSplineSet
Ligature2: "'rlig' Required Ligatures lookup 0-1" g hcircumflex
EndChar

StartChar: Eng
Encoding: 330 330 95
Width: 730
Flags: W
LayerCount: 2
Fore
SplineSet
233 637 m 0,0,1
 263 645 263 645 342 645 c 2,2,-1
 423 645 l 1,3,-1
 423 555 l 2,4,5
 423 465 423 465 427 465 c 0,6,7
 429 465 429 465 520 554 c 2,8,-1
 609 643 l 1,9,10
 651 599 651 599 673 578 c 1,11,12
 567 473 567 473 462 367 c 1,13,-1
 676 153 l 1,14,15
 642 120 642 120 609 86 c 1,16,-1
 423 272 l 1,17,-1
 423 89 l 1,18,-1
 330 89 l 1,19,-1
 330 547 l 1,20,-1
 312 551 l 2,21,22
 307 552 307 552 297 552 c 0,23,24
 265 552 265 552 230 534 c 128,-1,25
 195 516 195 516 176 490 c 0,26,27
 154 460 154 460 149.5 424.5 c 128,-1,28
 145 389 145 389 145 253 c 2,29,-1
 145 89 l 1,30,-1
 52 89 l 1,31,-1
 52 260 l 2,32,33
 52 404 52 404 57 444.5 c 128,-1,34
 62 485 62 485 84 521 c 0,35,36
 139 612 139 612 233 637 c 0,0,1
EndSplineSet
Validated: 1
Ligature2: "'rlig' Required Ligatures lookup 0-1" N x
Ligature2: "'rlig' Required Ligatures lookup 0-1" N X
EndChar

StartChar: eng
Encoding: 331 331 96
Width: 730
Flags: W
LayerCount: 2
Fore
SplineSet
233 637 m 0,0,1
 263 645 263 645 342 645 c 2,2,-1
 423 645 l 1,3,-1
 423 555 l 2,4,5
 423 465 423 465 427 465 c 0,6,7
 429 465 429 465 520 554 c 2,8,-1
 609 643 l 1,9,10
 651 599 651 599 673 578 c 1,11,12
 567 473 567 473 462 367 c 1,13,-1
 676 153 l 1,14,15
 642 120 642 120 609 86 c 1,16,-1
 423 272 l 1,17,-1
 423 89 l 1,18,-1
 330 89 l 1,19,-1
 330 547 l 1,20,-1
 312 551 l 2,21,22
 307 552 307 552 297 552 c 0,23,24
 265 552 265 552 230 534 c 128,-1,25
 195 516 195 516 176 490 c 0,26,27
 154 460 154 460 149.5 424.5 c 128,-1,28
 145 389 145 389 145 253 c 2,29,-1
 145 89 l 1,30,-1
 52 89 l 1,31,-1
 52 260 l 2,32,33
 52 404 52 404 57 444.5 c 128,-1,34
 62 485 62 485 84 521 c 0,35,36
 139 612 139 612 233 637 c 0,0,1
EndSplineSet
Validated: 1
Ligature2: "'rlig' Required Ligatures lookup 0-1" n x
EndChar

StartChar: Ntilde
Encoding: 209 209 97
Width: 788
Flags: W
LayerCount: 2
Fore
SplineSet
233 638 m 0,0,1
 255 644 255 644 289 644 c 0,2,3
 351 644 351 644 388 630 c 0,4,5
 446 608 446 608 489 556.5 c 128,-1,6
 532 505 532 505 543 445 c 2,7,-1
 549 413 l 1,8,-1
 640 413 l 1,9,-1
 640 645 l 1,10,-1
 738 645 l 1,11,-1
 738 89 l 1,12,-1
 640 89 l 1,13,-1
 640 321 l 1,14,-1
 547 321 l 1,15,-1
 547 89 l 1,16,-1
 455 89 l 1,17,18
 454 147 454 147 452.5 263 c 128,-1,19
 451 379 451 379 451 437 c 1,20,-1
 437 466 l 2,21,22
 396 550 396 550 299 550 c 0,23,24
 203 550 203 550 162 466 c 2,25,-1
 147 437 l 1,26,-1
 146 263 l 1,27,-1
 144 89 l 1,28,-1
 52 89 l 1,29,-1
 52 260 l 2,30,31
 52 404 52 404 57 444 c 128,-1,32
 62 484 62 484 84 521 c 0,33,34
 140 612 140 612 233 638 c 0,0,1
EndSplineSet
Validated: 1
Ligature2: "'rlig' Required Ligatures lookup 0-1" N J
Ligature2: "'rlig' Required Ligatures lookup 0-1" N j
EndChar

StartChar: ntilde
Encoding: 241 241 98
Width: 788
Flags: W
LayerCount: 2
Fore
SplineSet
233 638 m 0,0,1
 255 644 255 644 289 644 c 0,2,3
 351 644 351 644 388 630 c 0,4,5
 446 608 446 608 489 556.5 c 128,-1,6
 532 505 532 505 543 445 c 2,7,-1
 549 413 l 1,8,-1
 640 413 l 1,9,-1
 640 645 l 1,10,-1
 738 645 l 1,11,-1
 738 89 l 1,12,-1
 640 89 l 1,13,-1
 640 321 l 1,14,-1
 547 321 l 1,15,-1
 547 89 l 1,16,-1
 455 89 l 1,17,18
 454 147 454 147 452.5 263 c 128,-1,19
 451 379 451 379 451 437 c 1,20,-1
 437 466 l 2,21,22
 396 550 396 550 299 550 c 0,23,24
 203 550 203 550 162 466 c 2,25,-1
 147 437 l 1,26,-1
 146 263 l 1,27,-1
 144 89 l 1,28,-1
 52 89 l 1,29,-1
 52 260 l 2,30,31
 52 404 52 404 57 444 c 128,-1,32
 62 484 62 484 84 521 c 0,33,34
 140 612 140 612 233 638 c 0,0,1
EndSplineSet
Validated: 1
Ligature2: "'rlig' Required Ligatures lookup 0-1" n j
EndChar

StartChar: uni01CA
Encoding: 458 458 99
Width: 788
Flags: W
LayerCount: 2
Fore
SplineSet
233 638 m 0,0,1
 255 644 255 644 289 644 c 0,2,3
 351 644 351 644 388 630 c 0,4,5
 446 608 446 608 489 556.5 c 128,-1,6
 532 505 532 505 543 445 c 2,7,-1
 549 413 l 1,8,-1
 640 413 l 1,9,-1
 640 645 l 1,10,-1
 738 645 l 1,11,-1
 738 89 l 1,12,-1
 640 89 l 1,13,-1
 640 321 l 1,14,-1
 547 321 l 1,15,-1
 547 89 l 1,16,-1
 455 89 l 1,17,18
 454 147 454 147 452.5 263 c 128,-1,19
 451 379 451 379 451 437 c 1,20,-1
 437 466 l 2,21,22
 396 550 396 550 299 550 c 0,23,24
 203 550 203 550 162 466 c 2,25,-1
 147 437 l 1,26,-1
 146 263 l 1,27,-1
 144 89 l 1,28,-1
 52 89 l 1,29,-1
 52 260 l 2,30,31
 52 404 52 404 57 444 c 128,-1,32
 62 484 62 484 84 521 c 0,33,34
 140 612 140 612 233 638 c 0,0,1
EndSplineSet
Validated: 1
EndChar

StartChar: uni01CB
Encoding: 459 459 100
Width: 788
Flags: W
LayerCount: 2
Fore
SplineSet
233 638 m 0,0,1
 255 644 255 644 289 644 c 0,2,3
 351 644 351 644 388 630 c 0,4,5
 446 608 446 608 489 556.5 c 128,-1,6
 532 505 532 505 543 445 c 2,7,-1
 549 413 l 1,8,-1
 640 413 l 1,9,-1
 640 645 l 1,10,-1
 738 645 l 1,11,-1
 738 89 l 1,12,-1
 640 89 l 1,13,-1
 640 321 l 1,14,-1
 547 321 l 1,15,-1
 547 89 l 1,16,-1
 455 89 l 1,17,18
 454 147 454 147 452.5 263 c 128,-1,19
 451 379 451 379 451 437 c 1,20,-1
 437 466 l 2,21,22
 396 550 396 550 299 550 c 0,23,24
 203 550 203 550 162 466 c 2,25,-1
 147 437 l 1,26,-1
 146 263 l 1,27,-1
 144 89 l 1,28,-1
 52 89 l 1,29,-1
 52 260 l 2,30,31
 52 404 52 404 57 444 c 128,-1,32
 62 484 62 484 84 521 c 0,33,34
 140 612 140 612 233 638 c 0,0,1
EndSplineSet
Validated: 1
EndChar

StartChar: uni01CC
Encoding: 460 460 101
Width: 788
Flags: W
LayerCount: 2
Fore
SplineSet
233 638 m 0,0,1
 255 644 255 644 289 644 c 0,2,3
 351 644 351 644 388 630 c 0,4,5
 446 608 446 608 489 556.5 c 128,-1,6
 532 505 532 505 543 445 c 2,7,-1
 549 413 l 1,8,-1
 640 413 l 1,9,-1
 640 645 l 1,10,-1
 738 645 l 1,11,-1
 738 89 l 1,12,-1
 640 89 l 1,13,-1
 640 321 l 1,14,-1
 547 321 l 1,15,-1
 547 89 l 1,16,-1
 455 89 l 1,17,18
 454 147 454 147 452.5 263 c 128,-1,19
 451 379 451 379 451 437 c 1,20,-1
 437 466 l 2,21,22
 396 550 396 550 299 550 c 0,23,24
 203 550 203 550 162 466 c 2,25,-1
 147 437 l 1,26,-1
 146 263 l 1,27,-1
 144 89 l 1,28,-1
 52 89 l 1,29,-1
 52 260 l 2,30,31
 52 404 52 404 57 444 c 128,-1,32
 62 484 62 484 84 521 c 0,33,34
 140 612 140 612 233 638 c 0,0,1
EndSplineSet
Validated: 1
EndChar

StartChar: uni0272
Encoding: 626 626 102
Width: 788
Flags: W
LayerCount: 2
Fore
SplineSet
233 638 m 0,0,1
 255 644 255 644 289 644 c 0,2,3
 351 644 351 644 388 630 c 0,4,5
 446 608 446 608 489 556.5 c 128,-1,6
 532 505 532 505 543 445 c 2,7,-1
 549 413 l 1,8,-1
 640 413 l 1,9,-1
 640 645 l 1,10,-1
 738 645 l 1,11,-1
 738 89 l 1,12,-1
 640 89 l 1,13,-1
 640 321 l 1,14,-1
 547 321 l 1,15,-1
 547 89 l 1,16,-1
 455 89 l 1,17,18
 454 147 454 147 452.5 263 c 128,-1,19
 451 379 451 379 451 437 c 1,20,-1
 437 466 l 2,21,22
 396 550 396 550 299 550 c 0,23,24
 203 550 203 550 162 466 c 2,25,-1
 147 437 l 1,26,-1
 146 263 l 1,27,-1
 144 89 l 1,28,-1
 52 89 l 1,29,-1
 52 260 l 2,30,31
 52 404 52 404 57 444 c 128,-1,32
 62 484 62 484 84 521 c 0,33,34
 140 612 140 612 233 638 c 0,0,1
EndSplineSet
Validated: 1
EndChar

StartChar: uni0273
Encoding: 627 627 103
Width: 788
Flags: W
LayerCount: 2
Fore
SplineSet
233 638 m 0,0,1
 255 644 255 644 289 644 c 0,2,3
 351 644 351 644 388 630 c 0,4,5
 446 608 446 608 489 556.5 c 128,-1,6
 532 505 532 505 543 445 c 2,7,-1
 549 413 l 1,8,-1
 640 413 l 1,9,-1
 640 645 l 1,10,-1
 738 645 l 1,11,-1
 738 89 l 1,12,-1
 640 89 l 1,13,-1
 640 321 l 1,14,-1
 547 321 l 1,15,-1
 547 89 l 1,16,-1
 455 89 l 1,17,18
 454 147 454 147 452.5 263 c 128,-1,19
 451 379 451 379 451 437 c 1,20,-1
 437 466 l 2,21,22
 396 550 396 550 299 550 c 0,23,24
 203 550 203 550 162 466 c 2,25,-1
 147 437 l 1,26,-1
 146 263 l 1,27,-1
 144 89 l 1,28,-1
 52 89 l 1,29,-1
 52 260 l 2,30,31
 52 404 52 404 57 444 c 128,-1,32
 62 484 62 484 84 521 c 0,33,34
 140 612 140 612 233 638 c 0,0,1
EndSplineSet
Validated: 1
EndChar

StartChar: uni0274
Encoding: 628 628 104
Width: 1046
Flags: W
LayerCount: 2
Fore
SplineSet
233 642 m 0,0,1
 263 650 263 650 342 650 c 2,2,-1
 423 651 l 1,3,-1
 423 560 l 2,4,5
 423 470 423 470 427 470 c 0,6,7
 429 470 429 470 520 559 c 2,8,-1
 609 648 l 1,9,10
 640 615 640 615 673 584 c 1,11,12
 602 514 602 514 462 372 c 1,13,-1
 547 287 l 2,14,15
 634 200 634 200 646 194 c 0,16,17
 660 187 660 187 742 187 c 0,18,19
 813 187 813 187 842.5 193 c 128,-1,20
 872 199 872 199 900 220 c 0,21,22
 919 234 919 234 926 234 c 0,23,24
 938 234 938 234 967 202 c 2,25,-1
 992 175 l 1,26,-1
 972 157 l 2,27,28
 953 140 953 140 921.5 124 c 128,-1,29
 890 108 890 108 864 101 c 0,30,31
 839 94 839 94 738 94 c 2,32,-1
 724 94 l 2,33,34
 683 94 683 94 664 96 c 128,-1,35
 645 98 645 98 627 100.5 c 128,-1,36
 609 103 609 103 590 118 c 128,-1,37
 571 133 571 133 556 146.5 c 128,-1,38
 541 160 541 160 503 197 c 2,39,-1
 423 276 l 1,40,-1
 423 94 l 1,41,-1
 330 94 l 1,42,-1
 330 552 l 1,43,-1
 312 556 l 2,44,45
 307 557 307 557 297 557 c 0,46,47
 265 557 265 557 230 539 c 128,-1,48
 195 521 195 521 176 495 c 0,49,50
 154 465 154 465 149.5 429.5 c 128,-1,51
 145 394 145 394 145 258 c 2,52,-1
 145 94 l 1,53,-1
 52 94 l 1,54,-1
 52 265 l 2,55,56
 52 409 52 409 57 449.5 c 128,-1,57
 62 490 62 490 84 526 c 0,58,59
 139 617 139 617 233 642 c 0,0,1
EndSplineSet
Validated: 1
EndChar

StartChar: uni029F
Encoding: 671 671 105
Width: 606
Flags: W
LayerCount: 2
Fore
SplineSet
371 616 m 0,0,1
 518 655 518 655 524 655 c 2,2,-1
 525 655 l 2,3,4
 531 655 531 655 536 643.5 c 128,-1,5
 541 632 541 632 545 612.5 c 128,-1,6
 549 593 549 593 549 592 c 0,7,8
 555 571 555 571 550 568 c 0,9,10
 547 565 547 565 424 532 c 0,11,12
 305 500 305 500 305 495 c 0,13,14
 305 492 305 492 360.5 459.5 c 128,-1,15
 416 427 416 427 472 396 c 2,16,-1
 528 364 l 2,17,18
 530 363 530 363 507 324 c 128,-1,19
 484 285 484 285 481 285 c 128,-1,20
 478 285 478 285 432 311 c 128,-1,21
 386 337 386 337 338 364.5 c 128,-1,22
 290 392 290 392 284 394 c 0,23,24
 276 397 276 397 216 431 c 0,25,26
 64 517 64 517 64 525 c 0,27,28
 64 527 64 527 65 527 c 0,29,30
 74 531 74 531 147 551 c 0,31,32
 220 569 220 569 224 573 c 0,33,34
 227 576 227 576 371 616 c 0,0,1
97 381 m 0,35,36
 101 385 101 385 102 385 c 0,37,38
 107 385 107 385 214 323 c 0,39,40
 310 268 310 268 317 266 c 0,41,42
 322 264 322 264 396.5 223 c 128,-1,43
 471 182 471 182 471 179 c 0,44,45
 447 100 447 100 427 100 c 0,46,47
 414 100 414 100 185 231 c 0,48,49
 60 303 60 303 55 308 c 0,50,51
 54 309 54 309 72 340.5 c 128,-1,52
 90 372 90 372 97 381 c 0,35,36
EndSplineSet
Validated: 33
EndChar

StartChar: uni028E
Encoding: 654 654 106
Width: 598
Flags: W
LayerCount: 2
Fore
SplineSet
53 634 m 2,0,-1
 53 651 l 1,1,-1
 145 651 l 1,2,-1
 148 626 l 2,3,4
 159 552 159 552 229 513 c 0,5,6
 247 503 247 503 259 500.5 c 128,-1,7
 271 498 271 498 300 498 c 0,8,9
 344 498 344 498 372 513 c 0,10,11
 441 551 441 551 452 626 c 2,12,-1
 456 651 l 1,13,-1
 548 651 l 1,14,-1
 548 94 l 1,15,-1
 457 94 l 1,16,-1
 451 124 l 2,17,18
 439 180 439 180 396 214 c 128,-1,19
 353 248 353 248 299 248 c 0,20,21
 250 248 250 248 208 218 c 0,22,23
 163 184 163 184 150 124 c 2,24,-1
 144 94 l 1,25,-1
 53 94 l 1,26,-1
 53 111 l 2,27,28
 53 164 53 164 85 216 c 0,29,30
 113 262 113 262 156 294 c 128,-1,31
 199 326 199 326 248 337 c 0,32,33
 268 341 268 341 294 341 c 0,34,35
 376 341 376 341 435 303 c 2,36,-1
 455 290 l 1,37,-1
 455 455 l 1,38,-1
 431 439 l 2,39,40
 374 403 374 403 299 403 c 0,41,42
 234 403 234 403 182 431 c 0,43,44
 156 445 156 445 126.5 475 c 128,-1,45
 97 505 97 505 83 530 c 0,46,47
 71 551 71 551 62 583 c 128,-1,48
 53 615 53 615 53 634 c 2,0,-1
EndSplineSet
Validated: 1
EndChar

StartChar: uni026D
Encoding: 621 621 107
Width: 598
Flags: W
LayerCount: 2
Fore
SplineSet
53 634 m 2,0,-1
 53 651 l 1,1,-1
 145 651 l 1,2,-1
 148 626 l 2,3,4
 159 552 159 552 229 513 c 0,5,6
 247 503 247 503 259 500.5 c 128,-1,7
 271 498 271 498 300 498 c 0,8,9
 344 498 344 498 372 513 c 0,10,11
 441 551 441 551 452 626 c 2,12,-1
 456 651 l 1,13,-1
 548 651 l 1,14,-1
 548 94 l 1,15,-1
 457 94 l 1,16,-1
 451 124 l 2,17,18
 439 180 439 180 396 214 c 128,-1,19
 353 248 353 248 299 248 c 0,20,21
 250 248 250 248 208 218 c 0,22,23
 163 184 163 184 150 124 c 2,24,-1
 144 94 l 1,25,-1
 53 94 l 1,26,-1
 53 111 l 2,27,28
 53 164 53 164 85 216 c 0,29,30
 113 262 113 262 156 294 c 128,-1,31
 199 326 199 326 248 337 c 0,32,33
 268 341 268 341 294 341 c 0,34,35
 376 341 376 341 435 303 c 2,36,-1
 455 290 l 1,37,-1
 455 455 l 1,38,-1
 431 439 l 2,39,40
 374 403 374 403 299 403 c 0,41,42
 234 403 234 403 182 431 c 0,43,44
 156 445 156 445 126.5 475 c 128,-1,45
 97 505 97 505 83 530 c 0,46,47
 71 551 71 551 62 583 c 128,-1,48
 53 615 53 615 53 634 c 2,0,-1
EndSplineSet
Validated: 1
EndChar

StartChar: Obreve
Encoding: 334 334 108
Width: 664
Flags: W
LayerCount: 2
Fore
SplineSet
178 853 m 2,0,-1
 178 867 l 1,1,-1
 270 867 l 1,2,-1
 274 852 l 2,3,4
 278 835 278 835 296 820 c 128,-1,5
 314 805 314 805 333 805 c 128,-1,6
 352 805 352 805 367.5 817.5 c 128,-1,7
 383 830 383 830 387 849 c 2,8,-1
 390 867 l 1,9,-1
 484 867 l 1,10,-1
 482 844 l 2,11,12
 478 806 478 806 449 769 c 128,-1,13
 420 732 420 732 387 721 c 0,14,15
 366 713 366 713 332 713 c 0,16,17
 299 713 299 713 278 721 c 0,18,19
 241 734 241 734 209.5 775 c 128,-1,20
 178 816 178 816 178 853 c 2,0,-1
381 551 m 0,21,22
 355 557 355 557 332 557 c 0,23,24
 274 557 274 557 231 527 c 0,25,26
 148 471 148 471 148 372 c 0,27,28
 148 320 148 320 176 274.5 c 128,-1,29
 204 229 204 229 255 203 c 0,30,31
 284 189 284 189 333 189 c 128,-1,32
 382 189 382 189 411 203 c 0,33,34
 461 227 461 227 489 272 c 128,-1,35
 517 317 517 317 517 370 c 0,36,37
 517 402 517 402 509 427 c 0,38,39
 495 473 495 473 460 507 c 128,-1,40
 425 541 425 541 381 551 c 0,21,22
87 503 m 0,41,42
 121 568 121 568 188 609 c 128,-1,43
 255 650 255 650 334 650 c 0,44,45
 401 650 401 650 463 619 c 0,46,47
 494 603 494 603 528.5 569 c 128,-1,48
 563 535 563 535 579 503 c 0,49,50
 612 440 612 440 612 373 c 0,51,52
 612 259 612 259 529 176 c 0,53,54
 447 94 447 94 333 94 c 128,-1,55
 219 94 219 94 137 176 c 0,56,57
 54 259 54 259 54 373 c 0,58,59
 54 440 54 440 87 503 c 0,41,42
EndSplineSet
Validated: 1
Ligature2: "'rlig' Required Ligatures lookup 0-1" O X
Ligature2: "'rlig' Required Ligatures lookup 0-1" O x
EndChar

StartChar: obreve
Encoding: 335 335 109
Width: 664
Flags: W
LayerCount: 2
Fore
SplineSet
178 853 m 2,0,-1
 178 867 l 1,1,-1
 270 867 l 1,2,-1
 274 852 l 2,3,4
 278 835 278 835 296 820 c 128,-1,5
 314 805 314 805 333 805 c 128,-1,6
 352 805 352 805 367.5 817.5 c 128,-1,7
 383 830 383 830 387 849 c 2,8,-1
 390 867 l 1,9,-1
 484 867 l 1,10,-1
 482 844 l 2,11,12
 478 806 478 806 449 769 c 128,-1,13
 420 732 420 732 387 721 c 0,14,15
 366 713 366 713 332 713 c 0,16,17
 299 713 299 713 278 721 c 0,18,19
 241 734 241 734 209.5 775 c 128,-1,20
 178 816 178 816 178 853 c 2,0,-1
381 551 m 0,21,22
 355 557 355 557 332 557 c 0,23,24
 274 557 274 557 231 527 c 0,25,26
 148 471 148 471 148 372 c 0,27,28
 148 320 148 320 176 274.5 c 128,-1,29
 204 229 204 229 255 203 c 0,30,31
 284 189 284 189 333 189 c 128,-1,32
 382 189 382 189 411 203 c 0,33,34
 461 227 461 227 489 272 c 128,-1,35
 517 317 517 317 517 370 c 0,36,37
 517 402 517 402 509 427 c 0,38,39
 495 473 495 473 460 507 c 128,-1,40
 425 541 425 541 381 551 c 0,21,22
87 503 m 0,41,42
 121 568 121 568 188 609 c 128,-1,43
 255 650 255 650 334 650 c 0,44,45
 401 650 401 650 463 619 c 0,46,47
 494 603 494 603 528.5 569 c 128,-1,48
 563 535 563 535 579 503 c 0,49,50
 612 440 612 440 612 373 c 0,51,52
 612 259 612 259 529 176 c 0,53,54
 447 94 447 94 333 94 c 128,-1,55
 219 94 219 94 137 176 c 0,56,57
 54 259 54 259 54 373 c 0,58,59
 54 440 54 440 87 503 c 0,41,42
EndSplineSet
Validated: 1
Ligature2: "'rlig' Required Ligatures lookup 0-1" o x
EndChar

StartChar: hyphen
Encoding: 45 45 110
Width: 314
Flags: W
LayerCount: 2
Fore
SplineSet
51 310 m 1,0,-1
 51 398 l 1,1,-1
 262 398 l 1,2,-1
 262 310 l 1,3,-1
 51 310 l 1,0,-1
EndSplineSet
EndChar

StartChar: uni0280
Encoding: 640 640 111
Width: 305
Flags: W
LayerCount: 2
Fore
SplineSet
55 514 m 1,0,-1
 186 645 l 1,1,2
 220 612 220 612 253 578 c 1,3,4
 211 536 211 536 190 514 c 1,5,6
 220 481 220 481 252 449 c 1,7,8
 230 426 230 426 186 382 c 1,9,10
 143 426 143 426 55 514 c 1,0,-1
55 220 m 1,11,12
 98 264 98 264 186 352 c 1,13,-1
 253 285 l 1,14,15
 223 257 223 257 190 220 c 1,16,17
 222 188 222 188 252 155 c 1,18,-1
 186 89 l 1,19,-1
 55 220 l 1,11,12
EndSplineSet
Validated: 1
EndChar

StartChar: uni02A2
Encoding: 674 674 112
Width: 617
Flags: W
LayerCount: 2
Fore
SplineSet
56 519 m 1,0,1
 99 563 99 563 187 651 c 1,2,3
 220 617 220 617 254 584 c 1,4,5
 232 563 232 563 190 519 c 1,6,7
 200 508 200 508 221 486.5 c 128,-1,8
 242 465 242 465 253 454 c 1,9,-1
 187 388 l 1,10,11
 121 453 121 453 56 519 c 1,0,1
55 225 m 1,12,-1
 187 357 l 1,13,14
 220 323 220 323 254 290 c 1,15,-1
 224 260 l 2,16,17
 195 231 195 231 195 224 c 0,18,19
 195 219 195 219 213 203 c 2,20,-1
 231 187 l 1,21,-1
 314 187 l 2,22,23
 383 187 383 187 415 194 c 128,-1,24
 447 201 447 201 474 223 c 0,25,26
 495 238 495 238 498 238 c 0,27,28
 502 238 502 238 533 207 c 2,29,-1
 563 175 l 1,30,-1
 540 155 l 2,31,32
 521 139 521 139 491 122 c 0,33,34
 456 104 456 104 423.5 99 c 128,-1,35
 391 94 391 94 315 94 c 0,36,37
 221 94 221 94 195 103.5 c 128,-1,38
 169 113 169 113 113 168 c 2,39,-1
 55 225 l 1,12,-1
EndSplineSet
Validated: 1
EndChar

StartChar: Ubreve
Encoding: 364 364 113
Width: 744
Flags: W
LayerCount: 2
Fore
SplineSet
216 851 m 2,0,-1
 216 867 l 1,1,-1
 308 867 l 1,2,-1
 312 852 l 2,3,4
 316 835 316 835 334 820 c 128,-1,5
 352 805 352 805 371 805 c 128,-1,6
 390 805 390 805 408 820 c 128,-1,7
 426 835 426 835 430 852 c 2,8,-1
 434 867 l 1,9,-1
 526 867 l 1,10,-1
 526 853 l 2,11,12
 526 816 526 816 495 775 c 128,-1,13
 464 734 464 734 426 721 c 0,14,15
 399 712 399 712 372 712 c 0,16,17
 310 712 310 712 272 752 c 0,18,19
 251 774 251 774 234 804 c 128,-1,20
 217 834 217 834 216 851 c 2,0,-1
214 649 m 0,21,22
 230 660 230 660 234 661 c 0,23,24
 237 661 237 661 254.5 632.5 c 128,-1,25
 272 604 272 604 282 583 c 0,26,27
 283 582 283 582 280 580 c 128,-1,28
 277 578 277 578 272 575 c 0,29,30
 243 562 243 562 210 520 c 128,-1,31
 177 478 177 478 161 434 c 0,32,33
 144 388 144 388 144 302 c 0,34,35
 144 269 144 269 149 252 c 0,36,37
 159 222 159 222 183.5 204 c 128,-1,38
 208 186 208 186 237 186 c 0,39,40
 255 186 255 186 277 196 c 0,41,42
 308 212 308 212 319 237.5 c 128,-1,43
 330 263 330 263 330 318 c 2,44,-1
 330 372 l 1,45,-1
 423 372 l 1,46,-1
 423 318 l 2,47,48
 423 241 423 241 447 216 c 0,49,50
 473 187 473 187 517 187 c 0,51,52
 538 187 538 187 556 196 c 0,53,54
 584 210 584 210 593.5 228.5 c 128,-1,55
 603 247 603 247 603 288 c 0,56,57
 603 314 603 314 602 331 c 0,58,59
 598 403 598 403 584.5 441 c 128,-1,60
 571 479 571 479 533 524 c 0,61,62
 530 528 530 528 512.5 542 c 128,-1,63
 495 556 495 556 480 568 c 128,-1,64
 465 580 465 580 465 581 c 0,65,66
 465 583 465 583 485 618.5 c 128,-1,67
 505 654 505 654 509 660 c 0,68,69
 509 661 509 661 511 661 c 0,70,71
 525 661 525 661 579 610 c 0,72,73
 648 544 648 544 678 457 c 0,74,75
 688 429 688 429 690 410.5 c 128,-1,76
 692 392 692 392 693 326 c 0,77,78
 693 263 693 263 691 244 c 128,-1,79
 689 225 689 225 680 202 c 0,80,81
 661 154 661 154 619.5 125.5 c 128,-1,82
 578 97 578 97 523 95 c 2,83,-1
 513 95 l 2,84,85
 448 95 448 95 401 133 c 0,86,87
 381 151 381 151 376 151 c 128,-1,88
 371 151 371 151 351 133 c 0,89,90
 306 94 306 94 236 94 c 0,91,92
 193 94 193 94 160 110 c 0,93,94
 132 124 132 124 106.5 149 c 128,-1,95
 81 174 81 174 68 201 c 0,96,97
 58 222 58 222 56 239.5 c 128,-1,98
 54 257 54 257 54 323 c 0,99,100
 55 391 55 391 56.5 409.5 c 128,-1,101
 58 428 58 428 68 457 c 0,102,103
 80 492 80 492 106 535 c 0,104,105
 123 561 123 561 156 596.5 c 128,-1,106
 189 632 189 632 214 649 c 0,21,22
EndSplineSet
Validated: 1
Ligature2: "'rlig' Required Ligatures lookup 0-1" U x
Ligature2: "'rlig' Required Ligatures lookup 0-1" U X
EndChar

StartChar: ubreve
Encoding: 365 365 114
Width: 744
Flags: W
LayerCount: 2
Fore
SplineSet
216 851 m 2,0,-1
 216 867 l 1,1,-1
 308 867 l 1,2,-1
 312 852 l 2,3,4
 316 835 316 835 334 820 c 128,-1,5
 352 805 352 805 371 805 c 128,-1,6
 390 805 390 805 408 820 c 128,-1,7
 426 835 426 835 430 852 c 2,8,-1
 434 867 l 1,9,-1
 526 867 l 1,10,-1
 526 853 l 2,11,12
 526 816 526 816 495 775 c 128,-1,13
 464 734 464 734 426 721 c 0,14,15
 399 712 399 712 372 712 c 0,16,17
 310 712 310 712 272 752 c 0,18,19
 251 774 251 774 234 804 c 128,-1,20
 217 834 217 834 216 851 c 2,0,-1
214 649 m 0,21,22
 230 660 230 660 234 661 c 0,23,24
 237 661 237 661 254.5 632.5 c 128,-1,25
 272 604 272 604 282 583 c 0,26,27
 283 582 283 582 280 580 c 128,-1,28
 277 578 277 578 272 575 c 0,29,30
 243 562 243 562 210 520 c 128,-1,31
 177 478 177 478 161 434 c 0,32,33
 144 388 144 388 144 302 c 0,34,35
 144 269 144 269 149 252 c 0,36,37
 159 222 159 222 183.5 204 c 128,-1,38
 208 186 208 186 237 186 c 0,39,40
 255 186 255 186 277 196 c 0,41,42
 308 212 308 212 319 237.5 c 128,-1,43
 330 263 330 263 330 318 c 2,44,-1
 330 372 l 1,45,-1
 423 372 l 1,46,-1
 423 318 l 2,47,48
 423 241 423 241 447 216 c 0,49,50
 473 187 473 187 517 187 c 0,51,52
 538 187 538 187 556 196 c 0,53,54
 584 210 584 210 593.5 228.5 c 128,-1,55
 603 247 603 247 603 288 c 0,56,57
 603 314 603 314 602 331 c 0,58,59
 598 403 598 403 584.5 441 c 128,-1,60
 571 479 571 479 533 524 c 0,61,62
 530 528 530 528 512.5 542 c 128,-1,63
 495 556 495 556 480 568 c 128,-1,64
 465 580 465 580 465 581 c 0,65,66
 465 583 465 583 485 618.5 c 128,-1,67
 505 654 505 654 509 660 c 0,68,69
 509 661 509 661 511 661 c 0,70,71
 525 661 525 661 579 610 c 0,72,73
 648 544 648 544 678 457 c 0,74,75
 688 429 688 429 690 410.5 c 128,-1,76
 692 392 692 392 693 326 c 0,77,78
 693 263 693 263 691 244 c 128,-1,79
 689 225 689 225 680 202 c 0,80,81
 661 154 661 154 619.5 125.5 c 128,-1,82
 578 97 578 97 523 95 c 2,83,-1
 513 95 l 2,84,85
 448 95 448 95 401 133 c 0,86,87
 381 151 381 151 376 151 c 128,-1,88
 371 151 371 151 351 133 c 0,89,90
 306 94 306 94 236 94 c 0,91,92
 193 94 193 94 160 110 c 0,93,94
 132 124 132 124 106.5 149 c 128,-1,95
 81 174 81 174 68 201 c 0,96,97
 58 222 58 222 56 239.5 c 128,-1,98
 54 257 54 257 54 323 c 0,99,100
 55 391 55 391 56.5 409.5 c 128,-1,101
 58 428 58 428 68 457 c 0,102,103
 80 492 80 492 106 535 c 0,104,105
 123 561 123 561 156 596.5 c 128,-1,106
 189 632 189 632 214 649 c 0,21,22
EndSplineSet
Validated: 1
Ligature2: "'rlig' Required Ligatures lookup 0-1" u x
EndChar

StartChar: Scircumflex
Encoding: 348 348 115
Width: 781
Flags: W
LayerCount: 2
Fore
SplineSet
51 94 m 1,0,-1
 51 651 l 1,1,-1
 144 651 l 1,2,-1
 144 187 l 1,3,-1
 453 187 l 1,4,-1
 453 651 l 1,5,-1
 546 651 l 1,6,-1
 546 419 l 1,7,-1
 639 419 l 1,8,-1
 639 651 l 1,9,-1
 731 651 l 1,10,-1
 731 175 l 2,11,12
 731 -96 731 -96 739 -121 c 0,13,14
 755 -172 755 -172 780 -197 c 0,15,16
 781 -198 781 -198 781 -200 c 0,17,18
 781 -207.125 781 -207.125 753 -236 c 2,19,-1
 721 -269 l 1,20,-1
 700 -246 l 2,21,22
 681 -225 681 -225 666 -194.5 c 0,23,24
 650 -162 650 -162 644 -133 c 0,25,26
 639 -109 639 -109 639 111 c 2,27,-1
 639 326 l 1,28,-1
 546 326 l 1,29,-1
 546 94 l 1,30,-1
 51 94 l 1,0,-1
EndSplineSet
Validated: 1
LCarets2: 1 0
Ligature2: "'rlig' Required Ligatures lookup 0-1" S J
Ligature2: "'rlig' Required Ligatures lookup 0-1" S j
Ligature2: "'rlig' Required Ligatures lookup 0-1" S X
Ligature2: "'rlig' Required Ligatures lookup 0-1" S x
Ligature2: "'rlig' Required Ligatures lookup 0-1" S h
Ligature2: "'rlig' Required Ligatures lookup 0-1" S H
EndChar

StartChar: scircumflex
Encoding: 349 349 116
Width: 781
Flags: W
LayerCount: 2
Fore
SplineSet
51 94 m 1,0,-1
 51 651 l 1,1,-1
 144 651 l 1,2,-1
 144 187 l 1,3,-1
 453 187 l 1,4,-1
 453 651 l 1,5,-1
 546 651 l 1,6,-1
 546 419 l 1,7,-1
 639 419 l 1,8,-1
 639 651 l 1,9,-1
 731 651 l 1,10,-1
 731 175 l 2,11,12
 731 -96 731 -96 739 -121 c 0,13,14
 755 -172 755 -172 780 -197 c 0,15,16
 781 -198 781 -198 781 -200 c 0,17,18
 781 -207.125 781 -207.125 753 -236 c 2,19,-1
 721 -269 l 1,20,-1
 700 -246 l 2,21,22
 681 -225 681 -225 666 -194.5 c 0,23,24
 650 -162 650 -162 644 -133 c 0,25,26
 639 -109 639 -109 639 111 c 2,27,-1
 639 326 l 1,28,-1
 546 326 l 1,29,-1
 546 94 l 1,30,-1
 51 94 l 1,0,-1
EndSplineSet
Validated: 1
Ligature2: "'rlig' Required Ligatures lookup 0-1" s j
Ligature2: "'rlig' Required Ligatures lookup 0-1" s x
Ligature2: "'rlig' Required Ligatures lookup 0-1" s h
EndChar

StartChar: uni01B7
Encoding: 439 439 117
Width: 781
Flags: W
LayerCount: 2
Fore
SplineSet
51 94 m 1,0,-1
 51 651 l 1,1,-1
 144 651 l 1,2,-1
 144 187 l 1,3,-1
 453 187 l 1,4,-1
 453 651 l 1,5,-1
 546 651 l 1,6,-1
 546 419 l 1,7,-1
 639 419 l 1,8,-1
 639 651 l 1,9,-1
 731 651 l 1,10,-1
 731 175 l 2,11,12
 731 -96 731 -96 739 -121 c 0,13,14
 755 -172 755 -172 780 -197 c 0,15,16
 781 -198 781 -198 781 -200 c 0,17,18
 781 -207.125 781 -207.125 753 -236 c 2,19,-1
 721 -269 l 1,20,-1
 700 -246 l 2,21,22
 681 -225 681 -225 666 -194.5 c 0,23,24
 650 -162 650 -162 644 -133 c 0,25,26
 639 -109 639 -109 639 111 c 2,27,-1
 639 326 l 1,28,-1
 546 326 l 1,29,-1
 546 94 l 1,30,-1
 51 94 l 1,0,-1
269 458 m 0,31,32
 279 464 279 464 298 464 c 0,33,34
 324 464 324 464 342 446.5 c 128,-1,35
 360 429 360 429 360 403 c 0,36,37
 359 376 359 376 340 359 c 128,-1,38
 321 342 321 342 296 342 c 0,39,40
 261 342 261 342 244 373 c 0,41,42
 237 387 237 387 237 400 c 0,43,44
 237 440 237 440 269 458 c 0,31,32
EndSplineSet
Validated: 1
EndChar

StartChar: uni0292
Encoding: 658 658 118
Width: 781
Flags: W
LayerCount: 2
Fore
SplineSet
51 94 m 1,0,-1
 51 651 l 1,1,-1
 144 651 l 1,2,-1
 144 187 l 1,3,-1
 453 187 l 1,4,-1
 453 651 l 1,5,-1
 546 651 l 1,6,-1
 546 419 l 1,7,-1
 639 419 l 1,8,-1
 639 651 l 1,9,-1
 731 651 l 1,10,-1
 731 175 l 2,11,12
 731 -96 731 -96 739 -121 c 0,13,14
 755 -172 755 -172 780 -197 c 0,15,16
 781 -198 781 -198 781 -200 c 0,17,18
 781 -207.125 781 -207.125 753 -236 c 2,19,-1
 721 -269 l 1,20,-1
 700 -246 l 2,21,22
 681 -225 681 -225 666 -194.5 c 0,23,24
 650 -162 650 -162 644 -133 c 0,25,26
 639 -109 639 -109 639 111 c 2,27,-1
 639 326 l 1,28,-1
 546 326 l 1,29,-1
 546 94 l 1,30,-1
 51 94 l 1,0,-1
269 458 m 0,31,32
 279 464 279 464 298 464 c 0,33,34
 324 464 324 464 342 446.5 c 128,-1,35
 360 429 360 429 360 403 c 0,36,37
 359 376 359 376 340 359 c 128,-1,38
 321 342 321 342 296 342 c 0,39,40
 261 342 261 342 244 373 c 0,41,42
 237 387 237 387 237 400 c 0,43,44
 237 440 237 440 269 458 c 0,31,32
EndSplineSet
Validated: 1
EndChar

StartChar: Jcircumflex
Encoding: 308 308 119
Width: 781
Flags: W
LayerCount: 2
Fore
SplineSet
51 94 m 1,0,-1
 51 651 l 1,1,-1
 144 651 l 1,2,-1
 144 187 l 1,3,-1
 453 187 l 1,4,-1
 453 651 l 1,5,-1
 546 651 l 1,6,-1
 546 419 l 1,7,-1
 639 419 l 1,8,-1
 639 651 l 1,9,-1
 731 651 l 1,10,-1
 731 175 l 2,11,12
 731 -96 731 -96 739 -121 c 0,13,14
 755 -172 755 -172 780 -197 c 0,15,16
 781 -198 781 -198 781 -200 c 0,17,18
 781 -207.125 781 -207.125 753 -236 c 2,19,-1
 721 -269 l 1,20,-1
 700 -246 l 2,21,22
 681 -225 681 -225 666 -194.5 c 0,23,24
 650 -162 650 -162 644 -133 c 0,25,26
 639 -109 639 -109 639 111 c 2,27,-1
 639 326 l 1,28,-1
 546 326 l 1,29,-1
 546 94 l 1,30,-1
 51 94 l 1,0,-1
269 458 m 0,31,32
 279 464 279 464 298 464 c 0,33,34
 324 464 324 464 342 446.5 c 128,-1,35
 360 429 360 429 360 403 c 0,36,37
 359 376 359 376 340 359 c 128,-1,38
 321 342 321 342 296 342 c 0,39,40
 261 342 261 342 244 373 c 0,41,42
 237 387 237 387 237 400 c 0,43,44
 237 440 237 440 269 458 c 0,31,32
EndSplineSet
Validated: 1
LCarets2: 1 0
Ligature2: "'rlig' Required Ligatures lookup 0-1" Z J
Ligature2: "'rlig' Required Ligatures lookup 0-1" Z j
Ligature2: "'rlig' Required Ligatures lookup 0-1" Z H
Ligature2: "'rlig' Required Ligatures lookup 0-1" Z h
Ligature2: "'rlig' Required Ligatures lookup 0-1" J X
Ligature2: "'rlig' Required Ligatures lookup 0-1" J x
Ligature2: "'rlig' Required Ligatures lookup 0-1" J H
Ligature2: "'rlig' Required Ligatures lookup 0-1" J h
EndChar

StartChar: uni019D
Encoding: 413 413 120
Width: 788
Flags: W
LayerCount: 2
Fore
SplineSet
233 638 m 0,0,1
 255 644 255 644 289 644 c 0,2,3
 351 644 351 644 388 630 c 0,4,5
 446 608 446 608 489 556.5 c 128,-1,6
 532 505 532 505 543 445 c 2,7,-1
 549 413 l 1,8,-1
 640 413 l 1,9,-1
 640 645 l 1,10,-1
 738 645 l 1,11,-1
 738 89 l 1,12,-1
 640 89 l 1,13,-1
 640 321 l 1,14,-1
 547 321 l 1,15,-1
 547 89 l 1,16,-1
 455 89 l 1,17,18
 454 147 454 147 452.5 263 c 128,-1,19
 451 379 451 379 451 437 c 1,20,-1
 437 466 l 2,21,22
 396 550 396 550 299 550 c 0,23,24
 203 550 203 550 162 466 c 2,25,-1
 147 437 l 1,26,-1
 146 263 l 1,27,-1
 144 89 l 1,28,-1
 52 89 l 1,29,-1
 52 260 l 2,30,31
 52 404 52 404 57 444 c 128,-1,32
 62 484 62 484 84 521 c 0,33,34
 140 612 140 612 233 638 c 0,0,1
EndSplineSet
Validated: 1
EndChar

StartChar: jcircumflex
Encoding: 309 309 121
Width: 781
Flags: W
LayerCount: 2
Fore
SplineSet
51 94 m 1,0,-1
 51 651 l 1,1,-1
 144 651 l 1,2,-1
 144 187 l 1,3,-1
 453 187 l 1,4,-1
 453 651 l 1,5,-1
 546 651 l 1,6,-1
 546 419 l 1,7,-1
 639 419 l 1,8,-1
 639 651 l 1,9,-1
 731 651 l 1,10,-1
 731 175 l 2,11,12
 731 -96 731 -96 739 -121 c 0,13,14
 755 -172 755 -172 780 -197 c 0,15,16
 781 -198 781 -198 781 -200 c 0,17,18
 781 -207.125 781 -207.125 753 -236 c 2,19,-1
 721 -269 l 1,20,-1
 700 -246 l 2,21,22
 681 -225 681 -225 666 -194.5 c 0,23,24
 650 -162 650 -162 644 -133 c 0,25,26
 639 -109 639 -109 639 111 c 2,27,-1
 639 326 l 1,28,-1
 546 326 l 1,29,-1
 546 94 l 1,30,-1
 51 94 l 1,0,-1
269 458 m 0,31,32
 279 464 279 464 298 464 c 0,33,34
 324 464 324 464 342 446.5 c 128,-1,35
 360 429 360 429 360 403 c 0,36,37
 359 376 359 376 340 359 c 128,-1,38
 321 342 321 342 296 342 c 0,39,40
 261 342 261 342 244 373 c 0,41,42
 237 387 237 387 237 400 c 0,43,44
 237 440 237 440 269 458 c 0,31,32
EndSplineSet
Validated: 1
Ligature2: "'rlig' Required Ligatures lookup 0-1" z j
Ligature2: "'rlig' Required Ligatures lookup 0-1" z h
Ligature2: "'rlig' Required Ligatures lookup 0-1" j h
Ligature2: "'rlig' Required Ligatures lookup 0-1" j x
EndChar

StartChar: theta
Encoding: 952 952 122
Width: 598
Flags: W
LayerCount: 2
Fore
SplineSet
51 89 m 1,0,-1
 51 645 l 1,1,-1
 137 645 l 1,2,-1
 140 552 l 2,3,4
 144 450 144 450 144 320 c 2,5,-1
 144 181 l 1,6,-1
 448 181 l 1,7,-1
 448 645 l 1,8,-1
 541 645 l 1,9,-1
 541 89 l 1,10,-1
 51 89 l 1,0,-1
51 -97 m 1,11,-1
 51 -4 l 1,12,-1
 541 -4 l 1,13,-1
 541 -23 l 2,14,15
 541 -49 541 -49 544 -70 c 2,16,-1
 547 -97 l 1,17,-1
 51 -97 l 1,11,-1
EndSplineSet
Validated: 1
EndChar

StartChar: Theta
Encoding: 920 920 123
Width: 598
Flags: W
LayerCount: 2
Fore
SplineSet
51 89 m 1,0,-1
 51 645 l 1,1,-1
 137 645 l 1,2,-1
 140 552 l 2,3,4
 144 450 144 450 144 320 c 2,5,-1
 144 181 l 1,6,-1
 448 181 l 1,7,-1
 448 645 l 1,8,-1
 541 645 l 1,9,-1
 541 89 l 1,10,-1
 51 89 l 1,0,-1
51 -97 m 1,11,-1
 51 -4 l 1,12,-1
 541 -4 l 1,13,-1
 541 -23 l 2,14,15
 541 -49 541 -49 544 -70 c 2,16,-1
 547 -97 l 1,17,-1
 51 -97 l 1,11,-1
EndSplineSet
Validated: 1
EndChar

StartChar: thorn
Encoding: 254 254 124
Width: 598
Flags: W
LayerCount: 2
Fore
SplineSet
51 89 m 1,0,-1
 51 645 l 1,1,-1
 137 645 l 1,2,-1
 140 552 l 2,3,4
 144 450 144 450 144 320 c 2,5,-1
 144 181 l 1,6,-1
 448 181 l 1,7,-1
 448 645 l 1,8,-1
 541 645 l 1,9,-1
 541 89 l 1,10,-1
 51 89 l 1,0,-1
51 -97 m 1,11,-1
 51 -4 l 1,12,-1
 541 -4 l 1,13,-1
 541 -23 l 2,14,15
 541 -49 541 -49 544 -70 c 2,16,-1
 547 -97 l 1,17,-1
 51 -97 l 1,11,-1
EndSplineSet
Validated: 1
Ligature2: "'rlig' Required Ligatures lookup 0-1" t h
EndChar

StartChar: Thorn
Encoding: 222 222 125
Width: 598
Flags: W
LayerCount: 2
Fore
SplineSet
51 89 m 1,0,-1
 51 645 l 1,1,-1
 137 645 l 1,2,-1
 140 552 l 2,3,4
 144 450 144 450 144 320 c 2,5,-1
 144 181 l 1,6,-1
 448 181 l 1,7,-1
 448 645 l 1,8,-1
 541 645 l 1,9,-1
 541 89 l 1,10,-1
 51 89 l 1,0,-1
51 -97 m 1,11,-1
 51 -4 l 1,12,-1
 541 -4 l 1,13,-1
 541 -23 l 2,14,15
 541 -49 541 -49 544 -70 c 2,16,-1
 547 -97 l 1,17,-1
 51 -97 l 1,11,-1
EndSplineSet
Validated: 1
Ligature2: "'rlig' Required Ligatures lookup 0-1" T h
Ligature2: "'rlig' Required Ligatures lookup 0-1" T H
EndChar

StartChar: uni026C
Encoding: 620 620 126
Width: 599
Flags: W
LayerCount: 2
Fore
SplineSet
51 553 m 1,0,-1
 51 645 l 1,1,-1
 546 645 l 1,2,-1
 546 608 l 2,3,4
 546 513 546 513 488.5 433.5 c 128,-1,5
 431 354 431 354 337 320 c 0,6,7
 315 312 315 312 289.5 309.5 c 128,-1,8
 264 307 264 307 179 306 c 2,9,-1
 51 304 l 1,10,-1
 51 397 l 1,11,12
 91 398 91 398 171 399.5 c 128,-1,13
 251 401 251 401 291 401 c 1,14,-1
 327 418 l 2,15,16
 398 453 398 453 429 515 c 0,17,18
 443 543 443 543 443 547 c 0,19,20
 443 553 443 553 247 553 c 2,21,-1
 51 553 l 1,0,-1
466 253 m 2,22,-1
 487 269 l 2,23,24
 489 269 489 269 517 234 c 2,25,-1
 546 197 l 1,26,-1
 530 185 l 2,27,28
 514 171 514 171 478.5 151 c 128,-1,29
 443 131 443 131 417 121 c 0,30,31
 367 102 367 102 332.5 97 c 128,-1,32
 298 92 298 92 189 90 c 2,33,-1
 51 88 l 1,34,-1
 51 180 l 1,35,-1
 181 182 l 2,36,37
 287 184 287 184 323.5 190.5 c 128,-1,38
 360 197 360 197 409 220 c 0,39,40
 452 241 452 241 466 253 c 2,22,-1
EndSplineSet
Validated: 1
EndChar

StartChar: uni026E
Encoding: 622 622 127
Width: 1048
Flags: W
LayerCount: 2
Fore
SplineSet
290 589 m 0,0,1
 512 650 512 650 524 650 c 2,2,-1
 525 650 l 2,3,4
 531 650 531 650 536 638.5 c 128,-1,5
 541 627 541 627 545 607.5 c 128,-1,6
 549 588 549 588 549 587 c 0,7,8
 555 566 555 566 550 563 c 0,9,10
 547 560 547 560 424 527 c 0,11,12
 305 495 305 495 305 490 c 0,13,14
 305 487 305 487 360.5 454.5 c 128,-1,15
 416 422 416 422 472 390 c 2,16,-1
 528 359 l 2,17,18
 530 358 530 358 507 318.5 c 128,-1,19
 484 279 484 279 481 279 c 0,20,21
 480 279 480 279 316 373 c 0,22,23
 62 521 62 521 61 525 c 0,24,25
 63 527 63 527 290 589 c 0,0,1
97 381 m 0,26,27
 101 385 101 385 102 385 c 0,28,29
 107 385 107 385 214 323 c 0,30,31
 230 313 230 313 377 229 c 2,32,-1
 450 187 l 1,33,-1
 639 187 l 2,34,35
 774 187 774 187 805.5 188.5 c 128,-1,36
 837 190 837 190 857 197 c 0,37,38
 890 209 890 209 905 223 c 0,39,40
 926 238 926 238 929 238 c 0,41,42
 933 238 933 238 964 207 c 2,43,-1
 994 175 l 1,44,-1
 972 155 l 2,45,46
 953 139 953 139 923 122 c 0,47,48
 883 102 883 102 842 98 c 128,-1,49
 801 94 801 94 632 94 c 2,50,-1
 423 94 l 1,51,-1
 240 200 l 2,52,53
 59 304 59 304 55 308 c 0,54,55
 54 309 54 309 72 340.5 c 128,-1,56
 90 372 90 372 97 381 c 0,26,27
EndSplineSet
Validated: 33
EndChar

StartChar: Hcircumflex
Encoding: 292 292 128
Width: 600
Flags: W
LayerCount: 2
Fore
SplineSet
250 516 m 2,0,1
 445 666 445 666 448 666 c 0,2,3
 452 666 452 666 477.5 631 c 128,-1,4
 503 596 503 596 501 593 c 0,5,6
 213 375 213 375 213 368 c 0,7,8
 213 362 213 362 367 244 c 0,9,10
 473 163 473 163 500.5 139 c 128,-1,11
 528 115 528 115 537 97 c 2,12,-1
 550 71 l 1,13,-1
 550 18 l 2,14,15
 550 -32 550 -32 551.5 -67 c 128,-1,16
 553 -102 553 -102 560 -124 c 0,17,18
 571 -158 571 -158 586 -176 c 0,19,20
 602 -196 602 -196 602 -200 c 0,21,22
 602 -203 602 -203 570 -235 c 2,23,-1
 539 -266 l 1,24,-1
 519 -243 l 2,25,26
 465 -181 465 -181 463 -130 c 0,27,28
 460 -50 460 -50 456.5 11 c 0,29,30
 455 55 455 55 449 62 c 0,33,34
 446 66 446 66 408.5 95 c 128,-1,35
 371 124 371 124 317.5 165.5 c 128,-1,36
 264 207 264 207 213 245.5 c 128,-1,37
 162 284 162 284 121.5 315.5 c 128,-1,38
 81 347 81 347 80 347 c 2,39,-1
 55 366 l 1,40,-1
 250 516 l 2,0,1
EndSplineSet
Validated: 33
Ligature2: "'rlig' Required Ligatures lookup 0-1" K H
Ligature2: "'rlig' Required Ligatures lookup 0-1" K h
Ligature2: "'rlig' Required Ligatures lookup 0-1" H x
Ligature2: "'rlig' Required Ligatures lookup 0-1" H X
EndChar

StartChar: hcircumflex
Encoding: 293 293 129
Width: 600
Flags: W
LayerCount: 2
Fore
SplineSet
250 516 m 2,0,1
 445 666 445 666 448 666 c 0,2,3
 452 666 452 666 477.5 631 c 128,-1,4
 503 596 503 596 501 593 c 0,5,6
 213 375 213 375 213 368 c 0,7,8
 213 362 213 362 367 244 c 0,9,10
 473 163 473 163 500.5 139 c 128,-1,11
 528 115 528 115 537 97 c 2,12,-1
 550 71 l 1,13,-1
 550 18 l 2,14,15
 550 -32 550 -32 551.5 -67 c 128,-1,16
 553 -102 553 -102 560 -124 c 0,17,18
 571 -158 571 -158 586 -176 c 0,19,20
 602 -196 602 -196 602 -200 c 0,21,22
 602 -203 602 -203 570 -235 c 2,23,-1
 539 -266 l 1,24,-1
 519 -243 l 2,25,26
 465 -181 465 -181 463 -130 c 0,27,28
 460 -50 460 -50 456.5 11 c 0,29,30
 455 55 455 55 449 62 c 0,33,34
 446 66 446 66 408.5 95 c 128,-1,35
 371 124 371 124 317.5 165.5 c 128,-1,36
 264 207 264 207 213 245.5 c 128,-1,37
 162 284 162 284 121.5 315.5 c 128,-1,38
 81 347 81 347 80 347 c 2,39,-1
 55 366 l 1,40,-1
 250 516 l 2,0,1
EndSplineSet
Validated: 33
Ligature2: "'rlig' Required Ligatures lookup 0-1" h x
Ligature2: "'rlig' Required Ligatures lookup 0-1" k h
EndChar

StartChar: uni0283
Encoding: 643 643 130
Width: 781
Flags: W
LayerCount: 2
Fore
SplineSet
51 94 m 1,0,-1
 51 651 l 1,1,-1
 144 651 l 1,2,-1
 144 187 l 1,3,-1
 453 187 l 1,4,-1
 453 651 l 1,5,-1
 546 651 l 1,6,-1
 546 419 l 1,7,-1
 639 419 l 1,8,-1
 639 651 l 1,9,-1
 731 651 l 1,10,-1
 731 175 l 2,11,12
 731 -96 731 -96 739 -121 c 0,13,14
 755 -172 755 -172 780 -197 c 0,15,16
 781 -198 781 -198 781 -200 c 0,17,18
 781 -207.125 781 -207.125 753 -236 c 2,19,-1
 721 -269 l 1,20,-1
 700 -246 l 2,21,22
 681 -225 681 -225 666 -194.5 c 0,23,24
 650 -162 650 -162 644 -133 c 0,25,26
 639 -109 639 -109 639 111 c 2,27,-1
 639 326 l 1,28,-1
 546 326 l 1,29,-1
 546 94 l 1,30,-1
 51 94 l 1,0,-1
EndSplineSet
Validated: 1
EndChar

StartChar: uni02A6
Encoding: 678 678 131
Width: 600
Flags: W
LayerCount: 2
Fore
SplineSet
51 94 m 1,0,-1
 51 651 l 1,1,-1
 144 651 l 1,2,-1
 144 187 l 1,3,-1
 454 187 l 1,4,5
 453 265 453 265 450.5 419.5 c 128,-1,6
 448 574 448 574 446 651 c 1,7,-1
 541 651 l 1,8,-1
 541 512 l 2,9,10
 541 350 541 350 544 234 c 2,11,-1
 547 94 l 1,12,-1
 51 94 l 1,0,-1
51 -92 m 1,13,-1
 51 1 l 1,14,-1
 546 1 l 1,15,-1
 546 1 l 2,16,17
 546 -94 546 -94 552 -118 c 0,18,19
 564 -169 564 -169 595 -200 c 0,20,21
 596 -201 596 -201 596 -203 c 0,22,23
 596 -208.09375 596 -208.09375 567 -238 c 2,24,-1
 535 -271 l 1,25,-1
 515 -248 l 2,26,27
 494 -224 494 -224 481 -199 c 0,28,29
 462 -160 462 -160 457.5 -125.5 c 0,30,31
 453 -94 453 -94 453 -92 c 2,32,-1
 453 -92 l 1,33,-1
 51 -92 l 1,13,-1
EndSplineSet
Validated: 5
LCarets2: 1 0
Ligature2: "'rlig' Required Ligatures lookup 0-1" T S
Ligature2: "'rlig' Required Ligatures lookup 0-1" T s
Ligature2: "'rlig' Required Ligatures lookup 0-1" t s
EndChar

StartChar: uni02A4
Encoding: 676 676 132
Width: 783
Flags: W
LayerCount: 2
Fore
SplineSet
54 554 m 2,0,-1
 51 651 l 1,1,-1
 145 651 l 1,2,-1
 145 570 l 2,3,4
 145 502 145 502 149 338 c 2,5,-1
 152 187 l 1,6,-1
 455 187 l 1,7,-1
 455 651 l 1,8,-1
 547 651 l 1,9,-1
 547 419 l 1,10,-1
 640 419 l 1,11,-1
 640 651 l 1,12,-1
 733 651 l 1,13,-1
 733 94 l 1,14,-1
 640 94 l 1,15,-1
 640 326 l 1,16,-1
 547 326 l 1,17,-1
 547 94 l 1,18,-1
 58 94 l 1,19,-1
 58 276 l 2,20,21
 58 446 58 446 54 554 c 2,0,-1
270 458 m 0,22,23
 280 464 280 464 300 464 c 0,24,25
 326 464 326 464 344 446.5 c 128,-1,26
 362 429 362 429 362 403 c 0,27,28
 361 376 361 376 342 359 c 128,-1,29
 323 342 323 342 298 342 c 0,30,31
 262 342 262 342 245 373 c 0,32,33
 238 387 238 387 238 400 c 0,34,35
 238 440 238 440 270 458 c 0,22,23
EndSplineSet
Validated: 1
EndChar

StartChar: uni02A7
Encoding: 679 679 133
Width: 781
Flags: W
LayerCount: 2
Fore
SplineSet
669 647 m 2,0,1
 676 647 676 647 693 647.5 c 128,-1,2
 710 648 710 648 715 649 c 2,3,-1
 731 651 l 1,4,-1
 731 89 l 1,5,-1
 639 89 l 1,6,-1
 639 321 l 1,7,-1
 546 321 l 1,8,-1
 546 89 l 1,9,-1
 51 89 l 1,10,-1
 51 645 l 1,11,-1
 144 645 l 1,12,-1
 144 181 l 1,13,-1
 453 181 l 1,14,-1
 453 645 l 1,15,-1
 546 645 l 1,16,-1
 546 413 l 1,17,-1
 639 413 l 1,18,-1
 639 645 l 1,19,-1
 669 647 l 2,0,1
EndSplineSet
Validated: 1
EndChar

StartChar: uni0279
Encoding: 633 633 134
Width: 658
Flags: W
LayerCount: 2
Fore
SplineSet
327 346 m 1,0,1
 328 396 328 396 328 495.5 c 128,-1,2
 328 595 328 595 329 645 c 1,3,-1
 422 645 l 1,4,-1
 422 413 l 1,5,-1
 515 413 l 1,6,-1
 515 645 l 1,7,-1
 608 645 l 1,8,-1
 608 89 l 1,9,-1
 515 89 l 1,10,-1
 515 321 l 1,11,-1
 422 321 l 1,12,13
 422 282 422 282 421 206 c 128,-1,14
 420 130 420 130 420 91 c 1,15,16
 375 140 375 140 283.5 238.5 c 128,-1,17
 192 337 192 337 146 387 c 1,18,19
 146 337 146 337 145 237.5 c 128,-1,20
 144 138 144 138 144 89 c 1,21,-1
 51 89 l 1,22,-1
 51 365 l 2,23,24
 51 636 51 636 57 636 c 2,25,-1
 58 636 l 1,26,27
 76 618 76 618 196 488 c 2,28,-1
 327 346 l 1,0,1
EndSplineSet
Validated: 1
EndChar

StartChar: uni027B
Encoding: 635 635 135
Width: 658
Flags: W
LayerCount: 2
Fore
SplineSet
327 346 m 1,0,1
 328 396 328 396 328 495.5 c 128,-1,2
 328 595 328 595 329 645 c 1,3,-1
 422 645 l 1,4,-1
 422 413 l 1,5,-1
 515 413 l 1,6,-1
 515 645 l 1,7,-1
 608 645 l 1,8,-1
 608 89 l 1,9,-1
 515 89 l 1,10,-1
 515 321 l 1,11,-1
 422 321 l 1,12,13
 422 282 422 282 421 206 c 128,-1,14
 420 130 420 130 420 91 c 1,15,16
 375 140 375 140 283.5 238.5 c 128,-1,17
 192 337 192 337 146 387 c 1,18,19
 146 337 146 337 145 237.5 c 128,-1,20
 144 138 144 138 144 89 c 1,21,-1
 51 89 l 1,22,-1
 51 365 l 2,23,24
 51 636 51 636 57 636 c 2,25,-1
 58 636 l 1,26,27
 76 618 76 618 196 488 c 2,28,-1
 327 346 l 1,0,1
EndSplineSet
Validated: 1
EndChar

StartChar: uni027D
Encoding: 637 637 136
Width: 658
Flags: W
LayerCount: 2
Fore
SplineSet
327 346 m 1,0,1
 328 396 328 396 328 495.5 c 128,-1,2
 328 595 328 595 329 645 c 1,3,-1
 422 645 l 1,4,-1
 422 413 l 1,5,-1
 515 413 l 1,6,-1
 515 645 l 1,7,-1
 608 645 l 1,8,-1
 608 89 l 1,9,-1
 515 89 l 1,10,-1
 515 321 l 1,11,-1
 422 321 l 1,12,13
 422 282 422 282 421 206 c 128,-1,14
 420 130 420 130 420 91 c 1,15,16
 375 140 375 140 283.5 238.5 c 128,-1,17
 192 337 192 337 146 387 c 1,18,19
 146 337 146 337 145 237.5 c 128,-1,20
 144 138 144 138 144 89 c 1,21,-1
 51 89 l 1,22,-1
 51 365 l 2,23,24
 51 636 51 636 57 636 c 2,25,-1
 58 636 l 1,26,27
 76 618 76 618 196 488 c 2,28,-1
 327 346 l 1,0,1
EndSplineSet
Validated: 1
EndChar

StartChar: uni02A1
Encoding: 673 673 137
Width: 1049
Flags: W
LayerCount: 2
Fore
SplineSet
249 516 m 2,0,1
 445 666 445 666 447 666 c 0,2,3
 451 666 451 666 476.5 631 c 128,-1,4
 502 596 502 596 500 593 c 0,5,6
 213 380 213 380 213 368 c 0,7,8
 213 365 213 365 329 273 c 2,9,-1
 448 181 l 1,10,-1
 639 181 l 2,11,12
 771 181 771 181 804.5 182.5 c 128,-1,13
 838 184 838 184 858 192 c 0,14,15
 891 204 891 204 906 218 c 0,16,17
 927 233 927 233 930 233 c 0,18,19
 934 233 934 233 965 202 c 2,20,-1
 995 170 l 1,21,-1
 973 150 l 2,22,23
 954 134 954 134 924 117 c 0,24,25
 884 97 884 97 843.5 93 c 128,-1,26
 803 89 803 89 635 89 c 0,27,28
 483 89 483 89 453 90.5 c 128,-1,29
 423 92 423 92 408 99 c 0,30,31
 396 106 396 106 280 193.5 c 128,-1,32
 164 281 164 281 79 347 c 2,33,-1
 55 366 l 1,34,-1
 249 516 l 2,0,1
396 422 m 0,35,36
 406 428 406 428 426 428 c 0,37,38
 452 428 452 428 470 410.5 c 128,-1,39
 488 393 488 393 488 367 c 0,40,41
 487 340 487 340 468 323 c 128,-1,42
 449 306 449 306 424 306 c 0,43,44
 388 306 388 306 371 337 c 0,45,46
 364 351 364 351 364 364 c 0,47,48
 364 404 364 404 396 422 c 0,35,36
EndSplineSet
Validated: 33
EndChar

StartChar: uni0241
Encoding: 577 577 138
Width: 1049
Flags: W
LayerCount: 2
Fore
SplineSet
249 516 m 2,0,1
 445 666 445 666 447 666 c 0,2,3
 451 666 451 666 476.5 631 c 128,-1,4
 502 596 502 596 500 593 c 0,5,6
 499 590 499 590 357 481 c 128,-1,7
 215 372 215 372 213 369 c 0,8,9
 212 368 212 368 220.5 360.5 c 128,-1,10
 229 353 229 353 246.5 338.5 c 128,-1,11
 264 324 264 324 282.5 309.5 c 128,-1,12
 301 295 301 295 329 273 c 2,13,-1
 448 181 l 1,14,-1
 639 181 l 2,15,16
 771 181 771 181 804.5 182.5 c 128,-1,17
 838 184 838 184 858 192 c 0,18,19
 891 204 891 204 906 218 c 0,20,21
 927 233 927 233 930 233 c 0,22,23
 934 233 934 233 965 202 c 2,24,-1
 995 170 l 1,25,-1
 973 150 l 2,26,27
 954 134 954 134 924 117 c 0,28,29
 884 97 884 97 843.5 93 c 128,-1,30
 803 89 803 89 635 89 c 0,31,32
 483 89 483 89 453 90.5 c 128,-1,33
 423 92 423 92 408 99 c 0,34,35
 396 106 396 106 254 213 c 128,-1,36
 112 320 112 320 69 355 c 2,37,-1
 55 366 l 1,38,-1
 249 516 l 2,0,1
EndSplineSet
Validated: 33
EndChar

StartChar: uni0242
Encoding: 578 578 139
Width: 1049
Flags: W
LayerCount: 2
Fore
SplineSet
249 516 m 2,0,1
 445 666 445 666 447 666 c 0,2,3
 451 666 451 666 476.5 631 c 128,-1,4
 502 596 502 596 500 593 c 0,5,6
 499 590 499 590 357 481 c 128,-1,7
 215 372 215 372 213 369 c 0,8,9
 212 368 212 368 220.5 360.5 c 128,-1,10
 229 353 229 353 246.5 338.5 c 128,-1,11
 264 324 264 324 282.5 309.5 c 128,-1,12
 301 295 301 295 329 273 c 2,13,-1
 448 181 l 1,14,-1
 639 181 l 2,15,16
 771 181 771 181 804.5 182.5 c 128,-1,17
 838 184 838 184 858 192 c 0,18,19
 891 204 891 204 906 218 c 0,20,21
 927 233 927 233 930 233 c 0,22,23
 934 233 934 233 965 202 c 2,24,-1
 995 170 l 1,25,-1
 973 150 l 2,26,27
 954 134 954 134 924 117 c 0,28,29
 884 97 884 97 843.5 93 c 128,-1,30
 803 89 803 89 635 89 c 0,31,32
 483 89 483 89 453 90.5 c 128,-1,33
 423 92 423 92 408 99 c 0,34,35
 396 106 396 106 254 213 c 128,-1,36
 112 320 112 320 69 355 c 2,37,-1
 55 366 l 1,38,-1
 249 516 l 2,0,1
EndSplineSet
Validated: 33
EndChar

StartChar: uni0294
Encoding: 660 660 140
Width: 1049
Flags: W
LayerCount: 2
Fore
SplineSet
249 516 m 2,0,1
 445 666 445 666 447 666 c 0,2,3
 451 666 451 666 476.5 631 c 128,-1,4
 502 596 502 596 500 593 c 0,5,6
 499 590 499 590 357 481 c 128,-1,7
 215 372 215 372 213 369 c 0,8,9
 212 368 212 368 220.5 360.5 c 128,-1,10
 229 353 229 353 246.5 338.5 c 128,-1,11
 264 324 264 324 282.5 309.5 c 128,-1,12
 301 295 301 295 329 273 c 2,13,-1
 448 181 l 1,14,-1
 639 181 l 2,15,16
 771 181 771 181 804.5 182.5 c 128,-1,17
 838 184 838 184 858 192 c 0,18,19
 891 204 891 204 906 218 c 0,20,21
 927 233 927 233 930 233 c 0,22,23
 934 233 934 233 965 202 c 2,24,-1
 995 170 l 1,25,-1
 973 150 l 2,26,27
 954 134 954 134 924 117 c 0,28,29
 884 97 884 97 843.5 93 c 128,-1,30
 803 89 803 89 635 89 c 0,31,32
 483 89 483 89 453 90.5 c 128,-1,33
 423 92 423 92 408 99 c 0,34,35
 396 106 396 106 254 213 c 128,-1,36
 112 320 112 320 69 355 c 2,37,-1
 55 366 l 1,38,-1
 249 516 l 2,0,1
EndSplineSet
Validated: 33
EndChar

StartChar: uni0266
Encoding: 614 614 141
Width: 1048
Flags: W
LayerCount: 2
Fore
SplineSet
249 521 m 2,0,1
 444.302013423 671 444.302013423 671 447 671 c 0,2,3
 451 671 451 671 476.5 636 c 128,-1,4
 502 601 502 601 500 598 c 0,5,6
 213 385 213 385 213 373 c 0,7,8
 213 366.705882353 213 366.705882353 329 278 c 2,9,-1
 448 187 l 1,10,-1
 637 187 l 2,11,12
 795 187 795 187 832 191.5 c 0,13,14
 868.406779661 196.050847458 868.406779661 196.050847458 903 220 c 2,15,-1
 929 238 l 1,16,17
 971 196 971 196 993 175 c 1,18,-1
 977 155 l 2,19,20
 951 123 951 123 946.5 98.5 c 128,-1,22
 942 74 942 74 942 2.5 c 128,-1,23
 942 -69 942 -69 946.5 -106 c 0,24,25
 951.059064807 -144.498769483 951.059064807 -144.498769483 975 -176 c 2,26,-1
 994 -201 l 1,27,-1
 964 -232 l 2,28,29
 934 -263 934 -263 929 -263 c 0,30,31
 923 -263 923 -263 903.5 -237 c 128,-1,32
 884 -211 884 -211 873 -188 c 0,33,34
 853 -148 853 -148 849.5 -110.5 c 128,-1,35
 846 -73 846 -73 846 52 c 2,36,-1
 846 94 l 1,37,-1
 637 94 l 2,38,39
 488 94 488 94 455.5 95.5 c 128,-1,40
 423 97 423 97 408 105 c 0,41,42
 396 112 396 112 253.5 219 c 0,43,44
 92.313559322 340.016949153 92.313559322 340.016949153 69 360 c 2,45,-1
 55 372 l 1,46,-1
 249 521 l 2,0,1
396 427 m 0,47,48
 408 434 408 434 426 434 c 0,49,50
 452 434 452 434 470 416 c 128,-1,51
 488 398 488 398 488 372 c 0,52,53
 487 345 487 345 468 328 c 128,-1,54
 449 311 449 311 424 311 c 0,55,56
 388 311 388 311 371 342 c 0,57,58
 364 356 364 356 364 369 c 0,59,60
 364 409 364 409 396 427 c 0,47,48
EndSplineSet
Validated: 33
EndChar

StartChar: uni0263
Encoding: 611 611 142
Width: 600
Flags: W
LayerCount: 2
Fore
SplineSet
250 516 m 2,0,1
 445 666 445 666 448 666 c 0,2,3
 452 666 452 666 477.5 631 c 128,-1,4
 503 596 503 596 501 593 c 0,5,6
 213 375 213 375 213 368 c 0,7,8
 213 362 213 362 367 244 c 0,9,10
 473 163 473 163 500.5 139 c 128,-1,11
 528 115 528 115 537 97 c 2,12,-1
 550 71 l 1,13,-1
 550 18 l 2,14,15
 550 -32 550 -32 551.5 -67 c 128,-1,16
 553 -102 553 -102 560 -124 c 0,17,18
 571 -158 571 -158 586 -176 c 0,19,20
 602 -196 602 -196 602 -200 c 0,21,22
 602 -203 602 -203 570 -235 c 2,23,-1
 539 -266 l 1,24,-1
 519 -243 l 2,25,26
 465 -181 465 -181 463 -130 c 0,27,28
 460 -50 460 -50 456.5 11 c 0,29,30
 455 55 455 55 449 62 c 0,33,34
 446 66 446 66 408.5 95 c 128,-1,35
 371 124 371 124 317.5 165.5 c 128,-1,36
 264 207 264 207 213 245.5 c 128,-1,37
 162 284 162 284 121.5 315.5 c 128,-1,38
 81 347 81 347 80 347 c 2,39,-1
 55 366 l 1,40,-1
 250 516 l 2,0,1
397 422 m 0,41,42
 408 428 408 428 427 428 c 0,43,44
 453 428 453 428 471 410.5 c 128,-1,45
 489 393 489 393 489 367 c 0,46,47
 488 340 488 340 469 323 c 128,-1,48
 450 306 450 306 425 306 c 0,49,50
 389 306 389 306 372 337 c 0,51,52
 365 351 365 351 365 364 c 0,53,54
 365 404 365 404 397 422 c 0,41,42
EndSplineSet
Validated: 33
EndChar

StartChar: uni0259
Encoding: 601 601 143
Width: 674
Flags: W
LayerCount: 2
Fore
SplineSet
511 433 m 0,0,1
 502 455 502 455 495 455 c 0,2,3
 487 455 487 455 369 334.5 c 128,-1,4
 251 214 251 214 251 206 c 0,5,6
 251 200 251 200 283 189 c 0,7,8
 310 181 310 181 336 181 c 0,9,10
 389 181 389 181 435 210 c 128,-1,11
 481 239 481 239 506 289 c 0,12,13
 520 319 520 319 520 364 c 0,14,15
 520 412 520 412 511 433 c 0,0,1
399 542 m 0,16,17
 372 550 372 550 336 550 c 0,18,19
 310 550 310 550 288 545 c 0,20,21
 235 531 235 531 197 486.5 c 128,-1,22
 159 442 159 442 154 387 c 0,23,24
 153 381 153 381 153 368 c 0,25,26
 153 307 153 307 172 285 c 0,27,28
 176 281 176 281 178 281 c 0,29,30
 184 281 184 281 206 301.5 c 128,-1,31
 228 322 228 322 307 401 c 0,32,33
 412 507 412 507 420 521 c 0,34,35
 423 526 423 526 423 529 c 0,36,37
 423 535 423 535 399 542 c 0,16,17
502 595 m 1,38,39
 511 605 511 605 529 623 c 128,-1,40
 547 641 547 641 556 651 c 1,41,42
 600 609 600 609 621 587 c 1,43,-1
 595 560 l 2,44,45
 569 534 569 534 569 529 c 0,46,47
 569 522 569 522 585 495 c 0,48,49
 616 436 616 436 616 363 c 0,50,51
 616 330 616 330 608 298 c 0,52,53
 589 226 589 226 533.5 170.5 c 128,-1,54
 478 115 478 115 407 96 c 0,55,56
 380 89 380 89 345 89 c 0,57,58
 264 89 264 89 204 122 c 0,59,60
 182 135 182 135 176 135 c 128,-1,61
 170 135 170 135 144 109 c 2,62,-1
 118 84 l 1,63,-1
 54 148 l 1,64,-1
 109 203 l 1,65,-1
 92 235 l 2,66,67
 58 297 58 297 58 366 c 0,68,69
 58 477 58 477 142 563 c 0,70,71
 222 645 222 645 338 645 c 0,72,73
 406 645 406 645 469 612 c 2,74,-1
 502 595 l 1,38,39
EndSplineSet
Validated: 1
EndChar

StartChar: ycircumflex
Encoding: 375 375 144
Width: 668
Flags: W
LayerCount: 2
Fore
SplineSet
178 855 m 0,0,1
 178 863 178 863 184.5 865 c 128,-1,2
 191 867 191 867 224 867 c 0,3,4
 258 867 258 867 264 865.5 c 128,-1,5
 270 864 270 864 273 853 c 0,6,7
 278 830 278 830 293.5 818 c 128,-1,8
 309 806 309 806 330 806 c 128,-1,9
 351 806 351 806 368.5 818.5 c 128,-1,10
 386 831 386 831 392 853 c 0,11,12
 395 864 395 864 401 865.5 c 128,-1,13
 407 867 407 867 441 867 c 0,14,15
 474 867 474 867 480.5 865 c 128,-1,16
 487 863 487 863 487 855 c 0,17,18
 487 804 487 804 442 759 c 0,19,20
 395 712 395 712 332 712 c 0,21,22
 270 712 270 712 223 759 c 0,23,24
 178 804 178 804 178 855 c 0,0,1
503 443 m 0,25,26
 492 465 492 465 491 465 c 0,27,28
 489 465 489 465 366 342 c 0,29,30
 246 222 246 222 246 211 c 0,31,32
 246 205 246 205 278 194 c 0,33,34
 305 186 305 186 331 186 c 0,35,36
 384 186 384 186 430 215 c 128,-1,37
 476 244 476 244 501 294 c 0,38,39
 511 313 511 313 513 326 c 128,-1,40
 515 339 515 339 515 372 c 0,41,42
 515 420 515 420 503 443 c 0,25,26
404 544 m 0,43,44
 373 556 373 556 319 556 c 0,45,46
 300 556 300 556 286 553 c 0,47,48
 251 545 251 545 216.5 516.5 c 128,-1,49
 182 488 182 488 164 452 c 0,50,51
 148 420 148 420 148 370 c 0,52,53
 148 317 148 317 166 290 c 2,54,-1
 174 278 l 1,55,-1
 299 404 l 2,56,57
 425 530 425 530 425 532 c 0,58,59
 425 535 425 535 404 544 c 0,43,44
497 601 m 1,60,61
 533 637 533 637 551 656 c 1,62,-1
 616 591 l 1,63,64
 598 572 598 572 560 536 c 1,65,-1
 577 504 l 2,66,67
 611 441 611 441 611 373 c 0,68,69
 611 306 611 306 579 242 c 0,70,71
 555 195 555 195 505 155 c 128,-1,72
 455 115 455 115 402 101 c 0,73,74
 375 94 375 94 341 94 c 0,75,76
 264 94 264 94 204 127 c 0,77,78
 182 140 182 140 176 140 c 128,-1,79
 170 140 170 140 144 114 c 2,80,-1
 118 89 l 1,81,82
 96 110 96 110 54 154 c 1,83,84
 73 172 73 172 109 208 c 1,85,-1
 92 240 l 2,86,87
 60 301 60 301 60 376 c 2,88,-1
 60 395 l 2,89,90
 62 436 62 436 65 450.5 c 128,-1,91
 68 465 68 465 82 493 c 0,92,93
 101 531 101 531 134.5 566.5 c 128,-1,94
 168 602 168 602 202 619 c 0,95,96
 264 650 264 650 334 650 c 0,97,98
 406 650 406 650 464 618 c 2,99,-1
 497 601 l 1,60,61
EndSplineSet
Validated: 1
Ligature2: "'rlig' Required Ligatures lookup 0-1" y x
EndChar

StartChar: Ycircumflex
Encoding: 374 374 145
Width: 668
Flags: W
LayerCount: 2
Fore
SplineSet
178 855 m 0,0,1
 178 863 178 863 184.5 865 c 128,-1,2
 191 867 191 867 224 867 c 0,3,4
 258 867 258 867 264 865.5 c 128,-1,5
 270 864 270 864 273 853 c 0,6,7
 278 830 278 830 293.5 818 c 128,-1,8
 309 806 309 806 330 806 c 128,-1,9
 351 806 351 806 368.5 818.5 c 128,-1,10
 386 831 386 831 392 853 c 0,11,12
 395 864 395 864 401 865.5 c 128,-1,13
 407 867 407 867 441 867 c 0,14,15
 474 867 474 867 480.5 865 c 128,-1,16
 487 863 487 863 487 855 c 0,17,18
 487 804 487 804 442 759 c 0,19,20
 395 712 395 712 332 712 c 0,21,22
 270 712 270 712 223 759 c 0,23,24
 178 804 178 804 178 855 c 0,0,1
503 443 m 0,25,26
 492 465 492 465 491 465 c 0,27,28
 489 465 489 465 366 342 c 0,29,30
 246 222 246 222 246 211 c 0,31,32
 246 205 246 205 278 194 c 0,33,34
 305 186 305 186 331 186 c 0,35,36
 384 186 384 186 430 215 c 128,-1,37
 476 244 476 244 501 294 c 0,38,39
 511 313 511 313 513 326 c 128,-1,40
 515 339 515 339 515 372 c 0,41,42
 515 420 515 420 503 443 c 0,25,26
404 544 m 0,43,44
 373 556 373 556 319 556 c 0,45,46
 300 556 300 556 286 553 c 0,47,48
 251 545 251 545 216.5 516.5 c 128,-1,49
 182 488 182 488 164 452 c 0,50,51
 148 420 148 420 148 370 c 0,52,53
 148 317 148 317 166 290 c 2,54,-1
 174 278 l 1,55,-1
 299 404 l 2,56,57
 425 530 425 530 425 532 c 0,58,59
 425 535 425 535 404 544 c 0,43,44
497 601 m 1,60,61
 533 637 533 637 551 656 c 1,62,-1
 616 591 l 1,63,64
 598 572 598 572 560 536 c 1,65,-1
 577 504 l 2,66,67
 611 441 611 441 611 373 c 0,68,69
 611 306 611 306 579 242 c 0,70,71
 555 195 555 195 505 155 c 128,-1,72
 455 115 455 115 402 101 c 0,73,74
 375 94 375 94 341 94 c 0,75,76
 264 94 264 94 204 127 c 0,77,78
 182 140 182 140 176 140 c 128,-1,79
 170 140 170 140 144 114 c 2,80,-1
 118 89 l 1,81,82
 96 110 96 110 54 154 c 1,83,84
 73 172 73 172 109 208 c 1,85,-1
 92 240 l 2,86,87
 60 301 60 301 60 376 c 2,88,-1
 60 395 l 2,89,90
 62 436 62 436 65 450.5 c 128,-1,91
 68 465 68 465 82 493 c 0,92,93
 101 531 101 531 134.5 566.5 c 128,-1,94
 168 602 168 602 202 619 c 0,95,96
 264 650 264 650 334 650 c 0,97,98
 406 650 406 650 464 618 c 2,99,-1
 497 601 l 1,60,61
EndSplineSet
Validated: 1
Ligature2: "'rlig' Required Ligatures lookup 0-1" Y X
Ligature2: "'rlig' Required Ligatures lookup 0-1" Y x
EndChar

StartChar: uni018F
Encoding: 399 399 146
Width: 674
Flags: W
LayerCount: 2
Fore
SplineSet
511 433 m 0,0,1
 502 455 502 455 495 455 c 0,2,3
 487 455 487 455 369 334.5 c 128,-1,4
 251 214 251 214 251 206 c 0,5,6
 251 200 251 200 283 189 c 0,7,8
 310 181 310 181 336 181 c 0,9,10
 389 181 389 181 435 210 c 128,-1,11
 481 239 481 239 506 289 c 0,12,13
 520 319 520 319 520 364 c 0,14,15
 520 412 520 412 511 433 c 0,0,1
399 542 m 0,16,17
 372 550 372 550 336 550 c 0,18,19
 310 550 310 550 288 545 c 0,20,21
 235 531 235 531 197 486.5 c 128,-1,22
 159 442 159 442 154 387 c 0,23,24
 153 381 153 381 153 368 c 0,25,26
 153 307 153 307 172 285 c 0,27,28
 176 281 176 281 178 281 c 0,29,30
 184 281 184 281 206 301.5 c 128,-1,31
 228 322 228 322 307 401 c 0,32,33
 412 507 412 507 420 521 c 0,34,35
 423 526 423 526 423 529 c 0,36,37
 423 535 423 535 399 542 c 0,16,17
502 595 m 1,38,39
 511 605 511 605 529 623 c 128,-1,40
 547 641 547 641 556 651 c 1,41,42
 600 609 600 609 621 587 c 1,43,-1
 595 560 l 2,44,45
 569 534 569 534 569 529 c 0,46,47
 569 522 569 522 585 495 c 0,48,49
 616 436 616 436 616 363 c 0,50,51
 616 330 616 330 608 298 c 0,52,53
 589 226 589 226 533.5 170.5 c 128,-1,54
 478 115 478 115 407 96 c 0,55,56
 380 89 380 89 345 89 c 0,57,58
 264 89 264 89 204 122 c 0,59,60
 182 135 182 135 176 135 c 128,-1,61
 170 135 170 135 144 109 c 2,62,-1
 118 84 l 1,63,-1
 54 148 l 1,64,-1
 109 203 l 1,65,-1
 92 235 l 2,66,67
 58 297 58 297 58 366 c 0,68,69
 58 477 58 477 142 563 c 0,70,71
 222 645 222 645 338 645 c 0,72,73
 406 645 406 645 469 612 c 2,74,-1
 502 595 l 1,38,39
EndSplineSet
Validated: 1
EndChar

StartChar: uni01A9
Encoding: 425 425 147
Width: 781
Flags: W
LayerCount: 2
Fore
SplineSet
51 94 m 1,0,-1
 51 651 l 1,1,-1
 144 651 l 1,2,-1
 144 187 l 1,3,-1
 453 187 l 1,4,-1
 453 651 l 1,5,-1
 546 651 l 1,6,-1
 546 419 l 1,7,-1
 639 419 l 1,8,-1
 639 651 l 1,9,-1
 731 651 l 1,10,-1
 731 175 l 2,11,12
 731 -96 731 -96 739 -121 c 0,13,14
 755 -172 755 -172 780 -197 c 0,15,16
 781 -198 781 -198 781 -200 c 0,17,18
 781 -207.125 781 -207.125 753 -236 c 2,19,-1
 721 -269 l 1,20,-1
 700 -246 l 2,21,22
 681 -225 681 -225 666 -194.5 c 0,23,24
 650 -162 650 -162 644 -133 c 0,25,26
 639 -109 639 -109 639 111 c 2,27,-1
 639 326 l 1,28,-1
 546 326 l 1,29,-1
 546 94 l 1,30,-1
 51 94 l 1,0,-1
EndSplineSet
Validated: 1
EndChar

StartChar: uni0194
Encoding: 404 404 148
Width: 600
Flags: W
LayerCount: 2
Fore
SplineSet
250 516 m 2,0,1
 445 666 445 666 448 666 c 0,2,3
 452 666 452 666 477.5 631 c 128,-1,4
 503 596 503 596 501 593 c 0,5,6
 213 375 213 375 213 368 c 0,7,8
 213 362 213 362 367 244 c 0,9,10
 473 163 473 163 500.5 139 c 128,-1,11
 528 115 528 115 537 97 c 2,12,-1
 550 71 l 1,13,-1
 550 18 l 2,14,15
 550 -32 550 -32 551.5 -67 c 128,-1,16
 553 -102 553 -102 560 -124 c 0,17,18
 571 -158 571 -158 586 -176 c 0,19,20
 602 -196 602 -196 602 -200 c 0,21,22
 602 -203 602 -203 570 -235 c 2,23,-1
 539 -266 l 1,24,-1
 519 -243 l 2,25,26
 465 -181 465 -181 463 -130 c 0,27,28
 460 -50 460 -50 456.5 11 c 0,29,30
 455 55 455 55 449 62 c 0,33,34
 446 66 446 66 408.5 95 c 128,-1,35
 371 124 371 124 317.5 165.5 c 128,-1,36
 264 207 264 207 213 245.5 c 128,-1,37
 162 284 162 284 121.5 315.5 c 128,-1,38
 81 347 81 347 80 347 c 2,39,-1
 55 366 l 1,40,-1
 250 516 l 2,0,1
397 422 m 0,41,42
 408 428 408 428 427 428 c 0,43,44
 453 428 453 428 471 410.5 c 128,-1,45
 489 393 489 393 489 367 c 0,46,47
 488 340 488 340 469 323 c 128,-1,48
 450 306 450 306 425 306 c 0,49,50
 389 306 389 306 372 337 c 0,51,52
 365 351 365 351 365 364 c 0,53,54
 365 404 365 404 397 422 c 0,41,42
EndSplineSet
Validated: 33
EndChar

StartChar: grave
Encoding: 96 96 149
Width: 317
Flags: W
LayerCount: 2
Fore
SplineSet
68 679 m 0,0,1
 85 712 85 712 91 712 c 0,2,3
 95 712 95 712 180 662.5 c 128,-1,4
 265 613 265 613 265 611 c 0,5,6
 265 606 265 606 252.5 587 c 128,-1,7
 240 568 240 568 236 568 c 0,8,9
 52 637 52 637 52 644 c 0,10,11
 52 649 52 649 68 679 c 0,0,1
EndSplineSet
EndChar

StartChar: slash
Encoding: 47 47 150
Width: 363
Flags: W
LayerCount: 2
Fore
SplineSet
56 96 m 0,0,1
 55 94 55 94 55 90 c 0,2,3
 55 84 55 84 73 84 c 0,4,5
 76 84 76 84 84.5 84.5 c 128,-1,6
 93 85 93 85 100 85 c 2,7,-1
 148 87 l 1,8,-1
 227 363 l 2,9,10
 307 639 307 639 307 645 c 0,11,12
 307 650 307 650 282 650 c 2,13,-1
 262 650 l 1,14,-1
 217 649 l 1,15,-1
 138 378 l 2,16,17
 119 312 119 312 99 243.5 c 128,-1,18
 79 175 79 175 67.5 136 c 128,-1,19
 56 97 56 97 56 96 c 0,0,1
EndSplineSet
EndChar

StartChar: backslash
Encoding: 92 92 151
Width: 363
Flags: W
LayerCount: 2
Fore
SplineSet
56 644 m 0,0,1
 55 646 55 646 55 650 c 0,2,3
 55 656 55 656 73 656 c 0,4,5
 76 656 76 656 84.5 655.5 c 128,-1,6
 93 655 93 655 100 655 c 2,7,-1
 148 653 l 1,8,-1
 227 377 l 2,9,10
 307 101 307 101 307 95 c 0,11,12
 307 90 307 90 282 90 c 2,13,-1
 262 90 l 1,14,-1
 217 91 l 1,15,-1
 138 362 l 2,16,17
 119 428 119 428 99 496.5 c 128,-1,18
 79 565 79 565 67.5 604 c 128,-1,19
 56 643 56 643 56 644 c 0,0,1
EndSplineSet
EndChar

StartChar: at
Encoding: 64 64 152
Width: 674
Flags: W
LayerCount: 2
Fore
SplineSet
511 433 m 0,0,1
 502 455 502 455 495 455 c 0,2,3
 487 455 487 455 369 334.5 c 128,-1,4
 251 214 251 214 251 206 c 0,5,6
 251 200 251 200 283 189 c 0,7,8
 310 181 310 181 336 181 c 0,9,10
 389 181 389 181 435 210 c 128,-1,11
 481 239 481 239 506 289 c 0,12,13
 520 319 520 319 520 364 c 0,14,15
 520 412 520 412 511 433 c 0,0,1
399 542 m 0,16,17
 372 550 372 550 336 550 c 0,18,19
 310 550 310 550 288 545 c 0,20,21
 235 531 235 531 197 486.5 c 128,-1,22
 159 442 159 442 154 387 c 0,23,24
 153 381 153 381 153 368 c 0,25,26
 153 307 153 307 172 285 c 0,27,28
 176 281 176 281 178 281 c 0,29,30
 184 281 184 281 206 301.5 c 128,-1,31
 228 322 228 322 307 401 c 0,32,33
 412 507 412 507 420 521 c 0,34,35
 423 526 423 526 423 529 c 0,36,37
 423 535 423 535 399 542 c 0,16,17
502 595 m 1,38,39
 511 605 511 605 529 623 c 128,-1,40
 547 641 547 641 556 651 c 1,41,42
 600 609 600 609 621 587 c 1,43,-1
 595 560 l 2,44,45
 569 534 569 534 569 529 c 0,46,47
 569 522 569 522 585 495 c 0,48,49
 616 436 616 436 616 363 c 0,50,51
 616 330 616 330 608 298 c 0,52,53
 589 226 589 226 533.5 170.5 c 128,-1,54
 478 115 478 115 407 96 c 0,55,56
 380 89 380 89 345 89 c 0,57,58
 264 89 264 89 204 122 c 0,59,60
 182 135 182 135 176 135 c 128,-1,61
 170 135 170 135 144 109 c 2,62,-1
 118 84 l 1,63,-1
 54 148 l 1,64,-1
 109 203 l 1,65,-1
 92 235 l 2,66,67
 58 297 58 297 58 366 c 0,68,69
 58 477 58 477 142 563 c 0,70,71
 222 645 222 645 338 645 c 0,72,73
 406 645 406 645 469 612 c 2,74,-1
 502 595 l 1,38,39
EndSplineSet
Validated: 1
EndChar

StartChar: equal
Encoding: 61 61 153
Width: 207
Flags: W
LayerCount: 2
Fore
SplineSet
24 347 m 1,0,-1
 22 448 l 1,1,-1
 103 448 l 1,2,-1
 186 448 l 1,3,-1
 184 347 l 1,4,-1
 103 347 l 1,5,-1
 24 347 l 1,0,-1
26 90 m 1,6,-1
 26 191 l 1,7,-1
 103 191 l 1,8,-1
 184 191 l 1,9,-1
 184 90 l 1,10,-1
 103 90 l 1,11,-1
 26 90 l 1,6,-1
EndSplineSet
Validated: 1
EndChar

StartChar: less
Encoding: 60 60 154
Width: 548
Flags: W
LayerCount: 2
Fore
SplineSet
250 522 m 0,0,1
 440 666 440 666 441 666 c 0,2,3
 443 666 443 666 469 634 c 128,-1,4
 495 602 495 602 495 597 c 0,5,6
 495 589 495 589 355 484 c 0,7,8
 209 374 209 374 209 369 c 0,9,10
 209 359 209 359 348 254 c 0,11,12
 493 142 493 142 495 140 c 0,13,14
 498 135 498 135 471.5 102.5 c 128,-1,15
 445 70 445 70 438 70 c 2,16,-1
 437 70 l 2,17,18
 433 72 433 72 240 219 c 0,19,20
 55 360 55 360 55 370 c 0,21,22
 55 371 55 371 250 522 c 0,0,1
EndSplineSet
Validated: 33
EndChar

StartChar: greater
Encoding: 62 62 155
Width: 548
Flags: W
LayerCount: 2
Fore
SplineSet
302 522 m 0,0,1
 112 666 112 666 111 666 c 0,2,3
 109 666 109 666 83 634 c 128,-1,4
 57 602 57 602 57 597 c 0,5,6
 57 589 57 589 197 484 c 0,7,8
 343 374 343 374 343 369 c 0,9,10
 343 359 343 359 204 254 c 0,11,12
 59 142 59 142 57 140 c 0,13,14
 54 135 54 135 80.5 102.5 c 128,-1,15
 107 70 107 70 114 70 c 2,16,-1
 115 70 l 2,17,18
 119 72 119 72 312 219 c 0,19,20
 497 360 497 360 497 370 c 0,21,22
 497 371 497 371 302 522 c 0,0,1
EndSplineSet
Validated: 41
EndChar

StartChar: plus
Encoding: 43 43 156
Width: 510
Flags: W
LayerCount: 2
Fore
SplineSet
214 507 m 2,0,-1
 214 584 l 1,1,-1
 291 584 l 1,2,-1
 291 512 l 2,3,4
 291 439 291 439 299 432 c 0,5,6
 307 424 307 424 382 424 c 2,7,-1
 456 424 l 1,8,-1
 456 346 l 1,9,-1
 377 346 l 2,10,11
 297 346 297 346 294 338 c 128,-1,12
 291 330 291 330 291 258 c 2,13,-1
 291 187 l 1,14,-1
 214 187 l 1,15,-1
 214 346 l 1,16,-1
 54 346 l 1,17,-1
 54 424 l 1,18,-1
 126 424 l 2,19,20
 198 424 198 424 206 427 c 128,-1,21
 214 430 214 430 214 507 c 2,0,-1
EndSplineSet
EndChar

StartChar: asterisk
Encoding: 42 42 157
Width: 501
Flags: W
LayerCount: 2
Fore
SplineSet
81 547 m 0,0,1
 85 547 85 547 136.5 531.5 c 128,-1,2
 188 516 188 516 191 516 c 0,3,4
 197 516 197 516 197 586 c 2,5,-1
 197 656 l 1,6,-1
 300 656 l 1,7,-1
 300 512 l 1,8,-1
 356 530 l 2,9,10
 407 547 407 547 417 547 c 0,11,12
 421 547 421 547 434 512.5 c 128,-1,13
 447 478 447 478 447 467 c 0,14,15
 447 463 447 463 389 444.5 c 128,-1,16
 331 426 331 426 331 423 c 0,17,18
 331 421 331 421 367 367 c 128,-1,19
 403 313 403 313 403 311 c 0,20,21
 403 307 403 307 370.5 283 c 128,-1,22
 338 259 338 259 333 259 c 0,23,24
 325 263 325 263 290 310 c 0,25,26
 251 362 251 362 248 360 c 2,27,-1
 228 334 l 2,28,29
 208 309 208 309 188.5 284 c 128,-1,30
 169 259 169 259 168 259 c 0,31,32
 164 259 164 259 129 283.5 c 128,-1,33
 94 308 94 308 94 311 c 0,34,35
 94 312 94 312 130.5 366 c 128,-1,36
 167 420 167 420 167 425 c 0,37,38
 167 426 167 426 155.5 430 c 128,-1,39
 144 434 144 434 127.5 439.5 c 128,-1,40
 111 445 111 445 95 450 c 128,-1,41
 79 455 79 455 66 458 c 2,42,-1
 54 462 l 2,43,44
 53 462 53 462 53 467 c 0,45,46
 53 481 53 481 64.5 514 c 128,-1,47
 76 547 76 547 81 547 c 0,0,1
EndSplineSet
EndChar

StartChar: underscore
Encoding: 95 95 158
Width: 512
Flags: W
LayerCount: 2
Fore
SplineSet
50 -14 m 1,0,-1
 50 37 l 1,1,-1
 462 37 l 1,2,-1
 462 -14 l 1,3,-1
 50 -14 l 1,0,-1
EndSplineSet
EndChar

StartChar: bracketright
Encoding: 93 93 159
Width: 302
Flags: W
LayerCount: 2
Fore
SplineSet
55 670 m 2,0,-1
 57 702 l 1,1,-1
 252 702 l 1,2,-1
 252 -20 l 1,3,-1
 56 -20 l 1,4,-1
 56 52 l 1,5,-1
 104 54 l 1,6,-1
 152 55 l 1,7,-1
 152 622 l 1,8,-1
 104 624 l 2,9,10
 58 625 58 625 55 631 c 0,11,12
 54 633 54 633 54 649 c 0,13,14
 54 662 54 662 55 670 c 2,0,-1
EndSplineSet
EndChar

StartChar: bracketleft
Encoding: 91 91 160
Width: 301
Flags: W
LayerCount: 2
Fore
SplineSet
53 660 m 2,0,-1
 50 702 l 1,1,-1
 241 702 l 1,2,-1
 243 670 l 2,3,4
 244 661 244 661 244 645 c 0,5,6
 244 633 244 633 243 631 c 0,7,8
 241 625 241 625 194 625 c 2,9,-1
 148 625 l 1,10,-1
 151 536 l 2,11,12
 155 438 155 438 155 250 c 2,13,-1
 155 53 l 1,14,-1
 247 53 l 1,15,-1
 247 -20 l 1,16,-1
 57 -20 l 1,17,-1
 57 299 l 2,18,19
 57 612 57 612 53 660 c 2,0,-1
EndSplineSet
EndChar

StartChar: parenleft
Encoding: 40 40 161
Width: 323
Flags: W
LayerCount: 2
Fore
SplineSet
162 686 m 6,0,-1
 180 707 l 5,1,-1
 261 707 l 5,2,-1
 235 655 l 6,3,4
 198 581 198 581 182.5 508.5 c 132,-1,5
 167 436 167 436 167 338 c 6,6,-1
 167 328 l 6,7,8
 168 165 168 165 244 14 c 4,9,10
 249 4 249 4 255 -8.5 c 132,-1,11
 261 -21 261 -21 264 -27 c 6,12,-1
 267 -33 l 6,13,14
 267 -35 267 -35 226 -35 c 6,15,-1
 185 -35 l 5,16,-1
 160 2 l 6,17,18
 51 162 51 162 51 351 c 4,19,20
 51 465 51 465 94 560 c 4,21,22
 106 585 106 585 109 601 c 4,23,24
 111 611 111 611 128.5 638.5 c 132,-1,25
 146 666 146 666 162 686 c 6,0,-1
EndSplineSet
EndChar

StartChar: parenright
Encoding: 41 41 162
Width: 315
Flags: W
LayerCount: 2
Fore
SplineSet
56 705 m 132,-1,1
 56 707 56 707 96 707 c 6,2,-1
 136 707 l 5,3,-1
 154 684 l 6,4,5
 220 599 220 599 253 481 c 4,6,7
 264 444 264 444 264 344 c 4,8,9
 264 276 264 276 262 253 c 132,-1,10
 260 230 260 230 250 194 c 4,11,12
 219 78 219 78 147 -15 c 4,13,14
 136 -30 136 -30 129.5 -32.5 c 132,-1,15
 123 -35 123 -35 94 -35 c 4,16,17
 56 -35 56 -35 56 -30 c 4,18,19
 56 -24 56 -24 74 10 c 4,20,21
 155 172 155 172 155 341 c 4,22,23
 155 505 155 505 80 655 c 4,24,0
 56 703 56 703 56 705 c 132,-1,1
EndSplineSet
EndChar

StartChar: ampersand
Encoding: 38 38 163
Width: 739
Flags: W
LayerCount: 2
Fore
SplineSet
250 516 m 2,0,1
 446 666 446 666 448 666 c 128,-1,2
 450 666 450 666 475.5 634 c 128,-1,3
 501 602 501 602 501 597 c 128,-1,4
 501 592 501 592 364 486 c 0,5,6
 229 383 229 383 218 372 c 0,7,8
 217 371 217 371 217 369 c 0,9,10
 217 359 217 359 355 254 c 0,11,12
 500 142 500 142 501 140 c 0,13,14
 503 137 503 137 477.5 102.5 c 128,-1,15
 452 68 452 68 448 68 c 128,-1,16
 444 68 444 68 284 190 c 0,17,18
 95 336 95 336 90 340 c 2,19,-1
 55 366 l 1,20,-1
 250 516 l 2,0,1
587 180 m 0,21,22
 598 186 598 186 617 186 c 0,23,24
 643 186 643 186 660.5 167.5 c 128,-1,25
 678 149 678 149 678 124 c 0,26,27
 678 108 678 108 671 94 c 0,28,29
 656 64 656 64 618 64 c 0,30,31
 578 64 578 64 562 95 c 0,32,33
 555 109 555 109 555 122 c 0,34,35
 555 162 555 162 587 180 c 0,21,22
EndSplineSet
Validated: 33
EndChar

StartChar: percent
Encoding: 37 37 164
Width: 643
Flags: W
LayerCount: 2
Fore
SplineSet
171 615 m 0,0,1
 162 624 162 624 149 624 c 0,2,3
 132 624 132 624 125 612 c 0,4,5
 109 588 109 588 109 519 c 0,6,7
 109 454 109 454 124 432 c 0,8,9
 134 417 134 417 148 417 c 0,10,11
 160 417 160 417 170 429.5 c 128,-1,12
 180 442 180 442 184 464 c 0,13,14
 189 494 189 494 189 523 c 0,15,16
 189 594 189 594 171 615 c 0,0,1
112 665 m 0,17,18
 124 670 124 670 142 670 c 0,19,20
 183 670 183 670 199 657 c 0,21,22
 221 641 221 641 233 603.5 c 128,-1,23
 245 566 245 566 245 521 c 0,24,25
 245 421 245 421 201 389 c 0,26,27
 179 372 179 372 143 372 c 0,28,29
 121 372 121 372 108 379 c 0,30,31
 53 407 53 407 53 522 c 0,32,33
 53 586 53 586 66.5 618.5 c 128,-1,34
 80 651 80 651 112 665 c 0,17,18
295 379 m 2,35,-1
 486 671 l 1,36,-1
 545 671 l 1,37,-1
 534 655 l 2,38,39
 533 653 533 653 506 611.5 c 128,-1,40
 479 570 479 570 432 497.5 c 128,-1,41
 385 425 385 425 340 357 c 2,42,-1
 155 76 l 1,43,-1
 125 74 l 2,44,45
 118 73 118 73 109 73 c 0,46,47
 99 73 99 73 99 76 c 128,-1,48
 99 79 99 79 100 80 c 0,49,50
 104 88 104 88 295 379 c 2,35,-1
517 313 m 0,51,52
 508 327 508 327 493 327 c 0,53,54
 477 327 477 327 468 310 c 0,55,56
 454 286 454 286 454 226 c 0,57,58
 454 149 454 149 474 127 c 0,59,60
 484 116 484 116 494 116 c 128,-1,61
 504 116 504 116 514 127 c 0,62,63
 533 146 533 146 533 222 c 0,64,65
 533 288 533 288 517 313 c 0,51,52
455 365 m 0,66,67
 470 372 470 372 490 372 c 0,68,69
 515 372 515 372 536.5 359.5 c 128,-1,70
 558 347 558 347 569 325 c 0,71,72
 589 287 589 287 589 219 c 0,73,74
 589 207 589 207 587 185 c 0,75,76
 579 125 579 125 556.5 98.5 c 128,-1,77
 534 72 534 72 491 72 c 0,78,79
 396 72 396 72 396 224 c 0,80,81
 396 339 396 339 455 365 c 0,66,67
EndSplineSet
EndChar

StartChar: dollar
Encoding: 36 36 165
Width: 494
Flags: W
LayerCount: 2
Fore
SplineSet
296 297 m 0,0,1
 280 305 280 305 275 305 c 128,-1,2
 270 305 270 305 270 233 c 128,-1,3
 270 161 270 161 276 161 c 0,4,5
 281 161 281 161 299 170 c 0,6,7
 337 188 337 188 337 231 c 0,8,9
 337 276 337 276 296 297 c 0,0,1
234 495 m 1,10,-1
 234 508 l 2,11,12
 234 562 234 562 224 562 c 0,13,14
 221 562 221 562 205 555 c 0,15,16
 169 540 169 540 169 500 c 2,17,-1
 169 494 l 1,18,19
 175 445 175 445 223 431 c 2,20,-1
 234 428 l 1,21,-1
 234 495 l 1,10,-1
233 668 m 0,22,23
 234 682 234 682 237 684.5 c 128,-1,24
 240 687 240 687 252 687 c 128,-1,25
 264 687 264 687 267 684.5 c 128,-1,26
 270 682 270 682 271 668 c 0,27,28
 272 657 272 657 273.5 653.5 c 128,-1,29
 275 650 275 650 280 648.5 c 128,-1,30
 285 647 285 647 298 645 c 0,31,32
 348 638 348 638 384 605 c 128,-1,33
 420 572 420 572 428 523 c 0,34,35
 433 496 433 496 433 493 c 0,36,37
 433 486 433 486 384 486 c 2,38,-1
 333 486 l 1,39,-1
 330 506 l 2,40,41
 327 524 327 524 313.5 540.5 c 128,-1,42
 300 557 300 557 284 561 c 2,43,-1
 269 564 l 1,44,45
 270 540 270 540 271 491.5 c 128,-1,46
 272 443 272 443 273 418 c 1,47,-1
 321 398 l 2,48,49
 389 371 389 371 416 339 c 0,50,51
 442 309 442 309 442 253 c 0,52,53
 442 214 442 214 428.5 177.5 c 128,-1,54
 415 141 415 141 391 121 c 0,55,56
 375 107 375 107 347 94.5 c 128,-1,57
 319 82 319 82 297 79 c 0,58,59
 279 76 279 76 275.5 73.5 c 128,-1,60
 272 71 272 71 271 59 c 0,61,62
 269 47 269 47 266.5 44.5 c 128,-1,63
 264 42 264 42 252 42 c 128,-1,64
 240 42 240 42 237.5 44.5 c 128,-1,65
 235 47 235 47 233 59 c 0,66,67
 231 70 231 70 227.5 73 c 128,-1,68
 224 76 224 76 206 79 c 0,69,70
 135 89 135 89 100 124.5 c 128,-1,71
 65 160 65 160 57 232 c 2,72,-1
 53 259 l 1,73,-1
 156 259 l 1,74,-1
 162 231 l 2,75,76
 168 203 168 203 178 189 c 0,77,78
 186 180 186 180 202.5 170.5 c 128,-1,79
 219 161 219 161 229 161 c 0,80,81
 234 161 234 161 234 242 c 2,82,-1
 234 324 l 1,83,-1
 204 333 l 2,84,85
 109 361 109 361 81 415 c 0,86,87
 66 443 66 443 66 482 c 0,88,89
 66 496 66 496 69 510 c 0,90,91
 79 565 79 565 116 601.5 c 128,-1,92
 153 638 153 638 208 645 c 0,93,94
 225 647 225 647 228 650 c 128,-1,95
 231 653 231 653 233 668 c 0,22,23
EndSplineSet
EndChar

StartChar: numbersign
Encoding: 35 35 166
Width: 506
Flags: W
LayerCount: 2
Fore
SplineSet
289 387 m 2,0,-1
 293 424 l 1,1,-1
 220 424 l 1,2,-1
 214 385 l 2,3,4
 209 348 209 348 209 341 c 0,5,6
 209 331 209 331 213.5 328.5 c 128,-1,7
 218 326 218 326 232 326 c 2,8,-1
 244 326 l 1,9,-1
 254 326 l 2,10,11
 277 326 277 326 281 334 c 128,-1,12
 285 342 285 342 289 387 c 2,0,-1
250 660 m 2,13,-1
 229 500 l 2,14,15
 229 497 229 497 251 497 c 2,16,-1
 266 497 l 1,17,-1
 304 498 l 1,18,-1
 313 573 l 2,19,20
 321 639 321 639 325 655 c 0,21,22
 328 660 328 660 346 660 c 2,23,-1
 359 660 l 1,24,-1
 392 658 l 1,25,-1
 392 640 l 2,26,27
 394 624 394 624 386 572 c 0,28,29
 379 519 379 519 379 513 c 0,30,31
 379 502 379 502 383.5 499 c 128,-1,32
 388 496 388 496 402 496 c 2,33,-1
 415 496 l 1,34,-1
 452 496 l 1,35,-1
 448 474 l 2,36,37
 442 434 442 434 438 429.5 c 128,-1,38
 434 425 434 425 403 423 c 2,39,-1
 366 421 l 1,40,-1
 360 376 l 2,41,42
 357 352 357 352 357 336 c 0,43,44
 357 328 357 328 358 328 c 0,45,46
 359 326 359 326 395 326 c 2,47,-1
 430 326 l 1,48,-1
 427 307 l 2,49,50
 426 302 426 302 424.5 289 c 128,-1,51
 423 276 423 276 422 271 c 2,52,-1
 419 254 l 1,53,-1
 344 254 l 1,54,-1
 334 175 l 1,55,-1
 325 96 l 1,56,-1
 287 95 l 1,57,-1
 272 95 l 2,58,59
 250 95 250 95 250 97 c 0,60,61
 250 107 250 107 260 169 c 0,62,63
 269 234 269 234 269 238 c 0,64,65
 269 249 269 249 265 251.5 c 128,-1,66
 261 254 261 254 250 254 c 2,67,-1
 234 254 l 1,68,-1
 199 254 l 1,69,-1
 196 237 l 2,70,71
 193 225 193 225 187.5 173.5 c 128,-1,72
 182 122 182 122 180 113 c 2,73,-1
 177 94 l 1,74,-1
 141 94 l 2,75,76
 106 94 106 94 106 98 c 0,77,78
 106 103 106 103 114 165.5 c 128,-1,79
 122 228 122 228 124 240 c 2,80,-1
 126 254 l 1,81,-1
 54 254 l 1,82,-1
 54 274 l 2,83,84
 54 296 54 296 57 309 c 0,85,86
 59 321 59 321 64.5 323 c 128,-1,87
 70 325 70 325 97 327 c 2,88,-1
 134 328 l 1,89,-1
 137 349 l 2,90,91
 139 361 139 361 144 397 c 2,92,-1
 147 424 l 1,93,-1
 111 424 l 1,94,-1
 99 424 l 2,95,96
 84 424 84 424 79.5 426.5 c 128,-1,97
 75 429 75 429 75 438 c 0,98,99
 75 446 75 446 78 469 c 2,100,-1
 81 496 l 1,101,-1
 116 496 l 2,102,103
 152 496 152 496 155 501 c 0,104,105
 157 504 157 504 167 573 c 128,-1,106
 177 642 177 642 178 655 c 0,107,108
 178 661 178 661 214 661 c 128,-1,109
 250 661 250 661 250 660 c 2,13,-1
EndSplineSet
EndChar

StartChar: asciicircum
Encoding: 94 94 167
Width: 462
Flags: W
LayerCount: 2
Fore
SplineSet
52 498 m 1,0,1
 99 552 99 552 191 660 c 1,2,-1
 230 660 l 1,3,-1
 270 661 l 1,4,-1
 340 581 l 2,5,6
 410 504 410 504 410 498 c 0,7,8
 410 496 410 496 351 496 c 2,9,-1
 293 496 l 1,10,11
 272 520 272 520 232 570 c 1,12,-1
 222 557 l 2,13,14
 219 554 219 554 207.5 540.5 c 128,-1,15
 196 527 196 527 191 520 c 2,16,-1
 170 495 l 1,17,-1
 111 497 l 1,18,-1
 52 498 l 1,0,1
EndSplineSet
EndChar

StartChar: braceleft
Encoding: 123 123 168
Width: 352
Flags: W
LayerCount: 2
Fore
SplineSet
130 644 m 0,0,1
 145 679 145 679 175 691.5 c 128,-1,2
 205 704 205 704 263 707 c 2,3,-1
 298 707 l 1,4,-1
 298 635 l 1,5,-1
 274 635 l 2,6,7
 238 635 238 635 221 615 c 0,8,9
 216 609 216 609 216 550 c 2,10,-1
 216 506 l 1,11,-1
 218 406 l 1,12,-1
 203 386 l 2,13,14
 188 367 188 367 164 356 c 2,15,-1
 139 344 l 1,16,-1
 164 333 l 2,17,18
 189 322 189 322 203 302 c 2,19,-1
 218 282 l 1,20,-1
 216 182 l 1,21,-1
 216 138 l 2,22,23
 216 79 216 79 221 73 c 0,24,25
 238 53 238 53 274 53 c 2,26,-1
 298 53 l 1,27,-1
 298 -21 l 1,28,-1
 253 -18 l 2,29,30
 194 -14 194 -14 166 2 c 128,-1,31
 138 18 138 18 128 52 c 0,32,33
 123 69 123 69 123 165 c 0,34,35
 123 255 123 255 114 277.5 c 128,-1,36
 105 300 105 300 68 306 c 0,37,38
 62 307 62 307 60 313 c 128,-1,39
 58 319 58 319 57 341 c 0,40,41
 57 343 57 343 57 344 c 2,42,-1
 55 380 l 1,43,-1
 77 385 l 2,44,45
 99 390 99 390 111 408 c 0,46,47
 119 420 119 420 121 437.5 c 128,-1,48
 123 455 123 455 123 525 c 0,49,50
 123 628 123 628 130 644 c 0,0,1
EndSplineSet
EndChar

StartChar: braceright
Encoding: 125 125 169
Width: 353
Flags: W
LayerCount: 2
Fore
SplineSet
55 673 m 2,0,-1
 57 702 l 1,1,-1
 85 702 l 2,2,3
 188 702 188 702 216 647 c 0,4,5
 225 629 225 629 227 611 c 128,-1,6
 229 593 229 593 229 519 c 0,7,8
 229 416 229 416 238 403 c 0,9,10
 255 377 255 377 286 377 c 0,11,12
 294 377 294 377 296 375 c 128,-1,13
 298 373 298 373 298 363 c 0,14,15
 298 350 298 350 297 340 c 2,16,-1
 296 303 l 1,17,-1
 277 299 l 2,18,19
 241 293 241 293 231 259 c 0,20,21
 228 247 228 247 228 185 c 2,22,-1
 228 148 l 1,23,-1
 228 108 l 2,24,25
 228 53 228 53 217 31 c 0,26,27
 206 8 206 8 186 -3 c 0,28,29
 144 -25 144 -25 78 -25 c 2,30,-1
 56 -25 l 1,31,-1
 56 47 l 1,32,-1
 77 47 l 2,33,34
 95 47 95 47 110.5 54.5 c 128,-1,35
 126 62 126 62 131 72 c 0,36,37
 134 78 134 78 134 149 c 2,38,-1
 134 178 l 1,39,-1
 133 275 l 1,40,-1
 147 295 l 2,41,42
 156 309 156 309 176.5 322.5 c 128,-1,43
 197 336 197 336 211 337 c 0,44,45
 214 337 214 337 208 341 c 0,46,47
 202 344 202 344 193 348 c 0,48,49
 169 360 169 360 152 377 c 2,50,-1
 136 393 l 1,51,52
 136 428 136 428 135 499.5 c 128,-1,53
 134 571 134 571 134 607 c 1,54,-1
 121 618 l 2,55,56
 108 630 108 630 82 630 c 0,57,58
 64 630 64 630 59 633.5 c 128,-1,59
 54 637 54 637 54 651 c 0,60,61
 54 664 54 664 55 673 c 2,0,-1
EndSplineSet
EndChar

StartChar: asciitilde
Encoding: 126 126 170
Width: 530
Flags: W
LayerCount: 2
Fore
SplineSet
451 409 m 2,0,-1
 477 433 l 1,1,-1
 479 391 l 2,2,3
 479 387 479 387 479.5 380 c 128,-1,4
 480 373 480 373 480 370 c 0,5,6
 480 350 480 350 467 336 c 0,7,8
 455 322 455 322 425 307 c 0,9,10
 397 293 397 293 366 293 c 2,11,-1
 354 293 l 2,12,13
 326 293 326 293 309.5 296.5 c 128,-1,14
 293 300 293 300 256 315 c 0,15,16
 198 338 198 338 163 338 c 0,17,18
 120 338 120 338 76 300 c 2,19,-1
 52 278 l 1,20,-1
 52 322 l 2,21,22
 52 354 52 354 54.5 362 c 128,-1,23
 57 370 57 370 68 380 c 0,24,25
 94 401 94 401 115 408.5 c 128,-1,26
 136 416 136 416 171 416 c 0,27,28
 213 416 213 416 266 396 c 0,29,30
 323 373 323 373 365 373 c 0,31,32
 412 373 412 373 451 409 c 2,0,-1
EndSplineSet
EndChar

StartChar: bar
Encoding: 124 124 171
Width: 188
Flags: W
LayerCount: 2
Fore
SplineSet
57 724 m 0,0,1
 67 728 67 728 99 728 c 0,2,3
 123 728 123 728 129 725 c 0,4,5
 132 724 132 724 133.5 712.5 c 128,-1,6
 135 701 135 701 136 662 c 128,-1,7
 137 623 137 623 137.5 551.5 c 128,-1,8
 138 480 138 480 138 354 c 2,9,-1
 138 -14 l 1,10,-1
 50 -14 l 1,11,-1
 50 354 l 2,12,13
 50 721 50 721 57 724 c 0,0,1
EndSplineSet
EndChar

StartChar: uni0278
Encoding: 632 632 172
Width: 600
Flags: W
LayerCount: 2
Fore
SplineSet
54 553 m 1,0,-1
 54 645 l 1,1,-1
 549 645 l 1,2,-1
 549 170 l 2,3,4
 549 -307 549 -307 556 -334 c 0,5,6
 565 -365 565 -365 598 -409 c 0,7,8
 599 -410 599 -410 599 -412 c 0,9,10
 599 -419 599 -419 570 -448 c 2,11,-1
 538 -481 l 1,12,-1
 517 -458 l 2,13,14
 476 -412 476 -412 462 -345 c 0,15,16
 456 -317 456 -317 456 117 c 2,17,-1
 456 553 l 1,18,-1
 54 553 l 1,0,-1
EndSplineSet
Validated: 1
EndChar

StartChar: guillemotleft
Encoding: 171 171 173
Width: 474
Flags: W
LayerCount: 2
Fore
SplineSet
134 461 m 2,0,-1
 175 511 l 1,1,2
 204 484 204 484 231 455 c 1,3,-1
 212 433 l 2,4,5
 206 426 206 426 190.5 407.5 c 128,-1,6
 175 389 175 389 173 387 c 2,7,-1
 151 363 l 1,8,9
 192 318 192 318 231 274 c 1,10,-1
 206 246 l 2,11,12
 180 218 180 218 177 220 c 0,13,14
 172 220 172 220 113 292 c 2,15,-1
 54 363 l 1,16,-1
 73 387 l 2,17,18
 80 396 80 396 134 461 c 2,0,-1
257 360 m 0,19,20
 257 368 257 368 313.5 438.5 c 128,-1,21
 370 509 370 509 374 511 c 0,22,23
 377 511 377 511 401 483 c 0,24,25
 421 460 421 460 421 453 c 0,26,27
 421 444 421 444 380 399 c 2,28,-1
 348 364 l 1,29,-1
 380 328 l 2,30,31
 407 298 407 298 419 283 c 0,32,33
 422 280 422 280 422 276 c 0,34,35
 422 269 422 269 402 246 c 0,36,37
 379 219 379 219 374 219 c 0,38,39
 371 220 371 220 314 287.5 c 128,-1,40
 257 355 257 355 257 360 c 0,19,20
EndSplineSet
EndChar

StartChar: guillemotright
Encoding: 187 187 174
Width: 478
Flags: W
LayerCount: 2
Fore
SplineSet
81 478 m 2,0,1
 107 506 107 506 109 506 c 0,2,3
 226 370 226 370 226 362 c 0,4,5
 226 352 226 352 170 284 c 2,6,-1
 110 211 l 1,7,-1
 53 268 l 1,8,-1
 93 312 l 2,9,10
 97 316 97 316 102 321.5 c 128,-1,11
 107 327 107 327 109.5 330 c 128,-1,12
 112 333 112 333 115.5 337 c 128,-1,13
 119 341 119 341 120.5 343.5 c 128,-1,14
 122 346 122 346 124 349 c 128,-1,15
 126 352 126 352 126.5 354.5 c 128,-1,16
 127 357 127 357 127 359 c 0,17,18
 127 362 127 362 126.5 364.5 c 128,-1,19
 126 367 126 367 124 370 c 128,-1,20
 122 373 122 373 120 375.5 c 128,-1,21
 118 378 118 378 114 383 c 128,-1,22
 110 388 110 388 107 391 c 128,-1,23
 104 394 104 394 97.5 401 c 128,-1,24
 91 408 91 408 87 413 c 2,25,-1
 54 449 l 1,26,-1
 81 478 l 2,0,1
328 359 m 0,27,28
 328 360 328 360 292 403 c 128,-1,29
 256 446 256 446 256 447 c 0,30,31
 256 451 256 451 278.5 477.5 c 128,-1,32
 301 504 301 504 306 504 c 2,33,-1
 307 504 l 1,34,35
 316 498 316 498 370 429 c 128,-1,36
 424 360 424 360 424 355 c 0,37,38
 424 353 424 353 363 280 c 2,39,-1
 305 210 l 1,40,-1
 280 238 l 2,41,42
 256 266 256 266 256 269 c 128,-1,43
 256 272 256 272 292 314.5 c 128,-1,44
 328 357 328 357 328 359 c 0,27,28
EndSplineSet
EndChar

StartChar: uni2010
Encoding: 8208 8208 175
Width: 314
Flags: W
LayerCount: 2
Fore
SplineSet
51 305 m 1,0,-1
 51 393 l 1,1,-1
 262 393 l 1,2,-1
 262 305 l 1,3,-1
 51 305 l 1,0,-1
EndSplineSet
EndChar

StartChar: uni2011
Encoding: 8209 8209 176
Width: 314
Flags: W
LayerCount: 2
Fore
SplineSet
51 305 m 1,0,-1
 51 393 l 1,1,-1
 262 393 l 1,2,-1
 262 305 l 1,3,-1
 51 305 l 1,0,-1
EndSplineSet
EndChar

StartChar: figuredash
Encoding: 8210 8210 177
Width: 546
Flags: W
LayerCount: 2
Fore
SplineSet
51 310 m 1,0,-1
 51 398 l 1,1,-1
 494 398 l 1,2,-1
 494 310 l 1,3,-1
 51 310 l 1,0,-1
EndSplineSet
EndChar

StartChar: endash
Encoding: 8211 8211 178
Width: 546
Flags: W
LayerCount: 2
Fore
SplineSet
51 305 m 1,0,-1
 51 393 l 1,1,-1
 494 393 l 1,2,-1
 494 305 l 1,3,-1
 51 305 l 1,0,-1
EndSplineSet
EndChar

StartChar: emdash
Encoding: 8212 8212 179
Width: 789
Flags: W
LayerCount: 2
Fore
SplineSet
51 305 m 1,0,-1
 51 393 l 1,1,-1
 737 393 l 1,2,-1
 737 305 l 1,3,-1
 51 305 l 1,0,-1
EndSplineSet
EndChar

StartChar: afii00208
Encoding: 8213 8213 180
Width: 789
Flags: W
LayerCount: 2
Fore
SplineSet
51 305 m 1,0,-1
 51 393 l 1,1,-1
 737 393 l 1,2,-1
 737 305 l 1,3,-1
 51 305 l 1,0,-1
EndSplineSet
EndChar

StartChar: uni2016
Encoding: 8214 8214 181
Width: 476
Flags: W
LayerCount: 2
Fore
SplineSet
50 -14 m 1,0,-1
 50 718 l 1,1,-1
 138 718 l 1,2,-1
 138 -14 l 1,3,-1
 50 -14 l 1,0,-1
339 -14 m 1,4,-1
 339 718 l 1,5,-1
 426 718 l 1,6,-1
 426 -14 l 1,7,-1
 339 -14 l 1,4,-1
EndSplineSet
EndChar

StartChar: underscoredbl
Encoding: 8215 8215 182
Width: 497
Flags: W
LayerCount: 2
Fore
SplineSet
50 -40 m 1,0,-1
 50 37 l 1,1,-1
 447 37 l 1,2,-1
 447 -40 l 1,3,-1
 50 -40 l 1,0,-1
50 -215 m 1,4,-1
 50 -133 l 1,5,-1
 447 -133 l 1,6,-1
 447 -215 l 1,7,-1
 50 -215 l 1,4,-1
EndSplineSet
EndChar

StartChar: quotereversed
Encoding: 8219 8219 183
Width: 177
Flags: W
LayerCount: 2
Fore
SplineSet
51 439 m 1,0,-1
 51 656 l 1,1,-1
 89 655 l 1,2,-1
 126 653 l 1,3,-1
 126 442 l 1,4,-1
 89 440 l 1,5,-1
 51 439 l 1,0,-1
EndSplineSet
EndChar

StartChar: uni201f
Encoding: 8223 8223 184
Width: 300
Flags: W
LayerCount: 2
Fore
SplineSet
51 439 m 1,0,-1
 51 656 l 1,1,-1
 89 655 l 1,2,-1
 126 653 l 1,3,-1
 127 563 l 2,4,5
 127 553 127 553 127.5 533 c 128,-1,6
 128 513 128 513 128 505 c 0,7,8
 128 466 128 466 126 456 c 2,9,-1
 123 439 l 1,10,-1
 51 439 l 1,0,-1
173 653 m 0,11,12
 175 655 175 655 198 655 c 2,13,-1
 213 655 l 1,14,-1
 249 653 l 1,15,-1
 249 442 l 1,16,-1
 213 440 l 2,17,18
 209 440 209 440 202.5 439.5 c 128,-1,19
 196 439 196 439 194 439 c 0,20,21
 182 439 182 439 178.5 441.5 c 128,-1,22
 175 444 175 444 173 451 c 0,23,24
 170 463 170 463 170 564 c 0,25,26
 170 650 170 650 173 653 c 0,11,12
EndSplineSet
EndChar

StartChar: dagger
Encoding: 8224 8224 185
Width: 319
Flags: W
LayerCount: 2
Fore
SplineSet
146 714 m 2,0,1
 152 714 152 714 160.5 714.5 c 128,-1,2
 169 715 169 715 174 715.5 c 128,-1,3
 179 716 179 716 181 716 c 0,4,5
 186 718 186 718 195 714 c 0,6,7
 203 711 203 711 203 637 c 2,8,-1
 203 563 l 1,9,-1
 265 563 l 1,10,-1
 265 480 l 1,11,-1
 203 480 l 1,12,-1
 203 -20 l 1,13,-1
 116 -20 l 1,14,-1
 116 480 l 1,15,-1
 54 480 l 1,16,-1
 54 563 l 1,17,-1
 116 563 l 1,18,-1
 116 712 l 1,19,-1
 146 714 l 2,0,1
EndSplineSet
EndChar

StartChar: daggerdbl
Encoding: 8225 8225 186
Width: 319
Flags: W
LayerCount: 2
Fore
SplineSet
117 568 m 1,0,-1
 111 718 l 1,1,-1
 198 718 l 1,2,-1
 198 568 l 1,3,-1
 260 568 l 1,4,-1
 260 486 l 1,5,-1
 203 486 l 1,6,-1
 203 207 l 1,7,-1
 265 207 l 1,8,-1
 265 125 l 1,9,-1
 203 125 l 1,10,-1
 203 -14 l 1,11,-1
 116 -14 l 1,12,-1
 116 125 l 1,13,-1
 54 125 l 1,14,-1
 54 207 l 1,15,-1
 116 207 l 1,16,-1
 116 486 l 1,17,-1
 54 486 l 1,18,-1
 54 568 l 1,19,-1
 117 568 l 1,0,-1
EndSplineSet
EndChar

StartChar: bullet
Encoding: 8226 8226 187
Width: 221
Flags: W
LayerCount: 2
Fore
SplineSet
55 466 m 128,-1,1
 59 470 59 470 99 470 c 0,2,3
 159 470 159 470 162 464 c 0,4,5
 167 456 167 456 169 405 c 2,6,-1
 171 352 l 1,7,-1
 51 352 l 1,8,-1
 51 407 l 2,9,0
 51 462 51 462 55 466 c 128,-1,1
EndSplineSet
EndChar

StartChar: uni2023
Encoding: 8227 8227 188
Width: 238
Flags: W
LayerCount: 2
Fore
SplineSet
50 305 m 1,0,-1
 50 460 l 1,1,-1
 82 442 l 2,2,3
 116 423 116 423 149 404 c 0,4,5
 184 386 184 386 184 382 c 128,-1,6
 184 378 184 378 149 361 c 0,7,8
 116 342 116 342 82 323 c 2,9,-1
 50 305 l 1,0,-1
EndSplineSet
EndChar

StartChar: onedotenleader
Encoding: 8228 8228 189
Width: 221
Flags: W
LayerCount: 2
Fore
SplineSet
55 204 m 0,0,1
 57 206 57 206 89 206 c 2,2,-1
 112 206 l 1,3,-1
 167 205 l 1,4,-1
 169 147 l 1,5,-1
 170 89 l 1,6,-1
 51 89 l 1,7,-1
 51 144 l 2,8,9
 51 200 51 200 55 204 c 0,0,1
EndSplineSet
EndChar

StartChar: twodotenleader
Encoding: 8229 8229 190
Width: 585
Flags: W
LayerCount: 2
Fore
SplineSet
54 859 m 0,0,1
 56 861 56 861 88 861 c 2,2,-1
 111 861 l 1,3,-1
 166 859 l 1,4,-1
 168 802 l 1,5,-1
 169 743 l 1,6,-1
 50 743 l 1,7,-1
 50 799 l 2,8,9
 50 855 50 855 54 859 c 0,0,1
420 859 m 0,10,11
 422 861 422 861 454 861 c 2,12,-1
 477 861 l 1,13,-1
 532 859 l 1,14,-1
 534 802 l 1,15,-1
 535 743 l 1,16,-1
 416 743 l 1,17,-1
 416 799 l 2,18,19
 416 855 416 855 420 859 c 0,10,11
EndSplineSet
EndChar

StartChar: ellipsis
Encoding: 8230 8230 191
Width: 541
Flags: W
LayerCount: 2
Fore
SplineSet
58 209 m 0,0,1
 64 212 64 212 106 212 c 128,-1,2
 148 212 148 212 158 209 c 0,3,4
 166 207 166 207 168 198.5 c 128,-1,5
 170 190 170 190 170 150 c 2,6,-1
 170 94 l 1,7,-1
 51 94 l 1,8,-1
 51 150 l 2,9,10
 51 206 51 206 58 209 c 0,0,1
217 209 m 0,11,12
 223 212 223 212 266 212 c 0,13,14
 308 212 308 212 318 209 c 0,15,16
 326 207 326 207 327.5 199 c 128,-1,17
 329 191 329 191 329 150 c 2,18,-1
 329 94 l 1,19,-1
 211 94 l 1,20,-1
 211 150 l 2,21,22
 211 207 211 207 217 209 c 0,11,12
377 209 m 0,23,24
 383 212 383 212 426 212 c 0,25,26
 467 212 467 212 478 209 c 0,27,28
 486 207 486 207 487.5 199 c 128,-1,29
 489 191 489 191 489 150 c 2,30,-1
 489 94 l 1,31,-1
 371 94 l 1,32,-1
 371 150 l 2,33,34
 371 207 371 207 377 209 c 0,23,24
EndSplineSet
EndChar

StartChar: uni2027
Encoding: 8231 8231 192
Width: 220
Flags: W
LayerCount: 2
Fore
SplineSet
55 462 m 0,0,1
 57 464 57 464 89 464 c 2,2,-1
 112 464 l 1,3,-1
 167 462 l 1,4,-1
 169 405 l 1,5,-1
 170 346 l 1,6,-1
 51 346 l 1,7,-1
 51 402 l 2,8,9
 51 458 51 458 55 462 c 0,0,1
EndSplineSet
EndChar

StartChar: perthousand
Encoding: 8240 8240 193
Width: 884
Flags: W
LayerCount: 2
Fore
SplineSet
171 621 m 0,0,1
 164 630 164 630 150 630 c 0,2,3
 135 630 135 630 125 617 c 0,4,5
 109 593 109 593 109 524 c 0,6,7
 109 460 109 460 124 437 c 0,8,9
 134 422 134 422 147 422 c 0,10,11
 159 422 159 422 169.5 435 c 128,-1,12
 180 448 180 448 184 470 c 0,13,14
 189 500 189 500 189 529 c 0,15,16
 189 600 189 600 171 621 c 0,0,1
112 671 m 0,17,18
 121 675 121 675 140 675 c 0,19,20
 181 675 181 675 199 662 c 0,21,22
 245 629 245 629 245 528 c 0,23,24
 245 483 245 483 232.5 445.5 c 128,-1,25
 220 408 220 408 198 392 c 0,26,27
 183 381 183 381 151 378 c 2,28,-1
 140 378 l 2,29,30
 115 378 115 378 98.5 390 c 128,-1,31
 82 402 82 402 68 431 c 0,32,33
 57 453 57 453 55 467 c 128,-1,34
 53 481 53 481 53 524 c 0,35,36
 53 590 53 590 66.5 624 c 128,-1,37
 80 658 80 658 112 671 c 0,17,18
295 385 m 2,38,-1
 486 676 l 1,39,-1
 545 676 l 1,40,-1
 534 660 l 2,41,42
 533 658 533 658 506 616.5 c 128,-1,43
 479 575 479 575 432 502.5 c 128,-1,44
 385 430 385 430 340 362 c 2,45,-1
 155 81 l 1,46,-1
 125 79 l 2,47,48
 122 79 122 79 117.5 78.5 c 128,-1,49
 113 78 113 78 111 78 c 0,50,51
 99 78 99 78 99 82 c 0,52,53
 99 85 99 85 100 86 c 0,54,55
 104 94 104 94 295 385 c 2,38,-1
517 318 m 0,56,57
 508 332 508 332 493 332 c 0,58,59
 477 332 477 332 468 315 c 0,60,61
 453 291 453 291 453 233 c 0,62,63
 453 156 453 156 474 132 c 0,64,65
 484 121 484 121 494 121 c 0,66,67
 503 121 503 121 514 132 c 0,68,69
 533 151 533 151 533 227 c 0,70,71
 533 293 533 293 517 318 c 0,56,57
455 370 m 0,72,73
 470 377 470 377 489 377 c 0,74,75
 521 377 521 377 547 355.5 c 128,-1,76
 573 334 573 334 582 298 c 0,77,78
 588 276 588 276 588 231 c 0,79,80
 588 184 588 184 581 156 c 0,81,82
 562 77 562 77 491 77 c 0,83,84
 396 77 396 77 396 229 c 0,85,86
 396 282 396 282 412 320 c 128,-1,87
 428 358 428 358 455 370 c 0,72,73
760 318 m 0,88,89
 751 332 751 332 736 332 c 0,90,91
 720 332 720 332 711 315 c 0,92,93
 696 289 696 289 696 229 c 0,94,95
 696 154 696 154 716 132 c 0,96,97
 726 121 726 121 736 121 c 128,-1,98
 746 121 746 121 756 132 c 0,99,100
 776 152 776 152 776 230 c 0,101,102
 776 295 776 295 760 318 c 0,88,89
697 370 m 0,103,104
 712 376 712 376 730 376 c 0,105,106
 755 376 755 376 775 366 c 0,107,108
 804 352 804 352 817 320 c 128,-1,109
 830 288 830 288 830 228 c 0,110,111
 830 77 830 77 733 77 c 0,112,113
 638 77 638 77 638 229 c 0,114,115
 638 282 638 282 654 320 c 128,-1,116
 670 358 670 358 697 370 c 0,103,104
EndSplineSet
EndChar

StartChar: uni2031
Encoding: 8241 8241 194
Width: 1127
Flags: W
LayerCount: 2
Fore
SplineSet
460 640 m 2,0,-1
 486 681 l 1,1,-1
 516 681 l 2,2,3
 543 681 543 681 543 677 c 2,4,-1
 542 675 l 2,5,6
 535 666 535 666 496.5 606.5 c 128,-1,7
 458 547 458 547 458 545 c 128,-1,8
 458 543 458 543 308 314.5 c 128,-1,9
 158 86 158 86 154 82 c 0,10,11
 151 79 151 79 134 79 c 2,12,-1
 123 79 l 1,13,-1
 97 81 l 1,14,-1
 265 340 l 2,15,16
 458 637 458 637 460 640 c 2,0,-1
171 621 m 0,17,18
 164 630 164 630 150 630 c 0,19,20
 135 630 135 630 125 617 c 0,21,22
 109 593 109 593 109 524 c 0,23,24
 109 460 109 460 124 437 c 0,25,26
 134 422 134 422 147 422 c 0,27,28
 159 422 159 422 169.5 435 c 128,-1,29
 180 448 180 448 184 470 c 0,30,31
 189 500 189 500 189 529 c 0,32,33
 189 600 189 600 171 621 c 0,17,18
112 671 m 0,34,35
 121 675 121 675 140 675 c 0,36,37
 181 675 181 675 199 662 c 0,38,39
 245 629 245 629 245 528 c 0,40,41
 245 483 245 483 232.5 445.5 c 128,-1,42
 220 408 220 408 198 392 c 0,43,44
 183 381 183 381 151 378 c 2,45,-1
 140 378 l 2,46,47
 115 378 115 378 98.5 390 c 128,-1,48
 82 402 82 402 68 431 c 0,49,50
 57 453 57 453 55 467 c 128,-1,51
 53 481 53 481 53 524 c 0,52,53
 53 590 53 590 66.5 624 c 128,-1,54
 80 658 80 658 112 671 c 0,34,35
517 318 m 0,55,56
 508 332 508 332 493 332 c 0,57,58
 477 332 477 332 468 315 c 0,59,60
 453 291 453 291 453 233 c 0,61,62
 453 156 453 156 474 132 c 0,63,64
 484 121 484 121 494 121 c 0,65,66
 503 121 503 121 514 132 c 0,67,68
 533 151 533 151 533 227 c 0,69,70
 533 293 533 293 517 318 c 0,55,56
485 377 m 0,71,72
 499 379 499 379 505 379 c 0,73,74
 534 379 534 379 558 351 c 0,75,76
 588 317 588 317 588 238 c 2,77,-1
 588 228 l 2,78,79
 586 149 586 149 563 113 c 128,-1,80
 540 77 540 77 491 77 c 0,81,82
 441 77 441 77 418 118 c 0,83,84
 396 158 396 158 396 225 c 0,85,86
 396 307 396 307 425 345 c 0,87,88
 437 361 437 361 449 367.5 c 128,-1,89
 461 374 461 374 485 377 c 0,71,72
760 323 m 0,90,91
 751 337 751 337 736 337 c 0,92,93
 720 337 720 337 711 320 c 0,94,95
 696 294 696 294 696 235 c 0,96,97
 696 159 696 159 716 137 c 0,98,99
 726 126 726 126 736 126 c 0,100,101
 745 126 745 126 756 137 c 0,102,103
 776 157 776 157 776 235 c 0,104,105
 776 300 776 300 760 323 c 0,90,91
697 375 m 0,106,107
 714 382 714 382 732 382 c 0,108,109
 764 382 764 382 789.5 361 c 128,-1,110
 815 340 815 340 824 304 c 0,111,112
 830 280 830 280 830 232 c 128,-1,113
 830 184 830 184 824 161 c 0,114,115
 805 82 805 82 733 82 c 0,116,117
 638 82 638 82 638 235 c 0,118,119
 638 287 638 287 654 325 c 128,-1,120
 670 363 670 363 697 375 c 0,106,107
1002 323 m 0,121,122
 993 337 993 337 978 337 c 0,123,124
 962 337 962 337 953 320 c 0,125,126
 938 294 938 294 938 234 c 0,127,128
 938 159 938 159 958 137 c 0,129,130
 968 126 968 126 978 126 c 128,-1,131
 988 126 988 126 998 137 c 0,132,133
 1018 157 1018 157 1018 235 c 0,134,135
 1018 300 1018 300 1002 323 c 0,121,122
939 375 m 0,136,137
 954 382 954 382 975 382 c 0,138,139
 1030 382 1030 382 1054 336 c 0,140,141
 1073 300 1073 300 1073 231 c 0,142,143
 1073 219 1073 219 1071 195 c 0,144,145
 1063 135 1063 135 1040.5 108.5 c 128,-1,146
 1018 82 1018 82 975 82 c 0,147,148
 880 82 880 82 880 235 c 0,149,150
 880 349 880 349 939 375 c 0,136,137
EndSplineSet
EndChar

StartChar: minute
Encoding: 8242 8242 195
Width: 177
Flags: W
LayerCount: 2
Fore
SplineSet
51 439 m 1,0,-1
 51 656 l 1,1,-1
 89 655 l 1,2,-1
 126 653 l 1,3,-1
 126 442 l 1,4,-1
 89 440 l 1,5,-1
 51 439 l 1,0,-1
EndSplineSet
EndChar

StartChar: second
Encoding: 8243 8243 196
Width: 300
Flags: W
LayerCount: 2
Fore
SplineSet
51 439 m 1,0,-1
 51 656 l 1,1,-1
 89 655 l 1,2,-1
 126 653 l 1,3,-1
 127 558 l 2,4,5
 127 546 127 546 127.5 526 c 128,-1,6
 128 506 128 506 128 497 c 0,7,8
 128 459 128 459 126 451 c 128,-1,9
 124 443 124 443 118 441 c 128,-1,10
 112 439 112 439 87 439 c 2,11,-1
 51 439 l 1,0,-1
175 439 m 1,12,-1
 175 656 l 1,13,-1
 212 655 l 1,14,-1
 249 653 l 1,15,-1
 249 442 l 1,16,-1
 212 440 l 1,17,-1
 175 439 l 1,12,-1
EndSplineSet
EndChar

StartChar: uni2034
Encoding: 8244 8244 197
Width: 423
Flags: W
LayerCount: 2
Fore
SplineSet
51 444 m 1,0,-1
 51 661 l 1,1,-1
 87 661 l 2,2,3
 122 661 122 661 124 655 c 2,4,-1
 124 650 l 2,5,6
 124 645 124 645 124.5 637 c 128,-1,7
 125 629 125 629 125 620 c 128,-1,8
 125 611 125 611 124.5 586 c 128,-1,9
 124 561 124 561 124 546 c 2,10,-1
 123 444 l 1,11,-1
 51 444 l 1,0,-1
175 444 m 1,12,-1
 175 661 l 1,13,-1
 210 661 l 2,14,15
 246 661 246 661 247 655 c 0,16,17
 248 652 248 652 248 592 c 2,18,-1
 248 546 l 1,19,-1
 246 444 l 1,20,-1
 175 444 l 1,12,-1
298 444 m 1,21,-1
 298 661 l 1,22,-1
 336 660 l 1,23,24
 371 655 371 655 373 650 c 0,25,26
 373 596 373 596 372 540 c 2,27,-1
 371 444 l 1,28,-1
 298 444 l 1,21,-1
EndSplineSet
EndChar

StartChar: uni2035
Encoding: 8245 8245 198
Width: 177
Flags: W
LayerCount: 2
Fore
SplineSet
51 439 m 1,0,-1
 51 656 l 1,1,-1
 89 655 l 1,2,-1
 126 653 l 1,3,-1
 126 442 l 1,4,-1
 89 440 l 1,5,-1
 51 439 l 1,0,-1
EndSplineSet
EndChar

StartChar: uni2036
Encoding: 8246 8246 199
Width: 300
Flags: W
LayerCount: 2
Fore
SplineSet
51 439 m 1,0,-1
 51 656 l 1,1,-1
 89 655 l 1,2,-1
 126 653 l 1,3,-1
 127 563 l 2,4,5
 127 553 127 553 127.5 533 c 128,-1,6
 128 513 128 513 128 505 c 0,7,8
 128 466 128 466 126 456 c 2,9,-1
 123 439 l 1,10,-1
 51 439 l 1,0,-1
175 439 m 1,11,-1
 175 656 l 1,12,-1
 212 655 l 1,13,-1
 249 653 l 1,14,-1
 249 442 l 1,15,-1
 212 440 l 1,16,-1
 175 439 l 1,11,-1
EndSplineSet
EndChar

StartChar: uni2037
Encoding: 8247 8247 200
Width: 423
Flags: W
LayerCount: 2
Fore
SplineSet
51 439 m 1,0,-1
 51 656 l 1,1,-1
 87 656 l 2,2,3
 122 656 122 656 124 649 c 2,4,-1
 124 644 l 2,5,6
 124 639 124 639 124.5 631 c 128,-1,7
 125 623 125 623 125 614 c 128,-1,8
 125 605 125 605 124.5 580.5 c 128,-1,9
 124 556 124 556 124 541 c 2,10,-1
 123 439 l 1,11,-1
 51 439 l 1,0,-1
175 439 m 1,12,-1
 175 656 l 1,13,-1
 210 656 l 2,14,15
 245 656 245 656 247 649 c 0,16,17
 248 646 248 646 248 587 c 2,18,-1
 248 541 l 1,19,-1
 246 439 l 1,20,-1
 175 439 l 1,12,-1
298 439 m 1,21,-1
 298 656 l 1,22,-1
 335 655 l 1,23,-1
 372 653 l 1,24,-1
 372 554 l 2,25,26
 371 499 371 499 371 447 c 0,27,28
 370 439 370 439 335 439 c 2,29,-1
 298 439 l 1,21,-1
EndSplineSet
EndChar

StartChar: uni2038
Encoding: 8248 8248 201
Width: 464
Flags: W
LayerCount: 2
Fore
SplineSet
53 -74 m 1,0,1
 100 -20 100 -20 192 88 c 1,2,-1
 231 88 l 1,3,-1
 271 89 l 1,4,-1
 341 9 l 2,5,6
 411 -68 411 -68 411 -74 c 0,7,8
 411 -76 411 -76 352 -76 c 2,9,-1
 294 -76 l 1,10,11
 284 -64 284 -64 263.5 -39.5 c 128,-1,12
 243 -15 243 -15 233 -3 c 1,13,-1
 223 -15 l 2,14,15
 220 -19 220 -19 208.5 -32.5 c 128,-1,16
 197 -46 197 -46 192 -52 c 2,17,-1
 171 -77 l 1,18,-1
 112 -75 l 1,19,-1
 53 -74 l 1,0,1
EndSplineSet
EndChar

StartChar: guilsinglleft
Encoding: 8249 8249 202
Width: 277
Flags: W
LayerCount: 2
Fore
SplineSet
114 442 m 128,-1,1
 114 444 114 444 139 475 c 128,-1,2
 164 506 164 506 166 506 c 128,-1,3
 168 506 168 506 194 478 c 0,4,5
 213 456 213 456 213 449 c 0,6,7
 213 440 213 440 174 393 c 2,8,-1
 146 360 l 1,9,-1
 166 336 l 2,10,11
 171 330 171 330 185.5 313.5 c 128,-1,12
 200 297 200 297 205 291 c 2,13,-1
 224 270 l 1,14,-1
 199 241 l 2,15,16
 175 213 175 213 171 213 c 0,17,18
 168 213 168 213 111 282.5 c 128,-1,19
 54 352 54 352 54 357 c 0,20,21
 54 363 54 363 84 401.5 c 128,-1,0
 114 440 114 440 114 442 c 128,-1,1
EndSplineSet
EndChar

StartChar: guilsinglright
Encoding: 8250 8250 203
Width: 281
Flags: W
LayerCount: 2
Fore
SplineSet
81 478 m 2,0,1
 107 506 107 506 109 506 c 0,2,3
 226 371 226 371 226 362 c 0,4,5
 226 350 226 350 170 284 c 2,6,-1
 110 211 l 1,7,-1
 53 268 l 1,8,-1
 93 312 l 2,9,10
 128 351 128 351 128 359 c 0,11,12
 128 363 128 363 126 365 c 0,13,14
 108 388 108 388 87 412 c 2,15,-1
 54 449 l 1,16,-1
 81 478 l 2,0,1
EndSplineSet
EndChar

StartChar: Lacute
Encoding: 313 313 204
Width: 599
Flags: W
LayerCount: 2
Fore
SplineSet
51 553 m 1,0,-1
 51 645 l 1,1,-1
 546 645 l 1,2,-1
 546 608 l 2,3,4
 546 513 546 513 488.5 433.5 c 128,-1,5
 431 354 431 354 337 320 c 0,6,7
 315 312 315 312 289.5 309.5 c 128,-1,8
 264 307 264 307 179 306 c 2,9,-1
 51 304 l 1,10,-1
 51 397 l 1,11,12
 91 398 91 398 171 399.5 c 128,-1,13
 251 401 251 401 291 401 c 1,14,-1
 327 418 l 2,15,16
 398 453 398 453 429 515 c 0,17,18
 443 543 443 543 443 547 c 0,19,20
 443 553 443 553 247 553 c 2,21,-1
 51 553 l 1,0,-1
466 253 m 2,22,-1
 487 269 l 2,23,24
 489 269 489 269 517 234 c 2,25,-1
 546 197 l 1,26,-1
 530 185 l 2,27,28
 514 171 514 171 478.5 151 c 128,-1,29
 443 131 443 131 417 121 c 0,30,31
 367 102 367 102 332.5 97 c 128,-1,32
 298 92 298 92 189 90 c 2,33,-1
 51 88 l 1,34,-1
 51 180 l 1,35,-1
 181 182 l 2,36,37
 287 184 287 184 323.5 190.5 c 128,-1,38
 360 197 360 197 409 220 c 0,39,40
 452 241 452 241 466 253 c 2,22,-1
EndSplineSet
Ligature2: "'rlig' Required Ligatures lookup 0-1" L grave
EndChar

StartChar: lacute
Encoding: 314 314 205
Width: 599
Flags: W
LayerCount: 2
Fore
SplineSet
51 553 m 1,0,-1
 51 645 l 1,1,-1
 546 645 l 1,2,-1
 546 608 l 2,3,4
 546 513 546 513 488.5 433.5 c 128,-1,5
 431 354 431 354 337 320 c 0,6,7
 315 312 315 312 289.5 309.5 c 128,-1,8
 264 307 264 307 179 306 c 2,9,-1
 51 304 l 1,10,-1
 51 397 l 1,11,12
 91 398 91 398 171 399.5 c 128,-1,13
 251 401 251 401 291 401 c 1,14,-1
 327 418 l 2,15,16
 398 453 398 453 429 515 c 0,17,18
 443 543 443 543 443 547 c 0,19,20
 443 553 443 553 247 553 c 2,21,-1
 51 553 l 1,0,-1
466 253 m 2,22,-1
 487 269 l 2,23,24
 489 269 489 269 517 234 c 2,25,-1
 546 197 l 1,26,-1
 530 185 l 2,27,28
 514 171 514 171 478.5 151 c 128,-1,29
 443 131 443 131 417 121 c 0,30,31
 367 102 367 102 332.5 97 c 128,-1,32
 298 92 298 92 189 90 c 2,33,-1
 51 88 l 1,34,-1
 51 180 l 1,35,-1
 181 182 l 2,36,37
 287 184 287 184 323.5 190.5 c 128,-1,38
 360 197 360 197 409 220 c 0,39,40
 452 241 452 241 466 253 c 2,22,-1
EndSplineSet
Ligature2: "'rlig' Required Ligatures lookup 0-1" l grave
EndChar

StartChar: uni013B
Encoding: 315 315 206
Width: 598
Flags: W
LayerCount: 2
Fore
SplineSet
53 634 m 2,0,-1
 53 651 l 1,1,-1
 145 651 l 1,2,-1
 148 626 l 2,3,4
 159 552 159 552 229 513 c 0,5,6
 247 503 247 503 259 500.5 c 128,-1,7
 271 498 271 498 300 498 c 0,8,9
 344 498 344 498 372 513 c 0,10,11
 441 551 441 551 452 626 c 2,12,-1
 456 651 l 1,13,-1
 548 651 l 1,14,-1
 548 94 l 1,15,-1
 457 94 l 1,16,-1
 451 124 l 2,17,18
 439 180 439 180 396 214 c 128,-1,19
 353 248 353 248 299 248 c 0,20,21
 250 248 250 248 208 218 c 0,22,23
 163 184 163 184 150 124 c 2,24,-1
 144 94 l 1,25,-1
 53 94 l 1,26,-1
 53 111 l 2,27,28
 53 164 53 164 85 216 c 0,29,30
 113 262 113 262 156 294 c 128,-1,31
 199 326 199 326 248 337 c 0,32,33
 268 341 268 341 294 341 c 0,34,35
 376 341 376 341 435 303 c 2,36,-1
 455 290 l 1,37,-1
 455 455 l 1,38,-1
 431 439 l 2,39,40
 374 403 374 403 299 403 c 0,41,42
 234 403 234 403 182 431 c 0,43,44
 156 445 156 445 126.5 475 c 128,-1,45
 97 505 97 505 83 530 c 0,46,47
 71 551 71 551 62 583 c 128,-1,48
 53 615 53 615 53 634 c 2,0,-1
EndSplineSet
Ligature2: "'rlig' Required Ligatures lookup 0-1" L J
Ligature2: "'rlig' Required Ligatures lookup 0-1" L j
EndChar

StartChar: uni013C
Encoding: 316 316 207
Width: 598
Flags: W
LayerCount: 2
Fore
SplineSet
53 634 m 2,0,-1
 53 651 l 1,1,-1
 145 651 l 1,2,-1
 148 626 l 2,3,4
 159 552 159 552 229 513 c 0,5,6
 247 503 247 503 259 500.5 c 128,-1,7
 271 498 271 498 300 498 c 0,8,9
 344 498 344 498 372 513 c 0,10,11
 441 551 441 551 452 626 c 2,12,-1
 456 651 l 1,13,-1
 548 651 l 1,14,-1
 548 94 l 1,15,-1
 457 94 l 1,16,-1
 451 124 l 2,17,18
 439 180 439 180 396 214 c 128,-1,19
 353 248 353 248 299 248 c 0,20,21
 250 248 250 248 208 218 c 0,22,23
 163 184 163 184 150 124 c 2,24,-1
 144 94 l 1,25,-1
 53 94 l 1,26,-1
 53 111 l 2,27,28
 53 164 53 164 85 216 c 0,29,30
 113 262 113 262 156 294 c 128,-1,31
 199 326 199 326 248 337 c 0,32,33
 268 341 268 341 294 341 c 0,34,35
 376 341 376 341 435 303 c 2,36,-1
 455 290 l 1,37,-1
 455 455 l 1,38,-1
 431 439 l 2,39,40
 374 403 374 403 299 403 c 0,41,42
 234 403 234 403 182 431 c 0,43,44
 156 445 156 445 126.5 475 c 128,-1,45
 97 505 97 505 83 530 c 0,46,47
 71 551 71 551 62 583 c 128,-1,48
 53 615 53 615 53 634 c 2,0,-1
EndSplineSet
Ligature2: "'rlig' Required Ligatures lookup 0-1" l j
EndChar

StartChar: Lcaron
Encoding: 317 317 208
Width: 606
Flags: W
LayerCount: 2
Fore
SplineSet
371 616 m 0,0,1
 518 655 518 655 524 655 c 2,2,-1
 525 655 l 2,3,4
 531 655 531 655 536 643.5 c 128,-1,5
 541 632 541 632 545 612.5 c 128,-1,6
 549 593 549 593 549 592 c 0,7,8
 555 571 555 571 550 568 c 0,9,10
 547 565 547 565 424 532 c 0,11,12
 305 500 305 500 305 495 c 0,13,14
 305 492 305 492 360.5 459.5 c 128,-1,15
 416 427 416 427 472 396 c 2,16,-1
 528 364 l 2,17,18
 530 363 530 363 507 324 c 128,-1,19
 484 285 484 285 481 285 c 128,-1,20
 478 285 478 285 432 311 c 128,-1,21
 386 337 386 337 338 364.5 c 128,-1,22
 290 392 290 392 284 394 c 0,23,24
 276 397 276 397 216 431 c 0,25,26
 64 517 64 517 64 525 c 0,27,28
 64 527 64 527 65 527 c 0,29,30
 74 531 74 531 147 551 c 0,31,32
 220 569 220 569 224 573 c 0,33,34
 227 576 227 576 371 616 c 0,0,1
97 381 m 0,35,36
 101 385 101 385 102 385 c 0,37,38
 107 385 107 385 214 323 c 0,39,40
 310 268 310 268 317 266 c 0,41,42
 322 264 322 264 396.5 223 c 128,-1,43
 471 182 471 182 471 179 c 0,44,45
 447 100 447 100 427 100 c 0,46,47
 414 100 414 100 185 231 c 0,48,49
 60 303 60 303 55 308 c 0,50,51
 54 309 54 309 72 340.5 c 128,-1,52
 90 372 90 372 97 381 c 0,35,36
EndSplineSet
Ligature2: "'rlig' Required Ligatures lookup 0-1" L grave grave
EndChar

StartChar: lcaron
Encoding: 318 318 209
Width: 606
Flags: W
LayerCount: 2
Fore
SplineSet
371 616 m 0,0,1
 518 655 518 655 524 655 c 2,2,-1
 525 655 l 2,3,4
 531 655 531 655 536 643.5 c 128,-1,5
 541 632 541 632 545 612.5 c 128,-1,6
 549 593 549 593 549 592 c 0,7,8
 555 571 555 571 550 568 c 0,9,10
 547 565 547 565 424 532 c 0,11,12
 305 500 305 500 305 495 c 0,13,14
 305 492 305 492 360.5 459.5 c 128,-1,15
 416 427 416 427 472 396 c 2,16,-1
 528 364 l 2,17,18
 530 363 530 363 507 324 c 128,-1,19
 484 285 484 285 481 285 c 128,-1,20
 478 285 478 285 432 311 c 128,-1,21
 386 337 386 337 338 364.5 c 128,-1,22
 290 392 290 392 284 394 c 0,23,24
 276 397 276 397 216 431 c 0,25,26
 64 517 64 517 64 525 c 0,27,28
 64 527 64 527 65 527 c 0,29,30
 74 531 74 531 147 551 c 0,31,32
 220 569 220 569 224 573 c 0,33,34
 227 576 227 576 371 616 c 0,0,1
97 381 m 0,35,36
 101 385 101 385 102 385 c 0,37,38
 107 385 107 385 214 323 c 0,39,40
 310 268 310 268 317 266 c 0,41,42
 322 264 322 264 396.5 223 c 128,-1,43
 471 182 471 182 471 179 c 0,44,45
 447 100 447 100 427 100 c 0,46,47
 414 100 414 100 185 231 c 0,48,49
 60 303 60 303 55 308 c 0,50,51
 54 309 54 309 72 340.5 c 128,-1,52
 90 372 90 372 97 381 c 0,35,36
EndSplineSet
Ligature2: "'rlig' Required Ligatures lookup 0-1" l grave grave
EndChar

StartChar: Lslash
Encoding: 321 321 210
Width: 1048
Flags: W
LayerCount: 2
Fore
SplineSet
290 589 m 0,0,1
 512 650 512 650 524 650 c 2,2,-1
 525 650 l 2,3,4
 531 650 531 650 536 638.5 c 128,-1,5
 541 627 541 627 545 607.5 c 128,-1,6
 549 588 549 588 549 587 c 0,7,8
 555 566 555 566 550 563 c 0,9,10
 547 560 547 560 424 527 c 0,11,12
 305 495 305 495 305 490 c 0,13,14
 305 487 305 487 360.5 454.5 c 128,-1,15
 416 422 416 422 472 390 c 2,16,-1
 528 359 l 2,17,18
 530 358 530 358 507 318.5 c 128,-1,19
 484 279 484 279 481 279 c 0,20,21
 480 279 480 279 316 373 c 0,22,23
 62 521 62 521 61 525 c 0,24,25
 63 527 63 527 290 589 c 0,0,1
97 381 m 0,26,27
 101 385 101 385 102 385 c 0,28,29
 107 385 107 385 214 323 c 0,30,31
 230 313 230 313 377 229 c 2,32,-1
 450 187 l 1,33,-1
 639 187 l 2,34,35
 774 187 774 187 805.5 188.5 c 128,-1,36
 837 190 837 190 857 197 c 0,37,38
 890 209 890 209 905 223 c 0,39,40
 926 238 926 238 929 238 c 0,41,42
 933 238 933 238 964 207 c 2,43,-1
 994 175 l 1,44,-1
 972 155 l 2,45,46
 953 139 953 139 923 122 c 0,47,48
 883 102 883 102 842 98 c 128,-1,49
 801 94 801 94 632 94 c 2,50,-1
 423 94 l 1,51,-1
 240 200 l 2,52,53
 59 304 59 304 55 308 c 0,54,55
 54 309 54 309 72 340.5 c 128,-1,56
 90 372 90 372 97 381 c 0,26,27
EndSplineSet
Ligature2: "'rlig' Required Ligatures lookup 0-1" L grave grave grave
EndChar

StartChar: lslash
Encoding: 322 322 211
Width: 1048
Flags: W
LayerCount: 2
Fore
SplineSet
290 589 m 0,0,1
 512 650 512 650 524 650 c 2,2,-1
 525 650 l 2,3,4
 531 650 531 650 536 638.5 c 128,-1,5
 541 627 541 627 545 607.5 c 128,-1,6
 549 588 549 588 549 587 c 0,7,8
 555 566 555 566 550 563 c 0,9,10
 547 560 547 560 424 527 c 0,11,12
 305 495 305 495 305 490 c 0,13,14
 305 487 305 487 360.5 454.5 c 128,-1,15
 416 422 416 422 472 390 c 2,16,-1
 528 359 l 2,17,18
 530 358 530 358 507 318.5 c 128,-1,19
 484 279 484 279 481 279 c 0,20,21
 480 279 480 279 316 373 c 0,22,23
 62 521 62 521 61 525 c 0,24,25
 63 527 63 527 290 589 c 0,0,1
97 381 m 0,26,27
 101 385 101 385 102 385 c 0,28,29
 107 385 107 385 214 323 c 0,30,31
 230 313 230 313 377 229 c 2,32,-1
 450 187 l 1,33,-1
 639 187 l 2,34,35
 774 187 774 187 805.5 188.5 c 128,-1,36
 837 190 837 190 857 197 c 0,37,38
 890 209 890 209 905 223 c 0,39,40
 926 238 926 238 929 238 c 0,41,42
 933 238 933 238 964 207 c 2,43,-1
 994 175 l 1,44,-1
 972 155 l 2,45,46
 953 139 953 139 923 122 c 0,47,48
 883 102 883 102 842 98 c 128,-1,49
 801 94 801 94 632 94 c 2,50,-1
 423 94 l 1,51,-1
 240 200 l 2,52,53
 59 304 59 304 55 308 c 0,54,55
 54 309 54 309 72 340.5 c 128,-1,56
 90 372 90 372 97 381 c 0,26,27
EndSplineSet
Ligature2: "'rlig' Required Ligatures lookup 0-1" l grave grave grave
EndChar

StartChar: cedilla
Encoding: 184 184 212
Width: 211
Flags: W
LayerCount: 2
Fore
SplineSet
51 89 m 1,0,-1
 51 192 l 1,1,-1
 160 192 l 1,2,-1
 158 126 l 2,3,4
 156 57 156 57 143 29 c 128,-1,5
 130 1 130 1 90 -18 c 0,6,7
 65 -29 65 -29 59 -29 c 0,8,9
 51 -29 51 -29 51 -12 c 0,10,11
 51 -1 51 -1 55 4.5 c 128,-1,12
 59 10 59 10 74 19 c 0,13,14
 108 39 108 39 108 73 c 0,15,16
 108 84 108 84 104 86.5 c 128,-1,17
 100 89 100 89 79 89 c 2,18,-1
 51 89 l 1,0,-1
EndSplineSet
EndChar

StartChar: yen
Encoding: 165 165 213
Width: 361
Flags: W
LayerCount: 2
Fore
SplineSet
201 89 m 1,0,-1
 201 192 l 1,1,-1
 309 192 l 1,2,-1
 309 89 l 1,3,-1
 201 89 l 1,0,-1
-57 847 m 2,4,-1
 -57 862 l 1,5,-1
 35 862 l 1,6,-1
 38 846 l 2,7,8
 42 829 42 829 60.5 814.5 c 128,-1,9
 79 800 79 800 98 800 c 128,-1,10
 117 800 117 800 135 814.5 c 128,-1,11
 153 829 153 829 157 846 c 2,12,-1
 161 862 l 1,13,-1
 252 862 l 1,14,-1
 252 847 l 2,15,16
 252 799 252 799 206 753 c 0,17,18
 159 706 159 706 98 706 c 0,19,20
 73 706 73 706 43 716 c 0,21,22
 5 729 5 729 -26 769.5 c 128,-1,23
 -57 810 -57 810 -57 847 c 2,4,-1
51 89 m 1,24,-1
 51 645 l 1,25,-1
 144 645 l 1,26,-1
 144 89 l 1,27,-1
 51 89 l 1,24,-1
EndSplineSet
EndChar

StartChar: sterling
Encoding: 163 163 214
Width: 910
Flags: W
LayerCount: 2
Fore
SplineSet
754 89 m 1,0,-1
 754 192 l 1,1,-1
 862 192 l 1,2,-1
 862 89 l 1,3,-1
 754 89 l 1,0,-1
94 642 m 2,4,5
 124 660 124 660 135 660 c 0,6,7
 137 660 137 660 138 659 c 0,8,9
 139 655 139 655 196.5 557.5 c 128,-1,10
 254 460 254 460 257 460 c 128,-1,11
 260 460 260 460 279 493 c 0,12,13
 333 591 333 591 433 630 c 0,14,15
 454 638 454 638 477 640 c 128,-1,16
 500 642 500 642 584 644 c 2,17,-1
 704 646 l 1,18,-1
 704 89 l 1,19,-1
 611 89 l 1,20,-1
 611 553 l 1,21,-1
 561 553 l 2,22,23
 474 553 474 553 426 522 c 0,24,25
 404 508 404 508 386 484.5 c 128,-1,26
 368 461 368 461 339 410 c 0,27,28
 315 368 315 368 315 360 c 0,29,30
 315 356 315 356 318 351 c 0,31,32
 322 345 322 345 389.5 226.5 c 128,-1,33
 457 108 457 108 457 105 c 0,34,35
 457 101 457 101 421.5 81 c 128,-1,36
 386 61 386 61 380 61 c 2,37,-1
 379 61 l 2,38,39
 373 64 373 64 317 163 c 0,40,41
 261 261 261 261 256 261 c 0,42,43
 253 261 253 261 196 162 c 0,44,45
 144 68 144 68 137 61 c 1,46,-1
 136 61 l 1,47,48
 56 90 56 90 56 102 c 0,49,50
 56 104 56 104 129 232 c 2,51,-1
 204 361 l 1,52,-1
 142 468 l 2,53,54
 97 544 97 544 66 597 c 2,55,-1
 54 619 l 1,56,-1
 94 642 l 2,4,5
EndSplineSet
EndChar

StartChar: cent
Encoding: 162 162 215
Width: 800
Flags: W
LayerCount: 2
Fore
SplineSet
622 89 m 1,0,-1
 622 192 l 1,1,-1
 730 192 l 1,2,-1
 730 89 l 1,3,-1
 622 89 l 1,0,-1
51 94 m 1,4,-1
 51 651 l 1,5,-1
 144 651 l 1,6,-1
 144 187 l 1,7,-1
 454 187 l 1,8,9
 453 265 453 265 450.5 419.5 c 128,-1,10
 448 574 448 574 446 651 c 1,11,-1
 541 651 l 1,12,-1
 541 512 l 2,13,14
 541 350 541 350 544 234 c 2,15,-1
 547 94 l 1,16,-1
 51 94 l 1,4,-1
51 -92 m 1,17,-1
 51 1 l 1,18,-1
 546 1 l 1,19,-1
 546 1 l 2,20,21
 546 -94 546 -94 552 -118 c 0,22,23
 564 -169 564 -169 595 -200 c 0,24,25
 596 -201 596 -201 596 -203 c 0,26,27
 596 -208.09375 596 -208.09375 567 -238 c 2,28,-1
 535 -271 l 1,29,-1
 515 -248 l 2,30,31
 494 -224 494 -224 481 -199 c 0,32,33
 462 -160 462 -160 457.5 -125.5 c 0,34,35
 453 -94 453 -94 453 -92 c 2,36,-1
 453 -92 l 1,37,-1
 51 -92 l 1,17,-1
EndSplineSet
EndChar

